<svg width="30" height="30" viewBox="0 0 30 30" fill="none" xmlns="http://www.w3.org/2000/svg">
<g clip-path="url(#clip0_103_39)">
<path d="M13.875 6.07282V5.31695C11.6941 5.57355 9.66327 6.55769 8.11048 8.11048C6.55769 9.66327 5.57355 11.6941 5.31695 13.875H6.07282C6.32543 11.894 7.22868 10.0529 8.64081 8.64081C10.0529 7.22868 11.894 6.32543 13.875 6.07282ZM6.07282 16.125H5.31695C5.57355 18.3059 6.55769 20.3367 8.11048 21.8895C9.66327 23.4423 11.6941 24.4264 13.875 24.6831V23.9272C11.894 23.6746 10.0529 22.7713 8.64081 21.3592C7.22868 19.9471 6.32543 18.106 6.07282 16.125ZM15 8.25C15.0995 8.25 15.1948 8.21048 15.2652 8.14016C15.3355 8.06983 15.375 7.97445 15.375 7.875V3.375C15.375 3.27554 15.3355 3.18016 15.2652 3.10983C15.1948 3.03951 15.0995 3 15 3C14.9005 3 14.8052 3.03951 14.7348 3.10983C14.6645 3.18016 14.625 3.27554 14.625 3.375V7.875C14.625 7.97445 14.6645 8.06983 14.7348 8.14016C14.8052 8.21048 14.9005 8.25 15 8.25ZM15 21.75C14.9005 21.75 14.8052 21.7895 14.7348 21.8598C14.6645 21.9302 14.625 22.0255 14.625 22.125V26.625C14.625 26.7245 14.6645 26.8198 14.7348 26.8902C14.8052 26.9605 14.9005 27 15 27C15.0995 27 15.1948 26.9605 15.2652 26.8902C15.3355 26.8198 15.375 26.7245 15.375 26.625V22.125C15.375 22.0255 15.3355 21.9302 15.2652 21.8598C15.1948 21.7895 15.0995 21.75 15 21.75ZM26.625 14.625H22.125C22.0255 14.625 21.9302 14.6645 21.8598 14.7348C21.7895 14.8052 21.75 14.9005 21.75 15C21.75 15.0995 21.7895 15.1948 21.8598 15.2652C21.9302 15.3355 22.0255 15.375 22.125 15.375H26.625C26.7245 15.375 26.8198 15.3355 26.8902 15.2652C26.9605 15.1948 27 15.0995 27 15C27 14.9005 26.9605 14.8052 26.8902 14.7348C26.8198 14.6645 26.7245 14.625 26.625 14.625ZM8.25 15C8.25 14.9005 8.21048 14.8052 8.14016 14.7348C8.06983 14.6645 7.97445 14.625 7.875 14.625H3.375C3.27554 14.625 3.18016 14.6645 3.10983 14.7348C3.03951 14.8052 3 14.9005 3 15C3 15.0995 3.03951 15.1948 3.10983 15.2652C3.18016 15.3355 3.27554 15.375 3.375 15.375H7.875C7.97445 15.375 8.06983 15.3355 8.14016 15.2652C8.21048 15.1948 8.25 15.0995 8.25 15ZM18.1329 10.3306C16.9732 9.55074 15.5651 9.22935 14.1819 9.42876C12.7986 9.62817 11.5387 10.3342 10.6465 11.4099C9.75422 12.4855 9.29326 13.8543 9.35296 15.2505C9.41267 16.6468 9.98878 17.9712 10.9696 18.9668C11.9504 19.9624 13.266 20.5583 14.6612 20.6389C16.0564 20.7195 17.4319 20.2791 18.5208 19.403C19.6097 18.527 20.3345 17.2778 20.5546 15.8977C20.7747 14.5176 20.4745 13.1049 19.712 11.9336L19.171 12.4788C19.792 13.5033 20.015 14.7202 19.7977 15.8983C19.5803 17.0764 18.9378 18.1337 17.9922 18.8692C17.0466 19.6047 15.8637 19.9673 14.6684 19.888C13.473 19.8086 12.3484 19.293 11.5082 18.439C10.6681 17.585 10.1709 16.4521 10.1111 15.2556C10.0514 14.0591 10.4332 12.8823 11.1841 11.9489C11.935 11.0154 13.0026 10.3902 14.1841 10.1922C15.3656 9.99419 16.5787 10.2371 17.5929 10.8747L18.1329 10.3306ZM19.5099 6.37335L19.5177 6.36594C18.4612 5.8099 17.3109 5.45424 16.125 5.31695V6.07282C17.1895 6.20665 18.2211 6.53124 19.1705 7.03101C19.2061 6.77976 19.3258 6.54797 19.5099 6.37335ZM22.9042 10.7054C23.4409 11.6885 23.7879 12.7637 23.9272 13.875H24.6831C24.5376 12.6172 24.1468 11.4002 23.5326 10.293L23.3639 10.4506C23.233 10.5708 23.0755 10.6581 22.9042 10.7054Z" fill="#9D3A21" stroke="#9D3A21" stroke-width="0.5"/>
<path d="M15.2251 14.3253L15.2121 14.3112L15.2765 14.1008C15.3056 14.0057 15.2957 13.9029 15.249 13.8151C15.2023 13.7273 15.1226 13.6616 15.0275 13.6325C14.9324 13.6034 14.8297 13.6133 14.7418 13.66C14.654 13.7067 14.5883 13.7863 14.5592 13.8814L14.0789 15.4528C14.0596 15.5158 14.0573 15.5827 14.0721 15.6468C14.0869 15.7109 14.1183 15.77 14.1632 15.8181C14.2083 15.866 14.2651 15.9013 14.3279 15.9205C14.3908 15.9398 14.4576 15.9424 14.5217 15.928L16.1102 15.562C16.1582 15.5509 16.2035 15.5305 16.2436 15.5019C16.2837 15.4733 16.3178 15.4371 16.3439 15.3954C16.37 15.3536 16.3877 15.3071 16.3958 15.2585C16.404 15.21 16.4025 15.1603 16.3914 15.1123C16.3803 15.0643 16.3599 15.0189 16.3314 14.9788C16.3028 14.9387 16.2666 14.9046 16.2248 14.8785C16.183 14.8524 16.1365 14.8347 16.088 14.8266C16.0394 14.8185 15.9897 14.82 15.9417 14.831C15.9417 14.831 15.7339 14.8789 15.7332 14.8781L20.6875 9.88606L22.5725 10.0029C22.5804 10.0034 22.5881 10.0036 22.5957 10.0036C22.6908 10.0037 22.7823 9.96752 22.8517 9.90254L25.5685 7.36414C25.6187 7.31725 25.655 7.25746 25.6736 7.1913C25.6921 7.12514 25.6921 7.05516 25.6736 6.989C25.655 6.92284 25.6187 6.86305 25.5685 6.81615C25.5182 6.76926 25.4561 6.73707 25.3888 6.72309L23.6446 6.36036L23.289 4.61282C23.2756 4.54724 23.245 4.48642 23.2002 4.43668C23.1555 4.38694 23.0982 4.35009 23.0344 4.32995C22.9705 4.3098 22.9025 4.30711 22.8373 4.32214C22.7721 4.33718 22.7121 4.36939 22.6635 4.41543L20.026 6.91738C19.9855 6.95577 19.9541 7.00271 19.9341 7.05479C19.914 7.10687 19.9058 7.16277 19.9101 7.21841L20.0814 9.43187L15.2251 14.3253ZM22.4577 9.24429L21.3901 9.17815L23.4637 7.08875L24.5279 7.31014L22.4577 9.24429ZM20.6717 7.33853L22.6889 5.42507L22.9218 6.5698L20.7792 8.72877L20.6717 7.33853ZM16.125 23.9272V24.6831C17.0162 24.5797 17.8887 24.3527 18.7174 24.0088C18.5722 23.8024 18.4472 23.5825 18.3442 23.3522C17.6322 23.6384 16.8864 23.8317 16.125 23.9272ZM23.9272 16.125C23.8416 16.8038 23.6783 17.4706 23.4404 18.1121C23.6741 18.2091 23.898 18.3284 24.1088 18.4685C24.3973 17.7144 24.5902 16.9271 24.683 16.125H23.9272ZM21.9375 18.5625C21.3071 18.5625 20.6908 18.7495 20.1666 19.0997C19.6424 19.45 19.2339 19.9478 18.9926 20.5302C18.7514 21.1127 18.6882 21.7536 18.8112 22.3719C18.9342 22.9902 19.2378 23.5581 19.6836 24.0039C20.1294 24.4497 20.6973 24.7533 21.3156 24.8763C21.934 24.9993 22.5749 24.9361 23.1573 24.6949C23.7397 24.4536 24.2376 24.0451 24.5878 23.5209C24.938 22.9967 25.125 22.3805 25.125 21.75C25.124 20.9049 24.7879 20.0947 24.1903 19.4972C23.5928 18.8996 22.7826 18.5635 21.9375 18.5625ZM21.9375 24.1875C21.4554 24.1875 20.9841 24.0446 20.5833 23.7767C20.1824 23.5089 19.87 23.1282 19.6855 22.6828C19.501 22.2374 19.4528 21.7473 19.5468 21.2745C19.6409 20.8017 19.873 20.3673 20.2139 20.0265C20.5548 19.6856 20.9891 19.4534 21.462 19.3594C21.9348 19.2653 22.4249 19.3136 22.8703 19.4981C23.3157 19.6826 23.6964 19.995 23.9642 20.3958C24.232 20.7967 24.375 21.2679 24.375 21.75C24.3742 22.3963 24.1172 23.0158 23.6602 23.4728C23.2033 23.9297 22.5837 24.1868 21.9375 24.1875Z" fill="#9D3A21" stroke="#9D3A21" stroke-width="0.5"/>
<path d="M14.2681 13.0741C14.4082 12.9745 14.5693 12.9083 14.739 12.8808C14.9086 12.8532 15.0824 12.865 15.2468 12.9152C15.2984 12.9316 15.3485 12.9522 15.3968 12.9767C15.427 12.9826 15.4563 12.9905 15.486 12.9977L16.0766 12.4026C15.4765 12.151 14.808 12.114 14.1838 12.2978C13.5595 12.4815 13.0177 12.8748 12.6495 13.4113C12.2814 13.9479 12.1094 14.5949 12.1625 15.2435C12.2157 15.892 12.4907 16.5024 12.9413 16.9719C13.3919 17.4413 13.9905 17.7412 14.6364 17.8208C15.2822 17.9005 15.9357 17.7551 16.4869 17.4092C17.0381 17.0634 17.4532 16.5381 17.6624 15.9219C17.8715 15.3057 17.8619 14.6363 17.6352 14.0263L17.0286 14.6375C17.0338 14.6669 17.0382 14.6965 17.0422 14.7262C17.0768 14.7955 17.1037 14.8685 17.1222 14.9438C17.1667 15.1369 17.1593 15.3384 17.1008 15.5278C17.0423 15.7172 16.9347 15.8877 16.789 16.0221C16.6253 16.3093 16.3948 16.553 16.1171 16.7324C15.8394 16.9119 15.5225 17.0219 15.1934 17.0531C14.8642 17.0844 14.5323 17.036 14.2258 16.912C13.9193 16.7881 13.647 16.5922 13.4321 16.3409C13.2172 16.0896 13.066 15.7902 12.9911 15.4682C12.9162 15.1461 12.9199 14.8108 13.0018 14.4904C13.0838 14.1701 13.2417 13.8742 13.462 13.6277C13.6824 13.3812 13.9589 13.1913 14.2681 13.0741ZM22.8243 20.8041L21.4818 21.9082L21.0679 21.5233C21.0319 21.4896 20.9896 21.4634 20.9434 21.4461C20.8973 21.4288 20.8481 21.4207 20.7988 21.4225C20.7495 21.4242 20.7011 21.4356 20.6562 21.456C20.6113 21.4765 20.5709 21.5056 20.5374 21.5417C20.5038 21.5778 20.4776 21.6202 20.4604 21.6664C20.4432 21.7127 20.4353 21.7618 20.4371 21.8111C20.439 21.8604 20.4505 21.9088 20.4711 21.9536C20.4917 21.9985 20.5209 22.0388 20.5571 22.0723L21.2111 22.6807C21.2776 22.7426 21.3643 22.7783 21.4551 22.7811C21.5459 22.7839 21.6346 22.7536 21.7048 22.6959L23.3007 21.3834C23.3389 21.3522 23.3705 21.3137 23.3937 21.2702C23.417 21.2268 23.4314 21.1791 23.4363 21.1301C23.4411 21.081 23.4362 21.0314 23.4218 20.9843C23.4075 20.9371 23.384 20.8932 23.3527 20.8551C23.3214 20.817 23.2828 20.7855 23.2393 20.7623C23.1958 20.7392 23.1481 20.7248 23.0991 20.72C23.05 20.7153 23.0005 20.7203 22.9533 20.7347C22.9062 20.7491 22.8623 20.7727 22.8243 20.8041Z" fill="#9D3A21" stroke="#9D3A21" stroke-width="0.5"/>
</g>
<circle cx="15" cy="15" r="15" fill="#D25239" fill-opacity="0.2"/>
<defs>
<clipPath id="clip0_103_39">
<rect width="24" height="24" fill="white" transform="translate(3 3)"/>
</clipPath>
</defs>
</svg>
