<svg width="35" height="30" viewBox="0 0 35 30" fill="none" xmlns="http://www.w3.org/2000/svg">
<g clip-path="url(#clip0_9_28)">
<path d="M18.5938 3.84102V2.89619C15.8676 3.21694 13.3291 4.44712 11.3881 6.3881C9.44712 8.32909 8.21694 10.8676 7.89619 13.5938H8.84102C9.15678 11.1175 10.2858 8.81617 12.051 7.05101C13.8162 5.28585 16.1175 4.15678 18.5938 3.84102ZM8.84102 16.4062H7.89619C8.21694 19.1324 9.44712 21.6709 11.3881 23.6119C13.3291 25.5529 15.8676 26.7831 18.5938 27.1038V26.159C16.1175 25.8432 13.8162 24.7141 12.051 22.949C10.2858 21.1838 9.15678 18.8825 8.84102 16.4062ZM20 6.5625C20.1243 6.56249 20.2435 6.51311 20.3314 6.4252C20.4194 6.33729 20.4687 6.21807 20.4688 6.09375V0.46875C20.4688 0.34443 20.4194 0.225201 20.3315 0.137294C20.2435 0.049386 20.1243 0 20 0C19.8757 0 19.7565 0.049386 19.6685 0.137294C19.5806 0.225201 19.5312 0.34443 19.5312 0.46875V6.09375C19.5313 6.21807 19.5806 6.33729 19.6686 6.4252C19.7565 6.51311 19.8757 6.56249 20 6.5625ZM20 23.4375C19.8757 23.4375 19.7565 23.4869 19.6686 23.5748C19.5806 23.6627 19.5313 23.7819 19.5312 23.9062V29.5312C19.5312 29.6556 19.5806 29.7748 19.6685 29.8627C19.7565 29.9506 19.8757 30 20 30C20.1243 30 20.2435 29.9506 20.3315 29.8627C20.4194 29.7748 20.4688 29.6556 20.4688 29.5312V23.9062C20.4687 23.7819 20.4194 23.6627 20.3314 23.5748C20.2435 23.4869 20.1243 23.4375 20 23.4375ZM34.5312 14.5312H28.9062C28.7819 14.5312 28.6627 14.5806 28.5748 14.6685C28.4869 14.7565 28.4375 14.8757 28.4375 15C28.4375 15.1243 28.4869 15.2435 28.5748 15.3315C28.6627 15.4194 28.7819 15.4688 28.9062 15.4688H34.5312C34.6556 15.4688 34.7748 15.4194 34.8627 15.3315C34.9506 15.2435 35 15.1243 35 15C35 14.8757 34.9506 14.7565 34.8627 14.6685C34.7748 14.5806 34.6556 14.5312 34.5312 14.5312ZM11.5625 15C11.5625 14.8757 11.5131 14.7565 11.4252 14.6686C11.3373 14.5806 11.2181 14.5313 11.0938 14.5312H5.46875C5.34443 14.5312 5.2252 14.5806 5.13729 14.6685C5.04939 14.7565 5 14.8757 5 15C5 15.1243 5.04939 15.2435 5.13729 15.3315C5.2252 15.4194 5.34443 15.4688 5.46875 15.4688H11.0938C11.2181 15.4687 11.3373 15.4194 11.4252 15.3314C11.5131 15.2435 11.5625 15.1243 11.5625 15ZM23.9161 9.16327C22.4664 8.18843 20.7064 7.78668 18.9773 8.03595C17.2483 8.28521 15.6734 9.16772 14.5581 10.5123C13.4428 11.8569 12.8666 13.5678 12.9412 15.3132C13.0158 17.0585 13.736 18.714 14.962 19.9585C16.188 21.203 17.8325 21.9478 19.5765 22.0486C21.3205 22.1493 23.0399 21.5988 24.401 20.5038C25.7622 19.4088 26.6682 17.8473 26.9433 16.1221C27.2184 14.397 26.8431 12.6311 25.8901 11.167L25.2137 11.8485C25.99 13.1291 26.2687 14.6502 25.9971 16.1229C25.7254 17.5955 24.9223 18.9171 23.7403 19.8365C22.5582 20.7559 21.0797 21.2091 19.5855 21.1099C18.0912 21.0108 16.6855 20.3663 15.6353 19.2987C14.5851 18.2312 13.9636 16.8151 13.8889 15.3195C13.8142 13.8239 14.2915 12.3529 15.2301 11.1861C16.1687 10.0192 17.5032 9.23781 18.9801 8.99028C20.457 8.74274 21.9734 9.04634 23.2412 9.84338L23.9161 9.16327ZM25.6374 4.21669L25.6471 4.20742C24.3265 3.51237 22.8887 3.0678 21.4062 2.89619V3.84102C22.7369 4.00832 24.0264 4.41405 25.2131 5.03876C25.2577 4.7247 25.4072 4.43496 25.6374 4.21669ZM29.8802 9.63176C30.5511 10.8606 30.9849 12.2046 31.159 13.5938H32.1038C31.922 12.0215 31.4334 10.5002 30.6657 9.11619L30.4549 9.3132C30.2913 9.46347 30.0943 9.57266 29.8802 9.63176Z" fill="#9D3A21" stroke="#9D3A21" stroke-width="0.5"/>
<path d="M20.2814 14.1566L20.2652 14.139L20.3456 13.876C20.382 13.7571 20.3696 13.6286 20.3113 13.5189C20.2529 13.4091 20.1533 13.327 20.0345 13.2906C19.9156 13.2543 19.7871 13.2666 19.6773 13.325C19.5676 13.3833 19.4855 13.4829 19.4491 13.6018L18.8486 15.566C18.8246 15.6447 18.8216 15.7283 18.8401 15.8085C18.8586 15.8886 18.8979 15.9625 18.954 16.0227C19.0104 16.0824 19.0814 16.1266 19.1599 16.1506C19.2385 16.1747 19.322 16.1779 19.4022 16.16L21.3877 15.7024C21.4477 15.6886 21.5044 15.6631 21.5545 15.6274C21.6047 15.5916 21.6473 15.5464 21.6799 15.4942C21.7126 15.442 21.7346 15.3839 21.7448 15.3232C21.755 15.2624 21.7531 15.2003 21.7393 15.1403C21.7255 15.0803 21.7 15.0236 21.6642 14.9735C21.6285 14.9234 21.5832 14.8808 21.531 14.8481C21.4788 14.8155 21.4207 14.7934 21.36 14.7832C21.2993 14.7731 21.2372 14.7749 21.1772 14.7888C21.1772 14.7888 20.9175 14.8486 20.9165 14.8476L27.1094 8.60757L29.4657 8.75358C29.4755 8.75427 29.4851 8.7545 29.4947 8.7545C29.6136 8.75455 29.728 8.70938 29.8147 8.62816L33.2106 5.45517C33.2734 5.39655 33.3188 5.32181 33.342 5.23911C33.3652 5.15641 33.3652 5.06893 33.342 4.98623C33.3188 4.90353 33.2734 4.82879 33.2106 4.77018C33.1478 4.71156 33.0702 4.67132 32.9861 4.65385L30.8058 4.20043L30.3613 2.01601C30.3446 1.93403 30.3063 1.85801 30.2503 1.79583C30.1944 1.73366 30.1228 1.68759 30.043 1.66242C29.9632 1.63724 29.8782 1.63387 29.7966 1.65266C29.7151 1.67145 29.6401 1.71172 29.5794 1.76927L26.2826 4.89672C26.232 4.9447 26.1927 5.00338 26.1676 5.06848C26.1425 5.13357 26.1323 5.20345 26.1377 5.273L26.3518 8.03982L20.2814 14.1566ZM29.3222 7.80535L27.9877 7.72267L30.5797 5.11092L31.9099 5.38767L29.3222 7.80535ZM27.0896 5.42314L29.6112 3.03133L29.9023 4.46224L27.2241 7.16094L27.0896 5.42314ZM21.4063 26.159V27.1038C22.5203 26.9746 23.6109 26.6909 24.6468 26.2609C24.4653 26.003 24.3091 25.7281 24.1802 25.4402C23.2903 25.798 22.358 26.0396 21.4063 26.159ZM31.159 16.4063C31.052 17.2548 30.8479 18.0882 30.5505 18.8901C30.8427 19.0113 31.1225 19.1605 31.386 19.3356C31.7466 18.393 31.9878 17.4089 32.1038 16.4063H31.159ZM28.6719 19.4531C27.8839 19.4531 27.1135 19.6868 26.4583 20.1246C25.8031 20.5624 25.2924 21.1847 24.9908 21.9128C24.6892 22.6408 24.6103 23.4419 24.7641 24.2148C24.9178 24.9877 25.2973 25.6977 25.8545 26.2549C26.4117 26.8121 27.1217 27.1916 27.8946 27.3453C28.6675 27.4991 29.4686 27.4202 30.1967 27.1186C30.9247 26.817 31.547 26.3063 31.9848 25.6511C32.4226 24.9959 32.6563 24.2256 32.6563 23.4375C32.6551 22.3812 32.2349 21.3684 31.488 20.6214C30.741 19.8745 29.7283 19.4543 28.6719 19.4531ZM28.6719 26.4844C28.0693 26.4844 27.4802 26.3057 26.9791 25.9709C26.4781 25.6361 26.0876 25.1603 25.857 24.6035C25.6263 24.0468 25.566 23.4341 25.6836 22.8431C25.8011 22.2521 26.0913 21.7092 26.5174 21.2831C26.9435 20.8569 27.4864 20.5668 28.0775 20.4492C28.6685 20.3316 29.2811 20.392 29.8379 20.6226C30.3946 20.8532 30.8705 21.2437 31.2053 21.7448C31.5401 22.2458 31.7188 22.8349 31.7188 23.4375C31.7178 24.2453 31.3965 25.0198 30.8253 25.591C30.2541 26.1622 29.4797 26.4835 28.6719 26.4844Z" fill="#9D3A21" stroke="#9D3A21" stroke-width="0.5"/>
<path d="M19.0851 12.5927C19.2602 12.4681 19.4616 12.3854 19.6737 12.351C19.8858 12.3165 20.103 12.3312 20.3085 12.394C20.373 12.4145 20.4357 12.4402 20.496 12.4709C20.5337 12.4782 20.5703 12.4882 20.6074 12.4972L21.3458 11.7532C20.5956 11.4388 19.76 11.3925 18.9797 11.6222C18.1994 11.8519 17.5221 12.3435 17.0619 13.0142C16.6017 13.6849 16.3867 14.4937 16.4531 15.3043C16.5195 16.115 16.8633 16.878 17.4266 17.4649C17.9899 18.0517 18.7382 18.4264 19.5454 18.526C20.3527 18.6256 21.1696 18.4439 21.8586 18.0116C22.5476 17.5792 23.0665 16.9226 23.3279 16.1524C23.5894 15.3821 23.5774 14.5453 23.294 13.7829L22.5357 14.5469C22.5422 14.5836 22.5477 14.6206 22.5527 14.6578C22.596 14.7444 22.6296 14.8356 22.6527 14.9297C22.7083 15.1712 22.6991 15.423 22.6259 15.6597C22.5528 15.8964 22.4184 16.1096 22.2363 16.2776C22.0316 16.6367 21.7435 16.9412 21.3963 17.1655C21.0492 17.3899 20.6532 17.5274 20.2417 17.5664C19.8302 17.6055 19.4154 17.545 19.0322 17.39C18.649 17.2351 18.3088 16.9902 18.0402 16.6761C17.7715 16.3619 17.5824 15.9878 17.4888 15.5852C17.3952 15.1826 17.3998 14.7635 17.5023 14.363C17.6047 13.9626 17.802 13.5927 18.0775 13.2846C18.353 12.9765 18.6986 12.7392 19.0851 12.5927ZM29.7803 22.2551L28.1022 23.6353L27.5849 23.1542C27.5399 23.112 27.487 23.0792 27.4293 23.0576C27.3715 23.036 27.3101 23.0259 27.2485 23.0281C27.1869 23.0302 27.1263 23.0445 27.0702 23.0701C27.0141 23.0956 26.9637 23.132 26.9217 23.1772C26.8797 23.2223 26.847 23.2753 26.8255 23.333C26.804 23.3908 26.7941 23.4523 26.7964 23.5139C26.7987 23.5755 26.8131 23.636 26.8388 23.692C26.8646 23.7481 26.9011 23.7985 26.9463 23.8403L27.7639 24.6009C27.847 24.6783 27.9554 24.7229 28.0688 24.7264C28.1823 24.7298 28.2932 24.692 28.3809 24.6199L30.3759 22.9793C30.4236 22.9402 30.4631 22.8921 30.4921 22.8378C30.5212 22.7834 30.5393 22.7239 30.5453 22.6626C30.5513 22.6012 30.5452 22.5393 30.5273 22.4803C30.5094 22.4214 30.48 22.3665 30.4408 22.3189C30.4017 22.2713 30.3535 22.2319 30.2991 22.2029C30.2447 22.1739 30.1852 22.156 30.1238 22.15C30.0625 22.1441 30.0006 22.1504 29.9416 22.1684C29.8827 22.1864 29.8279 22.2159 29.7803 22.2551Z" fill="#9D3A21" stroke="#9D3A21" stroke-width="0.5"/>
</g>
<circle cx="15" cy="15" r="15" fill="#D25239" fill-opacity="0.2"/>
<defs>
<clipPath id="clip0_9_28">
<rect width="30" height="30" fill="white" transform="translate(5)"/>
</clipPath>
</defs>
</svg>
