<svg width="40" height="40" viewBox="0 0 40 40" fill="none" xmlns="http://www.w3.org/2000/svg">
<path d="M21.0194 40L20.5096 34H19.9998C15.1737 34 11.0783 32.35 7.71356 29.05C4.34886 25.75 2.6665 21.7333 2.6665 17C2.6665 12.2667 4.34886 8.25 7.71356 4.95C11.0783 1.65 15.1737 0 19.9998 0C22.4129 0 24.6649 0.441333 26.7558 1.324C28.8466 2.20667 30.6819 3.42333 32.2616 4.974C33.8414 6.52467 35.0812 8.32467 35.9812 10.374C36.8811 12.4233 37.3318 14.632 37.3332 17C37.3332 19.5 36.9172 21.9 36.0852 24.2C35.2532 26.5 34.1139 28.6333 32.6674 30.6C31.221 32.5667 29.5046 34.35 27.5184 35.95C25.5322 37.55 23.3659 38.9 21.0194 40ZM19.9489 27.95C20.5266 27.95 21.0194 27.75 21.4273 27.35C21.8351 26.95 22.0391 26.4667 22.0391 25.9C22.0391 25.3333 21.8351 24.85 21.4273 24.45C21.0194 24.05 20.5266 23.85 19.9489 23.85C19.3711 23.85 18.8783 24.05 18.4704 24.45C18.0626 24.85 17.8587 25.3333 17.8587 25.9C17.8587 26.4667 18.0626 26.95 18.4704 27.35C18.8783 27.75 19.3711 27.95 19.9489 27.95ZM18.4704 21.6H21.5292C21.5292 20.6 21.6312 19.9 21.8351 19.5C22.0391 19.1 22.6848 18.3667 23.7724 17.3C24.3842 16.7 24.894 16.05 25.3018 15.35C25.7096 14.65 25.9136 13.9 25.9136 13.1C25.9136 11.4 25.3276 10.1247 24.1558 9.274C22.9839 8.42333 21.5986 7.99867 19.9998 8C18.5044 8 17.2469 8.40867 16.2273 9.226C15.2077 10.0433 14.494 11.0347 14.0861 12.2L16.941 13.3C17.1109 12.7333 17.4338 12.1753 17.9096 11.626C18.3855 11.0767 19.0822 10.8013 19.9998 10.8C20.9175 10.7987 21.6061 11.0487 22.0656 11.55C22.5251 12.0513 22.7541 12.6013 22.7528 13.2C22.7528 13.7667 22.5828 14.2753 22.243 14.726C21.9031 15.1767 21.4953 15.6347 21.0194 16.1C19.8299 17.1 19.108 17.892 18.8538 18.476C18.5996 19.06 18.4718 20.1013 18.4704 21.6Z" fill="white"/>
</svg>
