<svg width="495" height="113" viewBox="0 0 495 113" fill="none" xmlns="http://www.w3.org/2000/svg">
<line x1="73" y1="58.5" x2="433" y2="58.5" stroke="black"/>
<path d="M47.56 104.108C46.612 104.108 45.73 103.952 44.914 103.64C44.11 103.316 43.408 102.866 42.808 102.29C42.22 101.702 41.758 101.024 41.422 100.256C41.098 99.476 40.936 98.624 40.936 97.7C40.936 96.776 41.098 95.93 41.422 95.162C41.758 94.382 42.22 93.704 42.808 93.128C43.408 92.54 44.11 92.09 44.914 91.778C45.718 91.454 46.6 91.292 47.56 91.292C48.508 91.292 49.384 91.454 50.188 91.778C50.992 92.09 51.688 92.534 52.276 93.11C52.876 93.686 53.338 94.364 53.662 95.144C53.998 95.924 54.166 96.776 54.166 97.7C54.166 98.624 53.998 99.476 53.662 100.256C53.338 101.036 52.876 101.714 52.276 102.29C51.688 102.866 50.992 103.316 50.188 103.64C49.384 103.952 48.508 104.108 47.56 104.108ZM51.682 106.502C51.298 106.502 50.926 106.454 50.566 106.358C50.206 106.262 49.84 106.106 49.468 105.89C49.108 105.686 48.736 105.416 48.352 105.08C47.968 104.744 47.548 104.336 47.092 103.856L48.55 103.496C48.922 103.94 49.282 104.306 49.63 104.594C49.99 104.882 50.338 105.092 50.674 105.224C51.022 105.368 51.364 105.44 51.7 105.44C52.636 105.44 53.434 105.056 54.094 104.288L54.742 105.062C53.95 106.022 52.93 106.502 51.682 106.502ZM47.56 102.92C48.316 102.92 49.012 102.794 49.648 102.542C50.296 102.278 50.854 101.906 51.322 101.426C51.802 100.946 52.174 100.394 52.438 99.77C52.702 99.134 52.834 98.444 52.834 97.7C52.834 96.944 52.702 96.254 52.438 95.63C52.174 94.994 51.802 94.442 51.322 93.974C50.854 93.494 50.296 93.128 49.648 92.876C49.012 92.612 48.316 92.48 47.56 92.48C46.804 92.48 46.102 92.612 45.454 92.876C44.806 93.128 44.242 93.494 43.762 93.974C43.294 94.442 42.922 94.994 42.646 95.63C42.382 96.254 42.25 96.944 42.25 97.7C42.25 98.444 42.382 99.134 42.646 99.77C42.922 100.394 43.294 100.946 43.762 101.426C44.242 101.906 44.806 102.278 45.454 102.542C46.102 102.794 46.804 102.92 47.56 102.92ZM60.7876 104.09C59.9836 104.09 59.2816 103.94 58.6816 103.64C58.0816 103.34 57.6136 102.89 57.2776 102.29C56.9536 101.69 56.7916 100.94 56.7916 100.04V94.55H58.0696V99.896C58.0696 100.904 58.3156 101.666 58.8076 102.182C59.3116 102.686 60.0136 102.938 60.9136 102.938C61.5736 102.938 62.1436 102.806 62.6236 102.542C63.1156 102.266 63.4876 101.87 63.7396 101.354C64.0036 100.838 64.1356 100.22 64.1356 99.5V94.55H65.4136V104H64.1896V101.408L64.3876 101.876C64.0876 102.572 63.6196 103.118 62.9836 103.514C62.3596 103.898 61.6276 104.09 60.7876 104.09ZM74.8974 104V101.912L74.8434 101.57V98.078C74.8434 97.274 74.6154 96.656 74.1594 96.224C73.7154 95.792 73.0494 95.576 72.1614 95.576C71.5494 95.576 70.9674 95.678 70.4154 95.882C69.8634 96.086 69.3954 96.356 69.0114 96.692L68.4354 95.738C68.9154 95.33 69.4914 95.018 70.1634 94.802C70.8354 94.574 71.5434 94.46 72.2874 94.46C73.5114 94.46 74.4534 94.766 75.1134 95.378C75.7854 95.978 76.1214 96.896 76.1214 98.132V104H74.8974ZM71.6394 104.09C70.9314 104.09 70.3134 103.976 69.7854 103.748C69.2694 103.508 68.8734 103.184 68.5974 102.776C68.3214 102.356 68.1834 101.876 68.1834 101.336C68.1834 100.844 68.2974 100.4 68.5254 100.004C68.7654 99.596 69.1494 99.272 69.6774 99.032C70.2174 98.78 70.9374 98.654 71.8374 98.654H75.0954V99.608H71.8734C70.9614 99.608 70.3254 99.77 69.9654 100.094C69.6174 100.418 69.4434 100.82 69.4434 101.3C69.4434 101.84 69.6534 102.272 70.0734 102.596C70.4934 102.92 71.0814 103.082 71.8374 103.082C72.5574 103.082 73.1754 102.92 73.6914 102.596C74.2194 102.26 74.6034 101.78 74.8434 101.156L75.1314 102.038C74.8914 102.662 74.4714 103.16 73.8714 103.532C73.2834 103.904 72.5394 104.09 71.6394 104.09ZM79.5925 104V90.644H80.8705V104H79.5925ZM84.4265 104V94.55H85.7045V104H84.4265ZM85.0745 92.462C84.8105 92.462 84.5885 92.372 84.4085 92.192C84.2285 92.012 84.1385 91.796 84.1385 91.544C84.1385 91.292 84.2285 91.082 84.4085 90.914C84.5885 90.734 84.8105 90.644 85.0745 90.644C85.3385 90.644 85.5605 90.728 85.7405 90.896C85.9205 91.064 86.0105 91.274 86.0105 91.526C86.0105 91.79 85.9205 92.012 85.7405 92.192C85.5725 92.372 85.3505 92.462 85.0745 92.462ZM92.2485 104.09C91.3605 104.09 90.6765 103.85 90.1965 103.37C89.7165 102.89 89.4765 102.212 89.4765 101.336V92.462H90.7545V101.264C90.7545 101.816 90.8925 102.242 91.1685 102.542C91.4565 102.842 91.8645 102.992 92.3925 102.992C92.9565 102.992 93.4245 102.83 93.7965 102.506L94.2465 103.424C93.9945 103.652 93.6885 103.82 93.3285 103.928C92.9805 104.036 92.6205 104.09 92.2485 104.09ZM87.7845 95.612V94.55H93.6345V95.612H87.7845ZM96.4692 107.582C96.0252 107.582 95.5992 107.51 95.1912 107.366C94.7952 107.222 94.4532 107.006 94.1652 106.718L94.7592 105.764C94.9992 105.992 95.2572 106.166 95.5332 106.286C95.8212 106.418 96.1392 106.484 96.4872 106.484C96.9072 106.484 97.2672 106.364 97.5672 106.124C97.8792 105.896 98.1732 105.488 98.4492 104.9L99.0612 103.514L99.2052 103.316L103.093 94.55H104.353L99.6192 105.134C99.3552 105.746 99.0612 106.232 98.7372 106.592C98.4252 106.952 98.0832 107.204 97.7112 107.348C97.3392 107.504 96.9252 107.582 96.4692 107.582ZM98.9892 104.27L94.6332 94.55H95.9652L99.8172 103.226L98.9892 104.27Z" fill="black"/>
<path d="M137.368 23L129.976 6.2H132.568L139.36 21.704H137.872L144.712 6.2H147.112L139.744 23H137.368ZM153.621 23.144C152.261 23.144 151.061 22.864 150.021 22.304C148.997 21.744 148.197 20.976 147.621 20C147.061 19.024 146.781 17.904 146.781 16.64C146.781 15.376 147.053 14.256 147.597 13.28C148.157 12.304 148.917 11.544 149.877 11C150.853 10.44 151.949 10.16 153.165 10.16C154.397 10.16 155.485 10.432 156.429 10.976C157.373 11.52 158.109 12.288 158.637 13.28C159.181 14.256 159.453 15.4 159.453 16.712C159.453 16.808 159.445 16.92 159.429 17.048C159.429 17.176 159.421 17.296 159.405 17.408H148.581V15.752H158.205L157.269 16.328C157.285 15.512 157.117 14.784 156.765 14.144C156.413 13.504 155.925 13.008 155.301 12.656C154.693 12.288 153.981 12.104 153.165 12.104C152.365 12.104 151.653 12.288 151.029 12.656C150.405 13.008 149.917 13.512 149.565 14.168C149.213 14.808 149.037 15.544 149.037 16.376V16.76C149.037 17.608 149.229 18.368 149.613 19.04C150.013 19.696 150.565 20.208 151.269 20.576C151.973 20.944 152.781 21.128 153.693 21.128C154.445 21.128 155.125 21 155.733 20.744C156.357 20.488 156.901 20.104 157.365 19.592L158.637 21.08C158.061 21.752 157.341 22.264 156.477 22.616C155.629 22.968 154.677 23.144 153.621 23.144ZM162.653 23V10.28H164.861V13.736L164.645 12.872C164.997 11.992 165.589 11.32 166.421 10.856C167.253 10.392 168.277 10.16 169.493 10.16V12.392C169.397 12.376 169.301 12.368 169.205 12.368C169.125 12.368 169.045 12.368 168.965 12.368C167.733 12.368 166.757 12.736 166.037 13.472C165.317 14.208 164.957 15.272 164.957 16.664V23H162.653ZM177.216 23.144C175.936 23.144 174.944 22.8 174.24 22.112C173.536 21.424 173.184 20.44 173.184 19.16V7.496H175.488V19.064C175.488 19.752 175.656 20.28 175.992 20.648C176.344 21.016 176.84 21.2 177.48 21.2C178.2 21.2 178.8 21 179.28 20.6L180 22.256C179.648 22.56 179.224 22.784 178.728 22.928C178.248 23.072 177.744 23.144 177.216 23.144ZM171.024 12.176V10.28H179.136V12.176H171.024ZM182.786 23V10.28H185.09V23H182.786ZM183.938 7.832C183.49 7.832 183.114 7.688 182.81 7.4C182.522 7.112 182.378 6.76 182.378 6.344C182.378 5.912 182.522 5.552 182.81 5.264C183.114 4.976 183.49 4.832 183.938 4.832C184.386 4.832 184.754 4.976 185.042 5.264C185.346 5.536 185.498 5.88 185.498 6.296C185.498 6.728 185.354 7.096 185.066 7.4C184.778 7.688 184.402 7.832 183.938 7.832ZM195.033 23.144C193.737 23.144 192.577 22.864 191.553 22.304C190.545 21.744 189.753 20.976 189.177 20C188.601 19.024 188.313 17.904 188.313 16.64C188.313 15.376 188.601 14.256 189.177 13.28C189.753 12.304 190.545 11.544 191.553 11C192.577 10.44 193.737 10.16 195.033 10.16C196.185 10.16 197.209 10.392 198.105 10.856C199.017 11.304 199.721 11.976 200.217 12.872L198.465 14C198.049 13.376 197.537 12.92 196.929 12.632C196.337 12.328 195.697 12.176 195.009 12.176C194.177 12.176 193.433 12.36 192.777 12.728C192.121 13.096 191.601 13.616 191.217 14.288C190.833 14.944 190.641 15.728 190.641 16.64C190.641 17.552 190.833 18.344 191.217 19.016C191.601 19.688 192.121 20.208 192.777 20.576C193.433 20.944 194.177 21.128 195.009 21.128C195.697 21.128 196.337 20.984 196.929 20.696C197.537 20.392 198.049 19.928 198.465 19.304L200.217 20.408C199.721 21.288 199.017 21.968 198.105 22.448C197.209 22.912 196.185 23.144 195.033 23.144ZM211.096 23V20.312L210.976 19.808V15.224C210.976 14.248 210.688 13.496 210.112 12.968C209.552 12.424 208.704 12.152 207.568 12.152C206.816 12.152 206.08 12.28 205.36 12.536C204.64 12.776 204.032 13.104 203.536 13.52L202.576 11.792C203.232 11.264 204.016 10.864 204.928 10.592C205.856 10.304 206.824 10.16 207.832 10.16C209.576 10.16 210.92 10.584 211.864 11.432C212.808 12.28 213.28 13.576 213.28 15.32V23H211.096ZM206.92 23.144C205.976 23.144 205.144 22.984 204.424 22.664C203.72 22.344 203.176 21.904 202.792 21.344C202.408 20.768 202.216 20.12 202.216 19.4C202.216 18.712 202.376 18.088 202.696 17.528C203.032 16.968 203.568 16.52 204.304 16.184C205.056 15.848 206.064 15.68 207.328 15.68H211.36V17.336H207.424C206.272 17.336 205.496 17.528 205.096 17.912C204.696 18.296 204.496 18.76 204.496 19.304C204.496 19.928 204.744 20.432 205.24 20.816C205.736 21.184 206.424 21.368 207.304 21.368C208.168 21.368 208.92 21.176 209.56 20.792C210.216 20.408 210.688 19.848 210.976 19.112L211.432 20.696C211.128 21.448 210.592 22.048 209.824 22.496C209.056 22.928 208.088 23.144 206.92 23.144ZM217.543 23V5.192H219.847V23H217.543ZM227.895 23.144C226.839 23.144 225.831 23 224.871 22.712C223.927 22.424 223.183 22.072 222.639 21.656L223.599 19.832C224.143 20.2 224.815 20.512 225.615 20.768C226.415 21.024 227.231 21.152 228.062 21.152C229.135 21.152 229.903 21 230.367 20.696C230.847 20.392 231.087 19.968 231.087 19.424C231.087 19.024 230.943 18.712 230.655 18.488C230.367 18.264 229.983 18.096 229.503 17.984C229.039 17.872 228.519 17.776 227.943 17.696C227.367 17.6 226.791 17.488 226.215 17.36C225.639 17.216 225.111 17.024 224.631 16.784C224.151 16.528 223.767 16.184 223.479 15.752C223.191 15.304 223.047 14.712 223.047 13.976C223.047 13.208 223.263 12.536 223.695 11.96C224.127 11.384 224.735 10.944 225.519 10.64C226.319 10.32 227.263 10.16 228.351 10.16C229.183 10.16 230.023 10.264 230.871 10.472C231.735 10.664 232.439 10.944 232.983 11.312L231.999 13.136C231.423 12.752 230.823 12.488 230.199 12.344C229.575 12.2 228.951 12.128 228.327 12.128C227.319 12.128 226.567 12.296 226.071 12.632C225.575 12.952 225.327 13.368 225.327 13.88C225.327 14.312 225.471 14.648 225.759 14.888C226.063 15.112 226.447 15.288 226.911 15.416C227.391 15.544 227.919 15.656 228.495 15.752C229.071 15.832 229.647 15.944 230.223 16.088C230.799 16.216 231.319 16.4 231.783 16.64C232.263 16.88 232.647 17.216 232.935 17.648C233.239 18.08 233.391 18.656 233.391 19.376C233.391 20.144 233.167 20.808 232.719 21.368C232.271 21.928 231.639 22.368 230.823 22.688C230.007 22.992 229.031 23.144 227.895 23.144ZM248.163 23.144C246.883 23.144 245.747 22.864 244.755 22.304C243.763 21.744 242.979 20.976 242.403 20C241.827 19.008 241.539 17.888 241.539 16.64C241.539 15.376 241.827 14.256 242.403 13.28C242.979 12.304 243.763 11.544 244.755 11C245.747 10.44 246.883 10.16 248.163 10.16C249.427 10.16 250.555 10.44 251.547 11C252.555 11.544 253.339 12.304 253.899 13.28C254.475 14.24 254.763 15.36 254.763 16.64C254.763 17.904 254.475 19.024 253.899 20C253.339 20.976 252.555 21.744 251.547 22.304C250.555 22.864 249.427 23.144 248.163 23.144ZM248.163 21.128C248.979 21.128 249.707 20.944 250.347 20.576C251.003 20.208 251.515 19.688 251.883 19.016C252.251 18.328 252.435 17.536 252.435 16.64C252.435 15.728 252.251 14.944 251.883 14.288C251.515 13.616 251.003 13.096 250.347 12.728C249.707 12.36 248.979 12.176 248.163 12.176C247.347 12.176 246.619 12.36 245.979 12.728C245.339 13.096 244.827 13.616 244.443 14.288C244.059 14.944 243.867 15.728 243.867 16.64C243.867 17.536 244.059 18.328 244.443 19.016C244.827 19.688 245.339 20.208 245.979 20.576C246.619 20.944 247.347 21.128 248.163 21.128ZM258.286 23V9.152C258.286 7.904 258.646 6.912 259.366 6.176C260.102 5.424 261.142 5.048 262.486 5.048C262.982 5.048 263.454 5.112 263.902 5.24C264.366 5.352 264.758 5.536 265.078 5.792L264.382 7.544C264.142 7.352 263.87 7.208 263.566 7.112C263.262 7 262.942 6.944 262.606 6.944C261.934 6.944 261.422 7.136 261.07 7.52C260.718 7.888 260.542 8.44 260.542 9.176V10.88L260.59 11.936V23H258.286ZM256.126 12.176V10.28H264.238V12.176H256.126ZM276.504 23.144C275.448 23.144 274.44 23 273.48 22.712C272.536 22.424 271.792 22.072 271.248 21.656L272.208 19.832C272.752 20.2 273.424 20.512 274.224 20.768C275.024 21.024 275.84 21.152 276.672 21.152C277.744 21.152 278.512 21 278.976 20.696C279.456 20.392 279.696 19.968 279.696 19.424C279.696 19.024 279.552 18.712 279.264 18.488C278.976 18.264 278.592 18.096 278.112 17.984C277.648 17.872 277.128 17.776 276.552 17.696C275.976 17.6 275.4 17.488 274.824 17.36C274.248 17.216 273.72 17.024 273.24 16.784C272.76 16.528 272.376 16.184 272.088 15.752C271.8 15.304 271.656 14.712 271.656 13.976C271.656 13.208 271.872 12.536 272.304 11.96C272.736 11.384 273.344 10.944 274.128 10.64C274.928 10.32 275.872 10.16 276.96 10.16C277.792 10.16 278.632 10.264 279.48 10.472C280.344 10.664 281.048 10.944 281.592 11.312L280.608 13.136C280.032 12.752 279.432 12.488 278.808 12.344C278.184 12.2 277.56 12.128 276.936 12.128C275.928 12.128 275.176 12.296 274.68 12.632C274.184 12.952 273.936 13.368 273.936 13.88C273.936 14.312 274.08 14.648 274.368 14.888C274.672 15.112 275.056 15.288 275.52 15.416C276 15.544 276.528 15.656 277.104 15.752C277.68 15.832 278.256 15.944 278.832 16.088C279.408 16.216 279.928 16.4 280.392 16.64C280.872 16.88 281.256 17.216 281.544 17.648C281.848 18.08 282 18.656 282 19.376C282 20.144 281.776 20.808 281.328 21.368C280.88 21.928 280.248 22.368 279.432 22.688C278.616 22.992 277.64 23.144 276.504 23.144ZM290.231 23.144C289.143 23.144 288.183 22.944 287.351 22.544C286.535 22.144 285.895 21.536 285.431 20.72C284.983 19.888 284.759 18.848 284.759 17.6V10.28H287.063V17.336C287.063 18.584 287.359 19.52 287.951 20.144C288.559 20.768 289.407 21.08 290.495 21.08C291.295 21.08 291.991 20.92 292.583 20.6C293.175 20.264 293.631 19.784 293.951 19.16C294.271 18.52 294.431 17.752 294.431 16.856V10.28H296.735V23H294.551V19.568L294.911 20.48C294.495 21.328 293.871 21.984 293.039 22.448C292.207 22.912 291.271 23.144 290.231 23.144ZM306.666 23.144C305.37 23.144 304.21 22.864 303.186 22.304C302.178 21.744 301.386 20.976 300.81 20C300.234 19.024 299.946 17.904 299.946 16.64C299.946 15.376 300.234 14.256 300.81 13.28C301.386 12.304 302.178 11.544 303.186 11C304.21 10.44 305.37 10.16 306.666 10.16C307.818 10.16 308.842 10.392 309.738 10.856C310.65 11.304 311.354 11.976 311.85 12.872L310.098 14C309.682 13.376 309.17 12.92 308.562 12.632C307.97 12.328 307.33 12.176 306.642 12.176C305.81 12.176 305.066 12.36 304.41 12.728C303.754 13.096 303.234 13.616 302.85 14.288C302.466 14.944 302.274 15.728 302.274 16.64C302.274 17.552 302.466 18.344 302.85 19.016C303.234 19.688 303.754 20.208 304.41 20.576C305.066 20.944 305.81 21.128 306.642 21.128C307.33 21.128 307.97 20.984 308.562 20.696C309.17 20.392 309.682 19.928 310.098 19.304L311.85 20.408C311.354 21.288 310.65 21.968 309.738 22.448C308.842 22.912 307.818 23.144 306.666 23.144ZM320.189 23.144C318.893 23.144 317.733 22.864 316.709 22.304C315.701 21.744 314.909 20.976 314.333 20C313.757 19.024 313.469 17.904 313.469 16.64C313.469 15.376 313.757 14.256 314.333 13.28C314.909 12.304 315.701 11.544 316.709 11C317.733 10.44 318.893 10.16 320.189 10.16C321.341 10.16 322.365 10.392 323.261 10.856C324.173 11.304 324.877 11.976 325.373 12.872L323.621 14C323.205 13.376 322.693 12.92 322.085 12.632C321.493 12.328 320.853 12.176 320.165 12.176C319.333 12.176 318.589 12.36 317.933 12.728C317.277 13.096 316.757 13.616 316.373 14.288C315.989 14.944 315.797 15.728 315.797 16.64C315.797 17.552 315.989 18.344 316.373 19.016C316.757 19.688 317.277 20.208 317.933 20.576C318.589 20.944 319.333 21.128 320.165 21.128C320.853 21.128 321.493 20.984 322.085 20.696C322.693 20.392 323.205 19.928 323.621 19.304L325.373 20.408C324.877 21.288 324.173 21.968 323.261 22.448C322.365 22.912 321.341 23.144 320.189 23.144ZM333.832 23.144C332.472 23.144 331.272 22.864 330.232 22.304C329.208 21.744 328.408 20.976 327.832 20C327.272 19.024 326.992 17.904 326.992 16.64C326.992 15.376 327.264 14.256 327.808 13.28C328.368 12.304 329.128 11.544 330.088 11C331.064 10.44 332.16 10.16 333.376 10.16C334.608 10.16 335.696 10.432 336.64 10.976C337.584 11.52 338.32 12.288 338.848 13.28C339.392 14.256 339.664 15.4 339.664 16.712C339.664 16.808 339.656 16.92 339.64 17.048C339.64 17.176 339.632 17.296 339.616 17.408H328.792V15.752H338.416L337.48 16.328C337.496 15.512 337.328 14.784 336.976 14.144C336.624 13.504 336.136 13.008 335.512 12.656C334.904 12.288 334.192 12.104 333.376 12.104C332.576 12.104 331.864 12.288 331.24 12.656C330.616 13.008 330.128 13.512 329.776 14.168C329.424 14.808 329.248 15.544 329.248 16.376V16.76C329.248 17.608 329.44 18.368 329.824 19.04C330.224 19.696 330.776 20.208 331.48 20.576C332.184 20.944 332.992 21.128 333.904 21.128C334.656 21.128 335.336 21 335.944 20.744C336.568 20.488 337.112 20.104 337.576 19.592L338.848 21.08C338.272 21.752 337.552 22.264 336.688 22.616C335.84 22.968 334.888 23.144 333.832 23.144ZM346.512 23.144C345.456 23.144 344.448 23 343.488 22.712C342.544 22.424 341.8 22.072 341.256 21.656L342.216 19.832C342.76 20.2 343.432 20.512 344.232 20.768C345.032 21.024 345.848 21.152 346.68 21.152C347.752 21.152 348.52 21 348.984 20.696C349.464 20.392 349.704 19.968 349.704 19.424C349.704 19.024 349.56 18.712 349.272 18.488C348.984 18.264 348.6 18.096 348.12 17.984C347.656 17.872 347.136 17.776 346.56 17.696C345.984 17.6 345.408 17.488 344.832 17.36C344.256 17.216 343.728 17.024 343.248 16.784C342.768 16.528 342.384 16.184 342.096 15.752C341.808 15.304 341.664 14.712 341.664 13.976C341.664 13.208 341.88 12.536 342.312 11.96C342.744 11.384 343.352 10.944 344.136 10.64C344.936 10.32 345.88 10.16 346.968 10.16C347.8 10.16 348.64 10.264 349.488 10.472C350.352 10.664 351.056 10.944 351.6 11.312L350.616 13.136C350.04 12.752 349.44 12.488 348.816 12.344C348.192 12.2 347.568 12.128 346.944 12.128C345.936 12.128 345.184 12.296 344.688 12.632C344.192 12.952 343.944 13.368 343.944 13.88C343.944 14.312 344.088 14.648 344.376 14.888C344.68 15.112 345.064 15.288 345.528 15.416C346.008 15.544 346.536 15.656 347.112 15.752C347.688 15.832 348.264 15.944 348.84 16.088C349.416 16.216 349.936 16.4 350.4 16.64C350.88 16.88 351.264 17.216 351.552 17.648C351.856 18.08 352.008 18.656 352.008 19.376C352.008 20.144 351.784 20.808 351.336 21.368C350.888 21.928 350.256 22.368 349.44 22.688C348.624 22.992 347.648 23.144 346.512 23.144ZM358.535 23.144C357.479 23.144 356.471 23 355.511 22.712C354.567 22.424 353.823 22.072 353.279 21.656L354.239 19.832C354.783 20.2 355.455 20.512 356.255 20.768C357.055 21.024 357.871 21.152 358.703 21.152C359.775 21.152 360.543 21 361.007 20.696C361.487 20.392 361.727 19.968 361.727 19.424C361.727 19.024 361.583 18.712 361.295 18.488C361.007 18.264 360.623 18.096 360.143 17.984C359.679 17.872 359.159 17.776 358.583 17.696C358.007 17.6 357.431 17.488 356.855 17.36C356.279 17.216 355.751 17.024 355.271 16.784C354.791 16.528 354.407 16.184 354.119 15.752C353.831 15.304 353.687 14.712 353.687 13.976C353.687 13.208 353.903 12.536 354.335 11.96C354.767 11.384 355.375 10.944 356.159 10.64C356.959 10.32 357.903 10.16 358.991 10.16C359.823 10.16 360.663 10.264 361.511 10.472C362.375 10.664 363.079 10.944 363.623 11.312L362.639 13.136C362.063 12.752 361.463 12.488 360.839 12.344C360.215 12.2 359.591 12.128 358.967 12.128C357.959 12.128 357.207 12.296 356.711 12.632C356.215 12.952 355.967 13.368 355.967 13.88C355.967 14.312 356.111 14.648 356.399 14.888C356.703 15.112 357.087 15.288 357.551 15.416C358.031 15.544 358.559 15.656 359.135 15.752C359.711 15.832 360.287 15.944 360.863 16.088C361.439 16.216 361.959 16.4 362.423 16.64C362.903 16.88 363.287 17.216 363.575 17.648C363.879 18.08 364.031 18.656 364.031 19.376C364.031 20.144 363.807 20.808 363.359 21.368C362.911 21.928 362.279 22.368 361.463 22.688C360.647 22.992 359.671 23.144 358.535 23.144Z" fill="#9D3A21"/>
<path d="M192.524 104.108C191.576 104.108 190.7 103.952 189.896 103.64C189.092 103.316 188.396 102.866 187.808 102.29C187.22 101.714 186.758 101.036 186.422 100.256C186.098 99.476 185.936 98.624 185.936 97.7C185.936 96.776 186.098 95.924 186.422 95.144C186.758 94.364 187.22 93.686 187.808 93.11C188.408 92.534 189.11 92.09 189.914 91.778C190.718 91.454 191.594 91.292 192.542 91.292C193.454 91.292 194.312 91.448 195.116 91.76C195.92 92.06 196.598 92.516 197.15 93.128L196.304 93.974C195.788 93.446 195.218 93.068 194.594 92.84C193.97 92.6 193.298 92.48 192.578 92.48C191.822 92.48 191.12 92.612 190.472 92.876C189.824 93.128 189.26 93.494 188.78 93.974C188.3 94.442 187.922 94.994 187.646 95.63C187.382 96.254 187.25 96.944 187.25 97.7C187.25 98.456 187.382 99.152 187.646 99.788C187.922 100.412 188.3 100.964 188.78 101.444C189.26 101.912 189.824 102.278 190.472 102.542C191.12 102.794 191.822 102.92 192.578 102.92C193.298 102.92 193.97 102.8 194.594 102.56C195.218 102.32 195.788 101.936 196.304 101.408L197.15 102.254C196.598 102.866 195.92 103.328 195.116 103.64C194.312 103.952 193.448 104.108 192.524 104.108ZM203.15 104.09C202.238 104.09 201.416 103.886 200.684 103.478C199.964 103.058 199.394 102.488 198.974 101.768C198.554 101.036 198.344 100.202 198.344 99.266C198.344 98.318 198.554 97.484 198.974 96.764C199.394 96.044 199.964 95.48 200.684 95.072C201.404 94.664 202.226 94.46 203.15 94.46C204.086 94.46 204.914 94.664 205.634 95.072C206.366 95.48 206.936 96.044 207.344 96.764C207.764 97.484 207.974 98.318 207.974 99.266C207.974 100.202 207.764 101.036 207.344 101.768C206.936 102.488 206.366 103.058 205.634 103.478C204.902 103.886 204.074 104.09 203.15 104.09ZM203.15 102.956C203.834 102.956 204.44 102.806 204.968 102.506C205.496 102.194 205.91 101.762 206.21 101.21C206.522 100.646 206.678 99.998 206.678 99.266C206.678 98.522 206.522 97.874 206.21 97.322C205.91 96.77 205.496 96.344 204.968 96.044C204.44 95.732 203.84 95.576 203.168 95.576C202.496 95.576 201.896 95.732 201.368 96.044C200.84 96.344 200.42 96.77 200.108 97.322C199.796 97.874 199.64 98.522 199.64 99.266C199.64 99.998 199.796 100.646 200.108 101.21C200.42 101.762 200.84 102.194 201.368 102.506C201.896 102.806 202.49 102.956 203.15 102.956ZM215.407 94.46C216.175 94.46 216.847 94.61 217.423 94.91C218.011 95.198 218.467 95.642 218.791 96.242C219.127 96.842 219.295 97.598 219.295 98.51V104H218.017V98.636C218.017 97.64 217.765 96.89 217.261 96.386C216.769 95.87 216.073 95.612 215.173 95.612C214.501 95.612 213.913 95.75 213.409 96.026C212.917 96.29 212.533 96.68 212.257 97.196C211.993 97.7 211.861 98.312 211.861 99.032V104H210.583V94.55H211.807V97.142L211.609 96.656C211.909 95.972 212.389 95.438 213.049 95.054C213.709 94.658 214.495 94.46 215.407 94.46ZM225.285 104.09C224.505 104.09 223.767 103.982 223.071 103.766C222.375 103.538 221.829 103.256 221.433 102.92L222.009 101.912C222.393 102.2 222.885 102.452 223.485 102.668C224.085 102.872 224.715 102.974 225.375 102.974C226.275 102.974 226.923 102.836 227.319 102.56C227.715 102.272 227.913 101.894 227.913 101.426C227.913 101.078 227.799 100.808 227.571 100.616C227.355 100.412 227.067 100.262 226.707 100.166C226.347 100.058 225.945 99.968 225.501 99.896C225.057 99.824 224.613 99.74 224.169 99.644C223.737 99.548 223.341 99.41 222.981 99.23C222.621 99.038 222.327 98.78 222.099 98.456C221.883 98.132 221.775 97.7 221.775 97.16C221.775 96.644 221.919 96.182 222.207 95.774C222.495 95.366 222.915 95.048 223.467 94.82C224.031 94.58 224.715 94.46 225.519 94.46C226.131 94.46 226.743 94.544 227.355 94.712C227.967 94.868 228.471 95.078 228.867 95.342L228.309 96.368C227.889 96.08 227.439 95.876 226.959 95.756C226.479 95.624 225.999 95.558 225.519 95.558C224.667 95.558 224.037 95.708 223.629 96.008C223.233 96.296 223.035 96.668 223.035 97.124C223.035 97.484 223.143 97.766 223.359 97.97C223.587 98.174 223.881 98.336 224.241 98.456C224.613 98.564 225.015 98.654 225.447 98.726C225.891 98.798 226.329 98.888 226.761 98.996C227.205 99.092 227.607 99.23 227.967 99.41C228.339 99.578 228.633 99.824 228.849 100.148C229.077 100.46 229.191 100.874 229.191 101.39C229.191 101.942 229.035 102.422 228.723 102.83C228.423 103.226 227.979 103.538 227.391 103.766C226.815 103.982 226.113 104.09 225.285 104.09ZM231.536 104V94.55H232.814V104H231.536ZM232.184 92.462C231.92 92.462 231.698 92.372 231.518 92.192C231.338 92.012 231.248 91.796 231.248 91.544C231.248 91.292 231.338 91.082 231.518 90.914C231.698 90.734 231.92 90.644 232.184 90.644C232.448 90.644 232.67 90.728 232.85 90.896C233.03 91.064 233.12 91.274 233.12 91.526C233.12 91.79 233.03 92.012 232.85 92.192C232.682 92.372 232.46 92.462 232.184 92.462ZM238.908 104.09C238.128 104.09 237.39 103.982 236.694 103.766C235.998 103.538 235.452 103.256 235.056 102.92L235.632 101.912C236.016 102.2 236.508 102.452 237.108 102.668C237.708 102.872 238.338 102.974 238.998 102.974C239.898 102.974 240.546 102.836 240.942 102.56C241.338 102.272 241.536 101.894 241.536 101.426C241.536 101.078 241.422 100.808 241.194 100.616C240.978 100.412 240.69 100.262 240.33 100.166C239.97 100.058 239.568 99.968 239.124 99.896C238.68 99.824 238.236 99.74 237.792 99.644C237.36 99.548 236.964 99.41 236.604 99.23C236.244 99.038 235.95 98.78 235.722 98.456C235.506 98.132 235.398 97.7 235.398 97.16C235.398 96.644 235.542 96.182 235.83 95.774C236.118 95.366 236.538 95.048 237.09 94.82C237.654 94.58 238.338 94.46 239.142 94.46C239.754 94.46 240.366 94.544 240.978 94.712C241.59 94.868 242.094 95.078 242.49 95.342L241.932 96.368C241.512 96.08 241.062 95.876 240.582 95.756C240.102 95.624 239.622 95.558 239.142 95.558C238.29 95.558 237.66 95.708 237.252 96.008C236.856 96.296 236.658 96.668 236.658 97.124C236.658 97.484 236.766 97.766 236.982 97.97C237.21 98.174 237.504 98.336 237.864 98.456C238.236 98.564 238.638 98.654 239.07 98.726C239.514 98.798 239.952 98.888 240.384 98.996C240.828 99.092 241.23 99.23 241.59 99.41C241.962 99.578 242.256 99.824 242.472 100.148C242.7 100.46 242.814 100.874 242.814 101.39C242.814 101.942 242.658 102.422 242.346 102.83C242.046 103.226 241.602 103.538 241.014 103.766C240.438 103.982 239.736 104.09 238.908 104.09ZM248.147 104.09C247.259 104.09 246.575 103.85 246.095 103.37C245.615 102.89 245.375 102.212 245.375 101.336V92.462H246.653V101.264C246.653 101.816 246.791 102.242 247.067 102.542C247.355 102.842 247.763 102.992 248.291 102.992C248.855 102.992 249.323 102.83 249.695 102.506L250.145 103.424C249.893 103.652 249.587 103.82 249.227 103.928C248.879 104.036 248.519 104.09 248.147 104.09ZM243.683 95.612V94.55H249.533V95.612H243.683ZM258.393 104V101.912L258.339 101.57V98.078C258.339 97.274 258.111 96.656 257.655 96.224C257.211 95.792 256.545 95.576 255.657 95.576C255.045 95.576 254.463 95.678 253.911 95.882C253.359 96.086 252.891 96.356 252.507 96.692L251.931 95.738C252.411 95.33 252.987 95.018 253.659 94.802C254.331 94.574 255.039 94.46 255.783 94.46C257.007 94.46 257.949 94.766 258.609 95.378C259.281 95.978 259.617 96.896 259.617 98.132V104H258.393ZM255.135 104.09C254.427 104.09 253.809 103.976 253.281 103.748C252.765 103.508 252.369 103.184 252.093 102.776C251.817 102.356 251.679 101.876 251.679 101.336C251.679 100.844 251.793 100.4 252.021 100.004C252.261 99.596 252.645 99.272 253.173 99.032C253.713 98.78 254.433 98.654 255.333 98.654H258.591V99.608H255.369C254.457 99.608 253.821 99.77 253.461 100.094C253.113 100.418 252.939 100.82 252.939 101.3C252.939 101.84 253.149 102.272 253.569 102.596C253.989 102.92 254.577 103.082 255.333 103.082C256.053 103.082 256.671 102.92 257.187 102.596C257.715 102.26 258.099 101.78 258.339 101.156L258.627 102.038C258.387 102.662 257.967 103.16 257.367 103.532C256.779 103.904 256.035 104.09 255.135 104.09ZM267.913 94.46C268.681 94.46 269.353 94.61 269.929 94.91C270.517 95.198 270.973 95.642 271.297 96.242C271.633 96.842 271.801 97.598 271.801 98.51V104H270.523V98.636C270.523 97.64 270.271 96.89 269.767 96.386C269.275 95.87 268.579 95.612 267.679 95.612C267.007 95.612 266.419 95.75 265.915 96.026C265.423 96.29 265.039 96.68 264.763 97.196C264.499 97.7 264.367 98.312 264.367 99.032V104H263.089V94.55H264.313V97.142L264.115 96.656C264.415 95.972 264.895 95.438 265.555 95.054C266.215 94.658 267.001 94.46 267.913 94.46ZM279.177 104.09C278.241 104.09 277.401 103.886 276.657 103.478C275.925 103.058 275.349 102.488 274.929 101.768C274.509 101.036 274.299 100.202 274.299 99.266C274.299 98.318 274.509 97.484 274.929 96.764C275.349 96.044 275.925 95.48 276.657 95.072C277.401 94.664 278.241 94.46 279.177 94.46C279.981 94.46 280.707 94.616 281.355 94.928C282.003 95.24 282.513 95.708 282.885 96.332L281.931 96.98C281.607 96.5 281.205 96.146 280.725 95.918C280.245 95.69 279.723 95.576 279.159 95.576C278.487 95.576 277.881 95.732 277.341 96.044C276.801 96.344 276.375 96.77 276.063 97.322C275.751 97.874 275.595 98.522 275.595 99.266C275.595 100.01 275.751 100.658 276.063 101.21C276.375 101.762 276.801 102.194 277.341 102.506C277.881 102.806 278.487 102.956 279.159 102.956C279.723 102.956 280.245 102.842 280.725 102.614C281.205 102.386 281.607 102.038 281.931 101.57L282.885 102.218C282.513 102.83 282.003 103.298 281.355 103.622C280.707 103.934 279.981 104.09 279.177 104.09ZM285.327 107.582C284.883 107.582 284.457 107.51 284.049 107.366C283.653 107.222 283.311 107.006 283.023 106.718L283.617 105.764C283.857 105.992 284.115 106.166 284.391 106.286C284.679 106.418 284.997 106.484 285.345 106.484C285.765 106.484 286.125 106.364 286.425 106.124C286.737 105.896 287.031 105.488 287.307 104.9L287.919 103.514L288.063 103.316L291.951 94.55H293.211L288.477 105.134C288.213 105.746 287.919 106.232 287.595 106.592C287.283 106.952 286.941 107.204 286.569 107.348C286.197 107.504 285.783 107.582 285.327 107.582ZM287.847 104.27L283.491 94.55H284.823L288.675 103.226L287.847 104.27Z" fill="black"/>
<path d="M378.5 104V92.552H374.072V91.4H384.26V92.552H379.832V104H378.5ZM385.872 104V94.55H387.096V97.124L386.97 96.674C387.234 95.954 387.678 95.408 388.302 95.036C388.926 94.652 389.7 94.46 390.624 94.46V95.702C390.576 95.702 390.528 95.702 390.48 95.702C390.432 95.69 390.384 95.684 390.336 95.684C389.34 95.684 388.56 95.99 387.996 96.602C387.432 97.202 387.15 98.06 387.15 99.176V104H385.872ZM398.175 104V101.912L398.121 101.57V98.078C398.121 97.274 397.893 96.656 397.437 96.224C396.993 95.792 396.327 95.576 395.439 95.576C394.827 95.576 394.245 95.678 393.693 95.882C393.141 96.086 392.673 96.356 392.289 96.692L391.713 95.738C392.193 95.33 392.769 95.018 393.441 94.802C394.113 94.574 394.821 94.46 395.565 94.46C396.789 94.46 397.731 94.766 398.391 95.378C399.063 95.978 399.399 96.896 399.399 98.132V104H398.175ZM394.917 104.09C394.209 104.09 393.591 103.976 393.063 103.748C392.547 103.508 392.151 103.184 391.875 102.776C391.599 102.356 391.461 101.876 391.461 101.336C391.461 100.844 391.575 100.4 391.803 100.004C392.043 99.596 392.427 99.272 392.955 99.032C393.495 98.78 394.215 98.654 395.115 98.654H398.373V99.608H395.151C394.239 99.608 393.603 99.77 393.243 100.094C392.895 100.418 392.721 100.82 392.721 101.3C392.721 101.84 392.931 102.272 393.351 102.596C393.771 102.92 394.359 103.082 395.115 103.082C395.835 103.082 396.453 102.92 396.969 102.596C397.497 102.26 397.881 101.78 398.121 101.156L398.409 102.038C398.169 102.662 397.749 103.16 397.149 103.532C396.561 103.904 395.817 104.09 394.917 104.09ZM407.694 94.46C408.462 94.46 409.134 94.61 409.71 94.91C410.298 95.198 410.754 95.642 411.078 96.242C411.414 96.842 411.582 97.598 411.582 98.51V104H410.304V98.636C410.304 97.64 410.052 96.89 409.548 96.386C409.056 95.87 408.36 95.612 407.46 95.612C406.788 95.612 406.2 95.75 405.696 96.026C405.204 96.29 404.82 96.68 404.544 97.196C404.28 97.7 404.148 98.312 404.148 99.032V104H402.87V94.55H404.094V97.142L403.896 96.656C404.196 95.972 404.676 95.438 405.336 95.054C405.996 94.658 406.782 94.46 407.694 94.46ZM417.572 104.09C416.792 104.09 416.054 103.982 415.358 103.766C414.662 103.538 414.116 103.256 413.72 102.92L414.296 101.912C414.68 102.2 415.172 102.452 415.772 102.668C416.372 102.872 417.002 102.974 417.662 102.974C418.562 102.974 419.21 102.836 419.606 102.56C420.002 102.272 420.2 101.894 420.2 101.426C420.2 101.078 420.086 100.808 419.858 100.616C419.642 100.412 419.354 100.262 418.994 100.166C418.634 100.058 418.232 99.968 417.788 99.896C417.344 99.824 416.9 99.74 416.456 99.644C416.024 99.548 415.628 99.41 415.268 99.23C414.908 99.038 414.614 98.78 414.386 98.456C414.17 98.132 414.062 97.7 414.062 97.16C414.062 96.644 414.206 96.182 414.494 95.774C414.782 95.366 415.202 95.048 415.754 94.82C416.318 94.58 417.002 94.46 417.806 94.46C418.418 94.46 419.03 94.544 419.642 94.712C420.254 94.868 420.758 95.078 421.154 95.342L420.596 96.368C420.176 96.08 419.726 95.876 419.246 95.756C418.766 95.624 418.286 95.558 417.806 95.558C416.954 95.558 416.324 95.708 415.916 96.008C415.52 96.296 415.322 96.668 415.322 97.124C415.322 97.484 415.43 97.766 415.646 97.97C415.874 98.174 416.168 98.336 416.528 98.456C416.9 98.564 417.302 98.654 417.734 98.726C418.178 98.798 418.616 98.888 419.048 98.996C419.492 99.092 419.894 99.23 420.254 99.41C420.626 99.578 420.92 99.824 421.136 100.148C421.364 100.46 421.478 100.874 421.478 101.39C421.478 101.942 421.322 102.422 421.01 102.83C420.71 103.226 420.266 103.538 419.678 103.766C419.102 103.982 418.4 104.09 417.572 104.09ZM428.701 104.09C427.885 104.09 427.147 103.904 426.487 103.532C425.827 103.148 425.299 102.602 424.903 101.894C424.519 101.174 424.327 100.298 424.327 99.266C424.327 98.234 424.519 97.364 424.903 96.656C425.287 95.936 425.809 95.39 426.469 95.018C427.129 94.646 427.873 94.46 428.701 94.46C429.601 94.46 430.405 94.664 431.113 95.072C431.833 95.468 432.397 96.032 432.805 96.764C433.213 97.484 433.417 98.318 433.417 99.266C433.417 100.226 433.213 101.066 432.805 101.786C432.397 102.506 431.833 103.07 431.113 103.478C430.405 103.886 429.601 104.09 428.701 104.09ZM423.823 107.492V94.55H425.047V97.394L424.921 99.284L425.101 101.192V107.492H423.823ZM428.611 102.956C429.283 102.956 429.883 102.806 430.411 102.506C430.939 102.194 431.359 101.762 431.671 101.21C431.983 100.646 432.139 99.998 432.139 99.266C432.139 98.534 431.983 97.892 431.671 97.34C431.359 96.788 430.939 96.356 430.411 96.044C429.883 95.732 429.283 95.576 428.611 95.576C427.939 95.576 427.333 95.732 426.793 96.044C426.265 96.356 425.845 96.788 425.533 97.34C425.233 97.892 425.083 98.534 425.083 99.266C425.083 99.998 425.233 100.646 425.533 101.21C425.845 101.762 426.265 102.194 426.793 102.506C427.333 102.806 427.939 102.956 428.611 102.956ZM440.036 104.09C439.052 104.09 438.188 103.886 437.444 103.478C436.7 103.058 436.118 102.488 435.698 101.768C435.278 101.036 435.068 100.202 435.068 99.266C435.068 98.33 435.266 97.502 435.662 96.782C436.07 96.062 436.622 95.498 437.318 95.09C438.026 94.67 438.818 94.46 439.694 94.46C440.582 94.46 441.368 94.664 442.052 95.072C442.748 95.468 443.294 96.032 443.69 96.764C444.086 97.484 444.284 98.318 444.284 99.266C444.284 99.326 444.278 99.392 444.266 99.464C444.266 99.524 444.266 99.59 444.266 99.662H436.04V98.708H443.582L443.078 99.086C443.078 98.402 442.928 97.796 442.628 97.268C442.34 96.728 441.944 96.308 441.44 96.008C440.936 95.708 440.354 95.558 439.694 95.558C439.046 95.558 438.464 95.708 437.948 96.008C437.432 96.308 437.03 96.728 436.742 97.268C436.454 97.808 436.31 98.426 436.31 99.122V99.32C436.31 100.04 436.466 100.676 436.778 101.228C437.102 101.768 437.546 102.194 438.11 102.506C438.686 102.806 439.34 102.956 440.072 102.956C440.648 102.956 441.182 102.854 441.674 102.65C442.178 102.446 442.61 102.134 442.97 101.714L443.69 102.542C443.27 103.046 442.742 103.43 442.106 103.694C441.482 103.958 440.792 104.09 440.036 104.09ZM446.886 104V94.55H448.11V97.124L447.984 96.674C448.248 95.954 448.692 95.408 449.316 95.036C449.94 94.652 450.714 94.46 451.638 94.46V95.702C451.59 95.702 451.542 95.702 451.494 95.702C451.446 95.69 451.398 95.684 451.35 95.684C450.354 95.684 449.574 95.99 449.01 96.602C448.446 97.202 448.164 98.06 448.164 99.176V104H446.886ZM459.188 104V101.912L459.134 101.57V98.078C459.134 97.274 458.906 96.656 458.45 96.224C458.006 95.792 457.34 95.576 456.452 95.576C455.84 95.576 455.258 95.678 454.706 95.882C454.154 96.086 453.686 96.356 453.302 96.692L452.726 95.738C453.206 95.33 453.782 95.018 454.454 94.802C455.126 94.574 455.834 94.46 456.578 94.46C457.802 94.46 458.744 94.766 459.404 95.378C460.076 95.978 460.412 96.896 460.412 98.132V104H459.188ZM455.93 104.09C455.222 104.09 454.604 103.976 454.076 103.748C453.56 103.508 453.164 103.184 452.888 102.776C452.612 102.356 452.474 101.876 452.474 101.336C452.474 100.844 452.588 100.4 452.816 100.004C453.056 99.596 453.44 99.272 453.968 99.032C454.508 98.78 455.228 98.654 456.128 98.654H459.386V99.608H456.164C455.252 99.608 454.616 99.77 454.256 100.094C453.908 100.418 453.734 100.82 453.734 101.3C453.734 101.84 453.944 102.272 454.364 102.596C454.784 102.92 455.372 103.082 456.128 103.082C456.848 103.082 457.466 102.92 457.982 102.596C458.51 102.26 458.894 101.78 459.134 101.156L459.422 102.038C459.182 102.662 458.762 103.16 458.162 103.532C457.574 103.904 456.83 104.09 455.93 104.09ZM468.708 94.46C469.476 94.46 470.148 94.61 470.724 94.91C471.312 95.198 471.768 95.642 472.092 96.242C472.428 96.842 472.596 97.598 472.596 98.51V104H471.318V98.636C471.318 97.64 471.066 96.89 470.562 96.386C470.07 95.87 469.374 95.612 468.474 95.612C467.802 95.612 467.214 95.75 466.71 96.026C466.218 96.29 465.834 96.68 465.558 97.196C465.294 97.7 465.162 98.312 465.162 99.032V104H463.884V94.55H465.108V97.142L464.91 96.656C465.21 95.972 465.69 95.438 466.35 95.054C467.01 94.658 467.796 94.46 468.708 94.46ZM479.972 104.09C479.036 104.09 478.196 103.886 477.452 103.478C476.72 103.058 476.144 102.488 475.724 101.768C475.304 101.036 475.094 100.202 475.094 99.266C475.094 98.318 475.304 97.484 475.724 96.764C476.144 96.044 476.72 95.48 477.452 95.072C478.196 94.664 479.036 94.46 479.972 94.46C480.776 94.46 481.502 94.616 482.15 94.928C482.798 95.24 483.308 95.708 483.68 96.332L482.726 96.98C482.402 96.5 482 96.146 481.52 95.918C481.04 95.69 480.518 95.576 479.954 95.576C479.282 95.576 478.676 95.732 478.136 96.044C477.596 96.344 477.17 96.77 476.858 97.322C476.546 97.874 476.39 98.522 476.39 99.266C476.39 100.01 476.546 100.658 476.858 101.21C477.17 101.762 477.596 102.194 478.136 102.506C478.676 102.806 479.282 102.956 479.954 102.956C480.518 102.956 481.04 102.842 481.52 102.614C482 102.386 482.402 102.038 482.726 101.57L483.68 102.218C483.308 102.83 482.798 103.298 482.15 103.622C481.502 103.934 480.776 104.09 479.972 104.09ZM486.122 107.582C485.678 107.582 485.252 107.51 484.844 107.366C484.448 107.222 484.106 107.006 483.818 106.718L484.412 105.764C484.652 105.992 484.91 106.166 485.186 106.286C485.474 106.418 485.792 106.484 486.14 106.484C486.56 106.484 486.92 106.364 487.22 106.124C487.532 105.896 487.826 105.488 488.102 104.9L488.714 103.514L488.858 103.316L492.746 94.55H494.006L489.272 105.134C489.008 105.746 488.714 106.232 488.39 106.592C488.078 106.952 487.736 107.204 487.364 107.348C486.992 107.504 486.578 107.582 486.122 107.582ZM488.642 104.27L484.286 94.55H485.618L489.47 103.226L488.642 104.27Z" fill="black"/>
<g clip-path="url(#clip0_2002_62)">
<path d="M354.293 93.2179C352.799 93.2179 351.345 92.7911 350.089 91.9833C349.864 91.8393 349.643 91.6811 349.434 91.513L349.282 91.3917L349.28 91.3902C349.275 91.3866 349.271 91.383 349.266 91.3797C349.262 91.377 349.258 91.374 349.254 91.3713C349.25 91.3683 349.245 91.3656 349.24 91.3626C349.236 91.3596 349.231 91.3566 349.227 91.3539C349.222 91.3514 349.218 91.3493 349.214 91.3469C349.209 91.3442 349.203 91.3412 349.198 91.3385L349.196 91.3373C349.192 91.3358 349.189 91.3343 349.185 91.3328C349.18 91.3304 349.175 91.3277 349.169 91.3256C349.164 91.3238 349.16 91.3223 349.155 91.3205C349.15 91.3187 349.145 91.3166 349.139 91.3148C349.134 91.3133 349.129 91.3117 349.124 91.3102C349.119 91.3087 349.114 91.3072 349.109 91.306C349.104 91.3048 349.099 91.3036 349.093 91.3024C349.088 91.3015 349.083 91.3003 349.078 91.2994C349.073 91.2985 349.068 91.2976 349.062 91.297C349.057 91.2964 349.052 91.2955 349.047 91.2952C349.042 91.2946 349.037 91.2943 349.031 91.294C349.026 91.2937 349.021 91.2934 349.016 91.2931C349.011 91.2928 349.006 91.2931 349 91.2931C348.995 91.2931 348.99 91.2931 348.985 91.2931C348.98 91.2934 348.975 91.2937 348.97 91.294C348.964 91.2943 348.959 91.2946 348.954 91.2952C348.949 91.2958 348.944 91.2964 348.939 91.297C348.933 91.2979 348.928 91.2985 348.923 91.2994C348.918 91.3003 348.913 91.3012 348.908 91.3024C348.902 91.3036 348.897 91.3045 348.892 91.306C348.887 91.3072 348.882 91.3087 348.877 91.3102C348.872 91.3117 348.867 91.313 348.862 91.3148C348.856 91.3166 348.851 91.3184 348.846 91.3205C348.841 91.3223 348.837 91.3238 348.832 91.3256C348.826 91.3277 348.821 91.3304 348.816 91.3328C348.812 91.3343 348.809 91.3355 348.805 91.3373L348.803 91.3385C348.797 91.3412 348.792 91.3439 348.787 91.3469C348.783 91.349 348.779 91.3514 348.775 91.3536C348.77 91.3563 348.765 91.3593 348.761 91.3623C348.756 91.365 348.752 91.368 348.747 91.3707C348.743 91.3734 348.739 91.3764 348.736 91.3791C348.731 91.3827 348.726 91.386 348.721 91.3896L348.719 91.3911L348.496 91.5695C348.368 91.6687 348.241 91.7623 348.116 91.8477C347.87 92.0167 347.611 92.1737 347.347 92.3139C347.004 92.4949 346.647 92.6513 346.283 92.7788C346.078 92.8507 345.865 92.9154 345.651 92.971C345.016 93.1349 344.362 93.2179 343.707 93.2179C343.458 93.2179 343.256 93.42 343.256 93.669V97.9999V98.0044C343.256 98.5298 343.324 99.0528 343.456 99.5577C343.567 99.9782 343.723 100.389 343.921 100.778C344.074 101.078 344.252 101.367 344.451 101.636C344.733 102.019 345.06 102.369 345.422 102.675C345.737 102.941 346.081 103.177 346.444 103.375L348.784 104.652C348.786 104.653 348.789 104.654 348.791 104.655C348.795 104.657 348.799 104.659 348.803 104.661C348.808 104.664 348.813 104.666 348.818 104.668C348.822 104.67 348.826 104.671 348.83 104.673C348.835 104.675 348.84 104.677 348.845 104.679C348.849 104.681 348.853 104.682 348.857 104.684C348.862 104.685 348.868 104.687 348.873 104.688C348.877 104.69 348.881 104.691 348.885 104.692C348.891 104.693 348.896 104.695 348.902 104.696C348.906 104.697 348.91 104.698 348.914 104.699C348.919 104.7 348.925 104.701 348.931 104.702C348.935 104.702 348.939 104.703 348.942 104.703C348.949 104.704 348.955 104.705 348.962 104.705C348.965 104.705 348.968 104.706 348.971 104.706C348.981 104.707 348.99 104.707 349 104.707C349.01 104.707 349.019 104.707 349.029 104.706C349.032 104.706 349.035 104.705 349.038 104.705C349.045 104.705 349.051 104.704 349.058 104.703C349.062 104.703 349.065 104.702 349.069 104.702C349.075 104.701 349.08 104.7 349.086 104.699C349.09 104.698 349.094 104.697 349.099 104.696C349.104 104.695 349.109 104.694 349.114 104.692C349.119 104.691 349.123 104.69 349.127 104.689C349.133 104.687 349.138 104.686 349.142 104.684C349.147 104.683 349.151 104.681 349.155 104.68C349.16 104.678 349.165 104.676 349.17 104.674C349.174 104.672 349.179 104.67 349.183 104.668C349.188 104.666 349.192 104.664 349.197 104.662C349.201 104.66 349.205 104.658 349.209 104.656C349.211 104.654 349.214 104.653 349.216 104.652L351.556 103.376C352.345 102.945 353.016 102.36 353.55 101.637C354.012 101.01 354.346 100.311 354.543 99.559C354.677 99.0531 354.744 98.5301 354.744 98.005V97.9999V93.669C354.745 93.42 354.542 93.2179 354.293 93.2179ZM344.158 94.1084C344.737 94.0783 345.313 93.9899 345.875 93.845C346.115 93.783 346.352 93.7108 346.581 93.6305C346.986 93.4883 347.386 93.3138 347.768 93.1117C348.036 92.9698 348.298 92.8125 348.549 92.6441V97.5487H344.158V94.1084ZM353.671 99.3289C353.503 99.9698 353.218 100.566 352.824 101.101C352.369 101.717 351.797 102.216 351.124 102.583L349.451 103.496V98.451H353.823C353.798 98.7475 353.747 99.0414 353.671 99.3289Z" fill="#9D3A21"/>
<path d="M361 98C361 96.7474 360.026 95.7188 358.795 95.631C358.362 93.8328 357.444 92.1952 356.124 90.8758C354.805 89.5564 353.167 88.6382 351.369 88.2051C351.281 86.9744 350.253 86 349 86C347.747 86 346.719 86.9744 346.631 88.2051C344.833 88.6379 343.195 89.5564 341.876 90.8758C340.556 92.1952 339.638 93.8328 339.205 95.631C337.974 95.7188 337 96.7474 337 98C337 99.2526 337.974 100.281 339.205 100.369C339.638 102.167 340.556 103.805 341.876 105.124C343.195 106.444 344.833 107.362 346.631 107.795C346.719 109.026 347.747 110 349 110C350.253 110 351.281 109.026 351.369 107.795C353.167 107.362 354.805 106.444 356.124 105.124C357.444 103.805 358.362 102.167 358.795 100.369C360.026 100.281 361 99.2526 361 98ZM349 86.9023C349.813 86.9023 350.474 87.5633 350.474 88.3759C350.474 88.4259 350.471 88.4749 350.466 88.5224C350.392 89.2791 349.762 89.8496 349 89.8496C348.929 89.8496 348.858 89.8445 348.79 89.8349C348.125 89.741 347.601 89.2081 347.533 88.5215C347.528 88.4749 347.526 88.4259 347.526 88.3759C347.526 87.5633 348.187 86.9023 349 86.9023ZM337.902 98C337.902 97.1874 338.563 96.5263 339.376 96.5263C339.426 96.5263 339.475 96.5287 339.522 96.5335C340.279 96.6078 340.85 97.2382 340.85 98C340.85 98.0475 340.848 98.0947 340.843 98.1411C340.841 98.1675 340.837 98.194 340.833 98.2198C340.736 98.88 340.205 99.3994 339.522 99.4665C339.475 99.4713 339.426 99.4734 339.376 99.4734C338.563 99.4737 337.902 98.8126 337.902 98ZM349 109.098C348.187 109.098 347.526 108.437 347.526 107.624C347.526 107.576 347.529 107.527 347.533 107.478C347.608 106.721 348.238 106.15 349 106.15C349.024 106.15 349.048 106.151 349.071 106.152C349.8 106.187 350.394 106.744 350.466 107.477C350.471 107.527 350.474 107.576 350.474 107.624C350.474 108.437 349.813 109.098 349 109.098ZM351.261 106.892C351.259 106.885 351.256 106.877 351.253 106.869C351.251 106.861 351.247 106.853 351.244 106.844C351.235 106.818 351.226 106.792 351.216 106.766C351.214 106.762 351.213 106.757 351.211 106.753C351.199 106.723 351.187 106.693 351.174 106.664C351.17 106.657 351.167 106.649 351.164 106.642C351.153 106.618 351.142 106.595 351.131 106.573C351.127 106.565 351.124 106.558 351.12 106.551C351.106 106.522 351.09 106.494 351.075 106.466C351.072 106.461 351.069 106.457 351.067 106.452C351.053 106.428 351.04 106.405 351.026 106.382C351.021 106.374 351.016 106.366 351.011 106.359C350.996 106.334 350.98 106.31 350.963 106.286C350.962 106.283 350.96 106.28 350.958 106.278C350.94 106.251 350.921 106.225 350.902 106.199C350.896 106.192 350.891 106.185 350.886 106.178C350.87 106.158 350.854 106.138 350.838 106.118C350.833 106.112 350.828 106.106 350.823 106.1C350.802 106.076 350.781 106.051 350.76 106.027C350.755 106.022 350.75 106.017 350.746 106.012C350.727 105.993 350.709 105.974 350.691 105.955C350.684 105.949 350.678 105.942 350.672 105.936C350.648 105.913 350.625 105.89 350.601 105.868C350.162 105.468 349.594 105.248 349 105.248C348.406 105.248 347.838 105.468 347.4 105.868C347.375 105.89 347.352 105.913 347.329 105.936C347.322 105.942 347.316 105.949 347.309 105.955C347.291 105.974 347.273 105.993 347.254 106.012C347.25 106.017 347.245 106.022 347.241 106.027C347.219 106.051 347.198 106.076 347.177 106.1C347.172 106.106 347.167 106.112 347.163 106.118C347.146 106.138 347.13 106.158 347.114 106.178C347.109 106.185 347.104 106.192 347.099 106.199C347.079 106.225 347.06 106.251 347.042 106.277C347.04 106.279 347.039 106.281 347.038 106.284C347.021 106.309 347.004 106.334 346.988 106.359C346.984 106.366 346.979 106.374 346.975 106.381C346.96 106.405 346.946 106.429 346.931 106.454C346.929 106.457 346.927 106.461 346.925 106.465C346.909 106.494 346.894 106.522 346.879 106.552C346.876 106.558 346.873 106.564 346.87 106.57C346.858 106.595 346.846 106.619 346.835 106.644C346.832 106.65 346.83 106.656 346.827 106.662C346.813 106.693 346.8 106.723 346.788 106.754C346.787 106.756 346.787 106.758 346.786 106.761C346.775 106.789 346.764 106.818 346.754 106.847C346.752 106.854 346.75 106.86 346.747 106.867C346.745 106.875 346.741 106.884 346.739 106.892C343.472 106.068 340.932 103.528 340.108 100.261C340.115 100.259 340.122 100.256 340.13 100.253C340.139 100.25 340.147 100.247 340.156 100.244C340.182 100.235 340.208 100.226 340.233 100.216C340.238 100.214 340.243 100.213 340.248 100.211C340.278 100.199 340.307 100.187 340.336 100.174C340.344 100.17 340.351 100.167 340.359 100.163C340.382 100.153 340.405 100.142 340.427 100.131C340.435 100.127 340.442 100.124 340.45 100.12C340.478 100.106 340.506 100.091 340.534 100.075C340.539 100.072 340.544 100.069 340.549 100.067C340.572 100.053 340.595 100.04 340.618 100.026C340.626 100.021 340.634 100.016 340.641 100.011C340.666 99.9955 340.691 99.9795 340.715 99.963C340.718 99.9612 340.72 99.9597 340.723 99.9579C340.749 99.9395 340.775 99.9206 340.801 99.9014C340.808 99.8962 340.815 99.8908 340.822 99.8854C340.842 99.8698 340.862 99.8535 340.882 99.8373C340.888 99.8325 340.894 99.8277 340.9 99.8229C340.925 99.8021 340.949 99.7811 340.973 99.7594C340.978 99.7549 340.983 99.7501 340.988 99.7456C341.008 99.7275 341.026 99.7095 341.045 99.6908C341.052 99.6845 341.058 99.6782 341.065 99.6716C341.088 99.6484 341.11 99.6247 341.133 99.6006C341.532 99.1621 341.752 98.5937 341.752 98C341.752 97.8887 341.744 97.7783 341.729 97.6695C341.663 97.1979 341.457 96.7558 341.132 96.3997L341.131 96.3985C341.11 96.3747 341.088 96.3516 341.065 96.3287C341.058 96.3221 341.052 96.3155 341.045 96.3089C341.026 96.2905 341.008 96.2725 340.989 96.2547C340.983 96.2499 340.978 96.2448 340.973 96.24C340.949 96.2183 340.925 96.1976 340.901 96.1768C340.894 96.1717 340.888 96.1666 340.882 96.1615C340.863 96.1456 340.843 96.1299 340.823 96.1143C340.816 96.1086 340.808 96.1032 340.801 96.0974C340.775 96.0782 340.75 96.0595 340.724 96.0415C340.72 96.0391 340.717 96.037 340.713 96.0346C340.69 96.0186 340.667 96.0033 340.643 95.9886C340.635 95.9835 340.626 95.978 340.618 95.9729C340.596 95.9594 340.574 95.9465 340.552 95.9338C340.546 95.9305 340.54 95.9269 340.534 95.9236C340.507 95.9086 340.479 95.8938 340.451 95.8797C340.443 95.8755 340.434 95.8713 340.426 95.8671C340.405 95.8568 340.383 95.8466 340.362 95.837C340.353 95.8328 340.344 95.8286 340.335 95.8247C340.307 95.8123 340.279 95.8003 340.25 95.7889C340.243 95.7862 340.236 95.7835 340.229 95.7808C340.206 95.772 340.183 95.7636 340.16 95.7555C340.149 95.7519 340.139 95.7483 340.129 95.745C340.122 95.7429 340.115 95.7405 340.109 95.738C340.932 92.4722 343.472 89.9323 346.739 89.1077C346.741 89.1152 346.744 89.1227 346.747 89.1302C346.749 89.1386 346.752 89.1474 346.755 89.1558C346.764 89.1816 346.773 89.2075 346.783 89.2334C346.785 89.2382 346.787 89.243 346.789 89.2475C346.801 89.2773 346.813 89.3068 346.826 89.3359C346.829 89.3435 346.833 89.351 346.836 89.3585C346.847 89.3817 346.857 89.4045 346.869 89.4274C346.872 89.4346 346.876 89.4421 346.879 89.4493C346.894 89.4779 346.909 89.5059 346.924 89.5338C346.927 89.5387 346.93 89.5435 346.933 89.5483C346.946 89.5717 346.96 89.5949 346.974 89.6181C346.979 89.6259 346.984 89.6337 346.988 89.6415C347.004 89.6662 347.02 89.6905 347.036 89.7146C347.038 89.7173 347.04 89.72 347.042 89.723C347.06 89.7495 347.079 89.7753 347.098 89.8009C347.103 89.8081 347.109 89.815 347.114 89.822C347.13 89.8421 347.146 89.8623 347.162 89.8821C347.167 89.8881 347.171 89.8941 347.177 89.9001C347.197 89.9248 347.218 89.9489 347.24 89.9726C347.244 89.9777 347.249 89.9829 347.254 89.9877C347.272 90.0069 347.29 90.0262 347.309 90.0448C347.315 90.0514 347.321 90.0577 347.328 90.0641C347.351 90.0869 347.375 90.1098 347.399 90.132C347.838 90.5317 348.406 90.7519 349 90.7519C349.111 90.7519 349.222 90.7441 349.33 90.729C349.802 90.6632 350.244 90.4568 350.6 90.1323C350.625 90.1101 350.648 90.0875 350.671 90.0644C350.678 90.0581 350.684 90.0514 350.691 90.0451C350.709 90.0262 350.727 90.0072 350.746 89.9877C350.75 89.9826 350.755 89.9777 350.759 89.9726C350.781 89.9489 350.802 89.9245 350.823 89.8998C350.828 89.8938 350.833 89.8878 350.838 89.8818C350.854 89.862 350.87 89.8421 350.885 89.8217C350.89 89.8144 350.896 89.8075 350.901 89.8003C350.921 89.7747 350.939 89.7489 350.957 89.7227C350.959 89.7194 350.961 89.7161 350.964 89.7128C350.98 89.6893 350.995 89.6656 351.01 89.6418C351.016 89.6334 351.021 89.6253 351.026 89.6168C351.039 89.5949 351.052 89.5729 351.065 89.5507C351.068 89.5447 351.072 89.5386 351.076 89.5326C351.091 89.5056 351.105 89.4782 351.119 89.4505C351.124 89.4418 351.128 89.4331 351.132 89.4244C351.142 89.4036 351.152 89.3826 351.162 89.3615C351.166 89.3522 351.17 89.3432 351.174 89.3338C351.187 89.3059 351.199 89.2776 351.21 89.2493C351.213 89.2418 351.216 89.2343 351.218 89.2268C351.227 89.2042 351.235 89.1817 351.243 89.1591C351.247 89.1486 351.251 89.1377 351.254 89.1272C351.256 89.1206 351.259 89.1143 351.261 89.1077C354.527 89.9326 357.067 92.4725 357.892 95.7389C357.885 95.7414 357.877 95.7441 357.869 95.7468C357.861 95.7498 357.852 95.7525 357.844 95.7555C357.818 95.7645 357.792 95.7738 357.766 95.7838C357.762 95.7856 357.757 95.7874 357.752 95.7892C357.722 95.8009 357.693 95.8132 357.664 95.8262C357.656 95.8295 357.648 95.8331 357.641 95.8364C357.618 95.8469 357.595 95.8577 357.572 95.8689C357.565 95.8725 357.558 95.8761 357.55 95.8797C357.522 95.8941 357.493 95.9089 357.466 95.9245C357.461 95.9272 357.456 95.9302 357.451 95.9329C357.427 95.9462 357.404 95.96 357.381 95.9741C357.373 95.9789 357.366 95.9838 357.358 95.9886C357.333 96.0042 357.309 96.0198 357.285 96.0364C357.282 96.0382 357.279 96.04 357.277 96.0418C357.25 96.0599 357.224 96.0788 357.199 96.098C357.192 96.1035 357.185 96.1089 357.178 96.1143C357.157 96.1299 357.137 96.1459 357.118 96.1621C357.112 96.1669 357.106 96.1717 357.1 96.1768C357.075 96.1976 357.051 96.2186 357.027 96.2403C357.022 96.2448 357.017 96.2496 357.012 96.2544C356.992 96.2725 356.973 96.2905 356.954 96.3092C356.948 96.3155 356.941 96.3218 356.935 96.3284C356.912 96.3516 356.889 96.3753 356.867 96.3994C356.468 96.8382 356.248 97.4063 356.248 98C356.248 98.5937 356.468 99.1618 356.868 99.6003C356.89 99.6247 356.913 99.6481 356.936 99.6713C356.942 99.6776 356.949 99.6842 356.955 99.6905C356.974 99.7092 356.993 99.7275 357.012 99.7456C357.017 99.7501 357.022 99.7549 357.027 99.7594C357.051 99.7811 357.076 99.8021 357.1 99.8229C357.106 99.8277 357.112 99.8325 357.118 99.8373C357.138 99.8538 357.158 99.8698 357.179 99.8857C357.186 99.8908 357.192 99.8962 357.199 99.9014C357.225 99.9209 357.251 99.9398 357.278 99.9582C357.28 99.9597 357.282 99.9609 357.284 99.9624C357.309 99.9795 357.334 99.9958 357.359 100.012C357.367 100.016 357.374 100.021 357.381 100.025C357.405 100.04 357.43 100.055 357.454 100.069C357.458 100.071 357.462 100.073 357.465 100.075C357.494 100.091 357.523 100.106 357.552 100.121C357.558 100.124 357.564 100.127 357.57 100.13C357.595 100.142 357.62 100.154 357.645 100.165C357.651 100.168 357.656 100.171 357.662 100.174C357.693 100.187 357.723 100.2 357.754 100.212C357.756 100.213 357.758 100.213 357.76 100.214C357.789 100.226 357.818 100.236 357.847 100.246C357.854 100.248 357.86 100.251 357.867 100.253C357.875 100.256 357.884 100.259 357.892 100.262C357.068 103.527 354.528 106.068 351.261 106.892ZM358.624 99.4737C358.576 99.4737 358.527 99.4713 358.478 99.4665C357.721 99.3919 357.15 98.7615 357.15 98C357.15 97.9762 357.151 97.9525 357.152 97.929C357.187 97.1997 357.744 96.606 358.477 96.5335C358.527 96.5287 358.576 96.5263 358.624 96.5263C359.437 96.5263 360.098 97.1874 360.098 98C360.098 98.8126 359.437 99.4737 358.624 99.4737Z" fill="#9D3A21"/>
<path d="M349 113C357.284 113 364 106.284 364 98C364 89.7157 357.284 83 349 83C340.716 83 334 89.7157 334 98C334 106.284 340.716 113 349 113Z" fill="#D25239" fill-opacity="0.2"/>
</g>
<g clip-path="url(#clip1_2002_62)">
<mask id="mask0_2002_62" style="mask-type:luminance" maskUnits="userSpaceOnUse" x="148" y="86" width="24" height="24">
<path d="M172 86H148V110H172V86Z" fill="white"/>
</mask>
<g mask="url(#mask0_2002_62)">
<path d="M158.875 89.0728V88.3169C156.694 88.5735 154.663 89.5577 153.11 91.1105C151.558 92.6633 150.574 94.6941 150.317 96.875H151.073C151.325 94.894 152.229 93.0529 153.641 91.6408C155.053 90.2287 156.894 89.3254 158.875 89.0728ZM151.073 99.125H150.317C150.574 101.306 151.558 103.337 153.11 104.889C154.663 106.442 156.694 107.426 158.875 107.683V106.927C156.894 106.675 155.053 105.771 153.641 104.359C152.229 102.947 151.325 101.106 151.073 99.125ZM160 91.25C160.1 91.25 160.195 91.2105 160.265 91.1402C160.335 91.0698 160.375 90.9744 160.375 90.875V86.375C160.375 86.2755 160.335 86.1802 160.265 86.1098C160.195 86.0395 160.1 86 160 86C159.9 86 159.805 86.0395 159.735 86.1098C159.665 86.1802 159.625 86.2755 159.625 86.375V90.875C159.625 90.9744 159.665 91.0698 159.735 91.1402C159.805 91.2105 159.9 91.25 160 91.25ZM160 104.75C159.9 104.75 159.805 104.79 159.735 104.86C159.665 104.93 159.625 105.025 159.625 105.125V109.625C159.625 109.725 159.665 109.82 159.735 109.89C159.805 109.96 159.9 110 160 110C160.1 110 160.195 109.96 160.265 109.89C160.335 109.82 160.375 109.725 160.375 109.625V105.125C160.375 105.025 160.335 104.93 160.265 104.86C160.195 104.79 160.1 104.75 160 104.75ZM171.625 97.625H167.125C167.025 97.625 166.93 97.6645 166.86 97.7348C166.79 97.8052 166.75 97.9005 166.75 98C166.75 98.0995 166.79 98.1948 166.86 98.2652C166.93 98.3355 167.025 98.375 167.125 98.375H171.625C171.725 98.375 171.82 98.3355 171.89 98.2652C171.96 98.1948 172 98.0995 172 98C172 97.9005 171.96 97.8052 171.89 97.7348C171.82 97.6645 171.725 97.625 171.625 97.625ZM153.25 98C153.25 97.9005 153.21 97.8052 153.14 97.7348C153.07 97.6645 152.974 97.625 152.875 97.625H148.375C148.276 97.625 148.18 97.6645 148.11 97.7348C148.04 97.8052 148 97.9005 148 98C148 98.0995 148.04 98.1948 148.11 98.2652C148.18 98.3355 148.276 98.375 148.375 98.375H152.875C152.974 98.375 153.07 98.3355 153.14 98.2652C153.21 98.1948 153.25 98.0995 153.25 98ZM163.133 93.3306C161.973 92.5507 160.565 92.2293 159.182 92.4288C157.799 92.6282 156.539 93.3342 155.646 94.4099C154.754 95.4855 154.293 96.8543 154.353 98.2505C154.413 99.6468 154.989 100.971 155.97 101.967C156.95 102.962 158.266 103.558 159.661 103.639C161.056 103.72 162.432 103.279 163.521 102.403C164.61 101.527 165.334 100.278 165.555 98.8977C165.775 97.5176 165.474 96.1049 164.712 94.9336L164.171 95.4788C164.792 96.5033 165.015 97.7202 164.798 98.8983C164.58 100.076 163.938 101.134 162.992 101.869C162.047 102.605 160.864 102.967 159.668 102.888C158.473 102.809 157.348 102.293 156.508 101.439C155.668 100.585 155.171 99.4521 155.111 98.2556C155.051 97.0591 155.433 95.8823 156.184 94.9489C156.935 94.0154 158.003 93.3902 159.184 93.1922C160.366 92.9942 161.579 93.2371 162.593 93.8747L163.133 93.3306ZM164.51 89.3734L164.518 89.3659C163.461 88.8099 162.311 88.4542 161.125 88.3169V89.0728C162.189 89.2067 163.221 89.5312 164.17 90.031C164.206 89.7798 164.326 89.548 164.51 89.3734ZM167.904 93.7054C168.441 94.6885 168.788 95.7637 168.927 96.875H169.683C169.538 95.6172 169.147 94.4002 168.533 93.293L168.364 93.4506C168.233 93.5708 168.075 93.6581 167.904 93.7054Z" fill="#9D3A21" stroke="#9D3A21" stroke-width="0.5"/>
<path d="M160.225 97.3252L160.212 97.3111L160.277 97.1007C160.306 97.0056 160.296 96.9028 160.249 96.815C160.202 96.7272 160.123 96.6615 160.028 96.6324C159.932 96.6033 159.83 96.6132 159.742 96.6599C159.654 96.7066 159.588 96.7862 159.559 96.8813L159.079 98.4527C159.06 98.5157 159.057 98.5826 159.072 98.6467C159.087 98.7108 159.118 98.7699 159.163 98.818C159.208 98.8659 159.265 98.9012 159.328 98.9204C159.391 98.9397 159.458 98.9423 159.522 98.9279L161.11 98.5619C161.158 98.5508 161.204 98.5304 161.244 98.5018C161.284 98.4732 161.318 98.437 161.344 98.3953C161.37 98.3535 161.388 98.307 161.396 98.2584C161.404 98.2099 161.403 98.1602 161.391 98.1122C161.38 98.0642 161.36 98.0188 161.331 97.9787C161.303 97.9386 161.267 97.9045 161.225 97.8784C161.183 97.8523 161.137 97.8346 161.088 97.8265C161.039 97.8184 160.99 97.8199 160.942 97.8309L160.733 97.878L165.688 92.886L167.573 93.0028C167.58 93.0033 167.588 93.0035 167.596 93.0035C167.691 93.0036 167.782 92.9675 167.852 92.9025L170.569 90.3641C170.619 90.3172 170.655 90.2574 170.674 90.1912C170.692 90.1251 170.692 90.0551 170.674 89.9889C170.655 89.9228 170.619 89.863 170.569 89.8161C170.518 89.7692 170.456 89.737 170.389 89.723L168.645 89.3603L168.289 87.6128C168.276 87.5472 168.245 87.4864 168.2 87.4366C168.156 87.3869 168.098 87.35 168.034 87.3299C167.971 87.3097 167.903 87.3071 167.837 87.3221C167.772 87.3371 167.712 87.3693 167.664 87.4154L165.026 89.9173C164.986 89.9557 164.954 90.0027 164.934 90.0547C164.914 90.1068 164.906 90.1627 164.91 90.2184L165.081 92.4318L160.225 97.3252ZM167.458 92.2442L166.39 92.1781L168.464 90.0887L169.528 90.3101L167.458 92.2442ZM165.672 90.3385L167.689 88.425L167.922 89.5697L165.779 91.7287L165.672 90.3385ZM161.125 106.927V107.683C162.016 107.58 162.889 107.353 163.717 107.009C163.572 106.802 163.447 106.582 163.344 106.352C162.632 106.638 161.886 106.832 161.125 106.927ZM168.927 99.1249C168.842 99.8037 168.678 100.471 168.44 101.112C168.674 101.209 168.898 101.328 169.109 101.468C169.397 100.714 169.59 99.927 169.683 99.1249H168.927ZM166.938 101.562C166.307 101.562 165.691 101.749 165.167 102.1C164.642 102.45 164.234 102.948 163.993 103.53C163.751 104.113 163.688 104.754 163.811 105.372C163.934 105.99 164.238 106.558 164.684 107.004C165.129 107.45 165.697 107.753 166.316 107.876C166.934 107.999 167.575 107.936 168.157 107.695C168.74 107.454 169.238 107.045 169.588 106.521C169.938 105.997 170.125 105.38 170.125 104.75C170.124 103.905 169.788 103.095 169.19 102.497C168.593 101.9 167.783 101.563 166.938 101.562ZM166.938 107.187C166.455 107.187 165.984 107.045 165.583 106.777C165.182 106.509 164.87 106.128 164.686 105.683C164.501 105.237 164.453 104.747 164.547 104.274C164.641 103.802 164.873 103.367 165.214 103.026C165.555 102.686 165.989 102.453 166.462 102.359C166.935 102.265 167.425 102.314 167.87 102.498C168.316 102.683 168.696 102.995 168.964 103.396C169.232 103.797 169.375 104.268 169.375 104.75C169.374 105.396 169.117 106.016 168.66 106.473C168.203 106.93 167.584 107.187 166.938 107.187Z" fill="#9D3A21" stroke="#9D3A21" stroke-width="0.5"/>
<path d="M159.268 96.0741C159.408 95.9745 159.569 95.9083 159.739 95.8808C159.908 95.8532 160.082 95.865 160.247 95.9152C160.298 95.9316 160.348 95.9522 160.397 95.9767C160.427 95.9826 160.456 95.9905 160.486 95.9977L161.076 95.4026C160.476 95.151 159.808 95.114 159.184 95.2978C158.559 95.4815 158.017 95.8748 157.649 96.4113C157.281 96.9479 157.109 97.5949 157.162 98.2435C157.215 98.892 157.49 99.5024 157.941 99.9719C158.392 100.441 158.99 100.741 159.636 100.821C160.282 100.901 160.935 100.755 161.487 100.409C162.038 100.063 162.453 99.5381 162.662 98.9219C162.871 98.3057 162.862 97.6363 162.635 97.0263L162.028 97.6375C162.034 97.6669 162.038 97.6965 162.042 97.7262C162.077 97.7955 162.103 97.8685 162.122 97.9438C162.166 98.1369 162.159 98.3384 162.101 98.5278C162.042 98.7172 161.934 98.8877 161.789 99.0221C161.625 99.3093 161.395 99.553 161.117 99.7324C160.839 99.9119 160.522 100.022 160.193 100.053C159.864 100.084 159.532 100.036 159.226 99.912C158.919 99.7881 158.647 99.5922 158.432 99.3409C158.217 99.0896 158.066 98.7902 157.991 98.4682C157.916 98.1461 157.92 97.8108 158.002 97.4904C158.084 97.1701 158.241 96.8742 158.462 96.6277C158.682 96.3812 158.959 96.1913 159.268 96.0741ZM167.824 103.804L166.482 104.908L166.068 104.523C166.032 104.49 165.989 104.463 165.943 104.446C165.897 104.429 165.848 104.421 165.799 104.423C165.749 104.424 165.701 104.436 165.656 104.456C165.611 104.477 165.571 104.506 165.537 104.542C165.504 104.578 165.477 104.62 165.46 104.666C165.443 104.713 165.435 104.762 165.437 104.811C165.439 104.86 165.45 104.909 165.471 104.954C165.491 104.999 165.521 105.039 165.557 105.072L166.211 105.681C166.277 105.743 166.364 105.778 166.455 105.781C166.546 105.784 166.634 105.754 166.705 105.696L168.3 104.383C168.339 104.352 168.37 104.314 168.393 104.27C168.417 104.227 168.431 104.179 168.436 104.13C168.441 104.081 168.436 104.031 168.422 103.984C168.407 103.937 168.384 103.893 168.352 103.855C168.321 103.817 168.283 103.786 168.239 103.762C168.196 103.739 168.148 103.725 168.099 103.72C168.05 103.715 168 103.72 167.953 103.735C167.906 103.749 167.862 103.773 167.824 103.804Z" fill="#9D3A21" stroke="#9D3A21" stroke-width="0.5"/>
</g>
<path d="M160 113C168.284 113 175 106.284 175 98C175 89.7157 168.284 83 160 83C151.716 83 145 89.7157 145 98C145 106.284 151.716 113 160 113Z" fill="#D25239" fill-opacity="0.2"/>
</g>
<g clip-path="url(#clip2_2002_62)">
<path d="M13.7945 87.5513C14.4149 86.8162 15.5851 86.8162 16.2055 87.5513L17.2401 88.7771C17.6256 89.2338 18.256 89.4299 18.8482 89.2774L20.4375 88.8682C21.3906 88.6228 22.3373 89.2815 22.3881 90.2255L22.4728 91.7995C22.5044 92.386 22.894 92.8996 23.4666 93.1096L25.0035 93.6732C25.9252 94.0111 26.2868 95.077 25.7486 95.8693L24.8511 97.1904C24.5167 97.6827 24.5167 98.3174 24.8511 98.8097L25.7486 100.131C26.2868 100.923 25.9252 101.989 25.0035 102.327L23.4666 102.89C22.894 103.1 22.5044 103.614 22.4728 104.201L22.3881 105.775C22.3373 106.719 21.3906 107.377 20.4375 107.132L18.8482 106.723C18.256 106.57 17.6256 106.766 17.2401 107.223L16.2055 108.449C15.5851 109.184 14.4149 109.184 13.7945 108.449L12.7599 107.223C12.3744 106.766 11.744 106.57 11.1518 106.723L9.56256 107.132C8.60945 107.377 7.66276 106.719 7.61195 105.775L7.52725 104.201C7.49565 103.614 7.10606 103.1 6.5334 102.89L4.9965 102.327C4.07479 101.989 3.71317 100.923 4.25142 100.131L5.14894 98.8097C5.48334 98.3174 5.48334 97.6827 5.14894 97.1904L4.25142 95.8693C3.71317 95.077 4.07479 94.0111 4.9965 93.6732L6.5334 93.1096C7.10606 92.8996 7.49565 92.386 7.52725 91.7995L7.61195 90.2255C7.66276 89.2815 8.60945 88.6228 9.56256 88.8682L11.1518 89.2774C11.744 89.4299 12.3744 89.2338 12.7599 88.7771L13.7945 87.5513Z" stroke="#9D3A21" stroke-width="1.5"/>
<path d="M15 104.236C18.5958 104.236 21.5107 101.444 21.5107 98.0001C21.5107 94.5563 18.5958 91.7646 15 91.7646C11.4042 91.7646 8.48926 94.5563 8.48926 98.0001C8.48926 101.444 11.4042 104.236 15 104.236Z" stroke="#9D3A21" stroke-width="1.5"/>
<path d="M12.5195 98.2137L13.7628 99.4942C14.0694 99.8099 14.5914 99.8099 14.898 99.4942L17.7901 96.5156" stroke="#9D3A21" stroke-width="1.5" stroke-linecap="round" stroke-linejoin="round"/>
<path d="M15 113C23.2843 113 30 106.284 30 98C30 89.7157 23.2843 83 15 83C6.71573 83 0 89.7157 0 98C0 106.284 6.71573 113 15 113Z" fill="#D25239" fill-opacity="0.2"/>
</g>
<line x1="234.5" y1="39" x2="234.5" y2="59" stroke="black"/>
<line x1="234.5" y1="59" x2="234.5" y2="79" stroke="black"/>
<line x1="73.5" y1="58" x2="73.5" y2="78" stroke="black"/>
<line x1="432.5" y1="58" x2="432.5" y2="78" stroke="black"/>
<defs>
<clipPath id="clip0_2002_62">
<rect width="30" height="30" fill="white" transform="translate(334 83)"/>
</clipPath>
<clipPath id="clip1_2002_62">
<rect width="30" height="30" fill="white" transform="translate(145 83)"/>
</clipPath>
<clipPath id="clip2_2002_62">
<rect width="30" height="30" fill="white" transform="translate(0 83)"/>
</clipPath>
</defs>
</svg>
