<svg width="30" height="30" viewBox="0 0 30 30" fill="none" xmlns="http://www.w3.org/2000/svg">
<g clip-path="url(#clip0_11_38)">
<path d="M18.9133 3.1441C18.9133 2.73125 18.5787 2.39673 18.1659 2.39673H10.2484C9.83559 2.39673 9.50107 2.73125 9.50107 3.1441V7.89609C9.50107 8.30894 9.83559 8.64346 10.2484 8.64346H17.4185V10.7546L10.2484 17.927L8.40174 16.0795C8.24519 15.923 8.02616 15.8441 7.80683 15.8635C7.5863 15.8831 7.38581 15.9995 7.25945 16.1813L0.133712 26.4292C-0.0251297 26.6576 -0.0438638 26.9554 0.0850827 27.202C0.21393 27.4487 0.469232 27.6032 0.747453 27.6032H29.2507C29.2515 27.6033 29.2523 27.6033 29.2527 27.6032C29.6656 27.6032 30.0001 27.2687 30.0001 26.8558C30.0001 26.6781 29.9381 26.5149 29.8346 26.3867L18.9133 10.828V3.1441ZM10.9958 7.14872V3.89147H17.4185V7.14872H10.9958ZM2.17733 26.1085L7.97643 17.7685L9.7198 19.5126C9.86001 19.6527 10.0501 19.7316 10.2484 19.7316C10.4466 19.7316 10.6368 19.6527 10.777 19.5126L18.0655 12.2218L27.813 26.1086H2.17733V26.1085Z" fill="#9D3A21"/>
</g>
<defs>
<clipPath id="clip0_11_38">
<rect width="30" height="30" fill="white"/>
</clipPath>
</defs>
</svg>
