<svg width="237" height="184" viewBox="0 0 237 184" fill="none" xmlns="http://www.w3.org/2000/svg">
<path d="M123.56 75.108C122.612 75.108 121.73 74.952 120.914 74.64C120.11 74.316 119.408 73.866 118.808 73.29C118.22 72.702 117.758 72.024 117.422 71.256C117.098 70.476 116.936 69.624 116.936 68.7C116.936 67.776 117.098 66.93 117.422 66.162C117.758 65.382 118.22 64.704 118.808 64.128C119.408 63.54 120.11 63.09 120.914 62.778C121.718 62.454 122.6 62.292 123.56 62.292C124.508 62.292 125.384 62.454 126.188 62.778C126.992 63.09 127.688 63.534 128.276 64.11C128.876 64.686 129.338 65.364 129.662 66.144C129.998 66.924 130.166 67.776 130.166 68.7C130.166 69.624 129.998 70.476 129.662 71.256C129.338 72.036 128.876 72.714 128.276 73.29C127.688 73.866 126.992 74.316 126.188 74.64C125.384 74.952 124.508 75.108 123.56 75.108ZM127.682 77.502C127.298 77.502 126.926 77.454 126.566 77.358C126.206 77.262 125.84 77.106 125.468 76.89C125.108 76.686 124.736 76.416 124.352 76.08C123.968 75.744 123.548 75.336 123.092 74.856L124.55 74.496C124.922 74.94 125.282 75.306 125.63 75.594C125.99 75.882 126.338 76.092 126.674 76.224C127.022 76.368 127.364 76.44 127.7 76.44C128.636 76.44 129.434 76.056 130.094 75.288L130.742 76.062C129.95 77.022 128.93 77.502 127.682 77.502ZM123.56 73.92C124.316 73.92 125.012 73.794 125.648 73.542C126.296 73.278 126.854 72.906 127.322 72.426C127.802 71.946 128.174 71.394 128.438 70.77C128.702 70.134 128.834 69.444 128.834 68.7C128.834 67.944 128.702 67.254 128.438 66.63C128.174 65.994 127.802 65.442 127.322 64.974C126.854 64.494 126.296 64.128 125.648 63.876C125.012 63.612 124.316 63.48 123.56 63.48C122.804 63.48 122.102 63.612 121.454 63.876C120.806 64.128 120.242 64.494 119.762 64.974C119.294 65.442 118.922 65.994 118.646 66.63C118.382 67.254 118.25 67.944 118.25 68.7C118.25 69.444 118.382 70.134 118.646 70.77C118.922 71.394 119.294 71.946 119.762 72.426C120.242 72.906 120.806 73.278 121.454 73.542C122.102 73.794 122.804 73.92 123.56 73.92ZM136.788 75.09C135.984 75.09 135.282 74.94 134.682 74.64C134.082 74.34 133.614 73.89 133.278 73.29C132.954 72.69 132.792 71.94 132.792 71.04V65.55H134.07V70.896C134.07 71.904 134.316 72.666 134.808 73.182C135.312 73.686 136.014 73.938 136.914 73.938C137.574 73.938 138.144 73.806 138.624 73.542C139.116 73.266 139.488 72.87 139.74 72.354C140.004 71.838 140.136 71.22 140.136 70.5V65.55H141.414V75H140.19V72.408L140.388 72.876C140.088 73.572 139.62 74.118 138.984 74.514C138.36 74.898 137.628 75.09 136.788 75.09ZM150.897 75V72.912L150.843 72.57V69.078C150.843 68.274 150.615 67.656 150.159 67.224C149.715 66.792 149.049 66.576 148.161 66.576C147.549 66.576 146.967 66.678 146.415 66.882C145.863 67.086 145.395 67.356 145.011 67.692L144.435 66.738C144.915 66.33 145.491 66.018 146.163 65.802C146.835 65.574 147.543 65.46 148.287 65.46C149.511 65.46 150.453 65.766 151.113 66.378C151.785 66.978 152.121 67.896 152.121 69.132V75H150.897ZM147.639 75.09C146.931 75.09 146.313 74.976 145.785 74.748C145.269 74.508 144.873 74.184 144.597 73.776C144.321 73.356 144.183 72.876 144.183 72.336C144.183 71.844 144.297 71.4 144.525 71.004C144.765 70.596 145.149 70.272 145.677 70.032C146.217 69.78 146.937 69.654 147.837 69.654H151.095V70.608H147.873C146.961 70.608 146.325 70.77 145.965 71.094C145.617 71.418 145.443 71.82 145.443 72.3C145.443 72.84 145.653 73.272 146.073 73.596C146.493 73.92 147.081 74.082 147.837 74.082C148.557 74.082 149.175 73.92 149.691 73.596C150.219 73.26 150.603 72.78 150.843 72.156L151.131 73.038C150.891 73.662 150.471 74.16 149.871 74.532C149.283 74.904 148.539 75.09 147.639 75.09ZM155.593 75V61.644H156.871V75H155.593ZM160.427 75V65.55H161.705V75H160.427ZM161.075 63.462C160.811 63.462 160.589 63.372 160.409 63.192C160.229 63.012 160.139 62.796 160.139 62.544C160.139 62.292 160.229 62.082 160.409 61.914C160.589 61.734 160.811 61.644 161.075 61.644C161.339 61.644 161.561 61.728 161.741 61.896C161.921 62.064 162.011 62.274 162.011 62.526C162.011 62.79 161.921 63.012 161.741 63.192C161.573 63.372 161.351 63.462 161.075 63.462ZM168.249 75.09C167.361 75.09 166.677 74.85 166.197 74.37C165.717 73.89 165.477 73.212 165.477 72.336V63.462H166.755V72.264C166.755 72.816 166.893 73.242 167.169 73.542C167.457 73.842 167.865 73.992 168.393 73.992C168.957 73.992 169.425 73.83 169.797 73.506L170.247 74.424C169.995 74.652 169.689 74.82 169.329 74.928C168.981 75.036 168.621 75.09 168.249 75.09ZM163.785 66.612V65.55H169.635V66.612H163.785ZM172.469 78.582C172.025 78.582 171.599 78.51 171.191 78.366C170.795 78.222 170.453 78.006 170.165 77.718L170.759 76.764C170.999 76.992 171.257 77.166 171.533 77.286C171.821 77.418 172.139 77.484 172.487 77.484C172.907 77.484 173.267 77.364 173.567 77.124C173.879 76.896 174.173 76.488 174.449 75.9L175.061 74.514L175.205 74.316L179.093 65.55H180.353L175.619 76.134C175.355 76.746 175.061 77.232 174.737 77.592C174.425 77.952 174.083 78.204 173.711 78.348C173.339 78.504 172.925 78.582 172.469 78.582ZM174.989 75.27L170.633 65.55H171.965L175.817 74.226L174.989 75.27Z" fill="black"/>
<path d="M8.368 23L0.976 6.2H3.568L10.36 21.704H8.872L15.712 6.2H18.112L10.744 23H8.368ZM24.6214 23.144C23.2614 23.144 22.0614 22.864 21.0214 22.304C19.9974 21.744 19.1974 20.976 18.6214 20C18.0614 19.024 17.7814 17.904 17.7814 16.64C17.7814 15.376 18.0534 14.256 18.5974 13.28C19.1574 12.304 19.9174 11.544 20.8774 11C21.8534 10.44 22.9494 10.16 24.1654 10.16C25.3974 10.16 26.4854 10.432 27.4294 10.976C28.3734 11.52 29.1094 12.288 29.6374 13.28C30.1814 14.256 30.4534 15.4 30.4534 16.712C30.4534 16.808 30.4454 16.92 30.4294 17.048C30.4294 17.176 30.4214 17.296 30.4054 17.408H19.5814V15.752H29.2054L28.2694 16.328C28.2854 15.512 28.1174 14.784 27.7654 14.144C27.4134 13.504 26.9254 13.008 26.3014 12.656C25.6934 12.288 24.9814 12.104 24.1654 12.104C23.3654 12.104 22.6534 12.288 22.0294 12.656C21.4054 13.008 20.9174 13.512 20.5654 14.168C20.2134 14.808 20.0374 15.544 20.0374 16.376V16.76C20.0374 17.608 20.2294 18.368 20.6134 19.04C21.0134 19.696 21.5654 20.208 22.2694 20.576C22.9734 20.944 23.7814 21.128 24.6934 21.128C25.4454 21.128 26.1254 21 26.7334 20.744C27.3574 20.488 27.9014 20.104 28.3654 19.592L29.6374 21.08C29.0614 21.752 28.3414 22.264 27.4774 22.616C26.6294 22.968 25.6774 23.144 24.6214 23.144ZM33.6528 23V10.28H35.8608V13.736L35.6448 12.872C35.9968 11.992 36.5888 11.32 37.4208 10.856C38.2528 10.392 39.2768 10.16 40.4928 10.16V12.392C40.3968 12.376 40.3008 12.368 40.2048 12.368C40.1248 12.368 40.0448 12.368 39.9648 12.368C38.7328 12.368 37.7568 12.736 37.0368 13.472C36.3168 14.208 35.9568 15.272 35.9568 16.664V23H33.6528ZM48.2161 23.144C46.9361 23.144 45.9441 22.8 45.2401 22.112C44.5361 21.424 44.1841 20.44 44.1841 19.16V7.496H46.4881V19.064C46.4881 19.752 46.6561 20.28 46.9921 20.648C47.3441 21.016 47.8401 21.2 48.4801 21.2C49.2001 21.2 49.8001 21 50.2801 20.6L51.0001 22.256C50.6481 22.56 50.2241 22.784 49.7281 22.928C49.2481 23.072 48.7441 23.144 48.2161 23.144ZM42.0241 12.176V10.28H50.1361V12.176H42.0241ZM53.7856 23V10.28H56.0896V23H53.7856ZM54.9376 7.832C54.4896 7.832 54.1136 7.688 53.8096 7.4C53.5216 7.112 53.3776 6.76 53.3776 6.344C53.3776 5.912 53.5216 5.552 53.8096 5.264C54.1136 4.976 54.4896 4.832 54.9376 4.832C55.3856 4.832 55.7536 4.976 56.0416 5.264C56.3456 5.536 56.4976 5.88 56.4976 6.296C56.4976 6.728 56.3536 7.096 56.0656 7.4C55.7776 7.688 55.4016 7.832 54.9376 7.832ZM66.0327 23.144C64.7367 23.144 63.5767 22.864 62.5527 22.304C61.5447 21.744 60.7527 20.976 60.1767 20C59.6007 19.024 59.3127 17.904 59.3127 16.64C59.3127 15.376 59.6007 14.256 60.1767 13.28C60.7527 12.304 61.5447 11.544 62.5527 11C63.5767 10.44 64.7367 10.16 66.0327 10.16C67.1847 10.16 68.2087 10.392 69.1047 10.856C70.0167 11.304 70.7207 11.976 71.2167 12.872L69.4647 14C69.0487 13.376 68.5367 12.92 67.9287 12.632C67.3367 12.328 66.6967 12.176 66.0087 12.176C65.1767 12.176 64.4327 12.36 63.7767 12.728C63.1207 13.096 62.6007 13.616 62.2167 14.288C61.8327 14.944 61.6407 15.728 61.6407 16.64C61.6407 17.552 61.8327 18.344 62.2167 19.016C62.6007 19.688 63.1207 20.208 63.7767 20.576C64.4327 20.944 65.1767 21.128 66.0087 21.128C66.6967 21.128 67.3367 20.984 67.9287 20.696C68.5367 20.392 69.0487 19.928 69.4647 19.304L71.2167 20.408C70.7207 21.288 70.0167 21.968 69.1047 22.448C68.2087 22.912 67.1847 23.144 66.0327 23.144ZM82.0956 23V20.312L81.9756 19.808V15.224C81.9756 14.248 81.6876 13.496 81.1116 12.968C80.5516 12.424 79.7036 12.152 78.5676 12.152C77.8156 12.152 77.0796 12.28 76.3596 12.536C75.6396 12.776 75.0316 13.104 74.5356 13.52L73.5756 11.792C74.2316 11.264 75.0156 10.864 75.9276 10.592C76.8556 10.304 77.8236 10.16 78.8316 10.16C80.5756 10.16 81.9196 10.584 82.8636 11.432C83.8076 12.28 84.2796 13.576 84.2796 15.32V23H82.0956ZM77.9196 23.144C76.9756 23.144 76.1436 22.984 75.4236 22.664C74.7196 22.344 74.1756 21.904 73.7916 21.344C73.4076 20.768 73.2156 20.12 73.2156 19.4C73.2156 18.712 73.3756 18.088 73.6956 17.528C74.0316 16.968 74.5676 16.52 75.3036 16.184C76.0556 15.848 77.0636 15.68 78.3276 15.68H82.3596V17.336H78.4236C77.2716 17.336 76.4956 17.528 76.0956 17.912C75.6956 18.296 75.4956 18.76 75.4956 19.304C75.4956 19.928 75.7436 20.432 76.2396 20.816C76.7356 21.184 77.4236 21.368 78.3036 21.368C79.1676 21.368 79.9196 21.176 80.5596 20.792C81.2156 20.408 81.6876 19.848 81.9756 19.112L82.4316 20.696C82.1276 21.448 81.5916 22.048 80.8236 22.496C80.0556 22.928 79.0876 23.144 77.9196 23.144ZM88.5434 23V5.192H90.8474V23H88.5434ZM98.8945 23.144C97.8385 23.144 96.8305 23 95.8705 22.712C94.9265 22.424 94.1825 22.072 93.6385 21.656L94.5985 19.832C95.1425 20.2 95.8145 20.512 96.6145 20.768C97.4145 21.024 98.2305 21.152 99.0625 21.152C100.135 21.152 100.903 21 101.367 20.696C101.847 20.392 102.087 19.968 102.087 19.424C102.087 19.024 101.943 18.712 101.655 18.488C101.367 18.264 100.983 18.096 100.503 17.984C100.039 17.872 99.5185 17.776 98.9425 17.696C98.3665 17.6 97.7905 17.488 97.2145 17.36C96.6385 17.216 96.1105 17.024 95.6305 16.784C95.1505 16.528 94.7665 16.184 94.4785 15.752C94.1905 15.304 94.0465 14.712 94.0465 13.976C94.0465 13.208 94.2625 12.536 94.6945 11.96C95.1265 11.384 95.7345 10.944 96.5185 10.64C97.3185 10.32 98.2625 10.16 99.3505 10.16C100.183 10.16 101.023 10.264 101.871 10.472C102.735 10.664 103.439 10.944 103.983 11.312L102.999 13.136C102.423 12.752 101.823 12.488 101.199 12.344C100.575 12.2 99.9505 12.128 99.3265 12.128C98.3185 12.128 97.5665 12.296 97.0705 12.632C96.5745 12.952 96.3265 13.368 96.3265 13.88C96.3265 14.312 96.4705 14.648 96.7585 14.888C97.0625 15.112 97.4465 15.288 97.9105 15.416C98.3905 15.544 98.9185 15.656 99.4945 15.752C100.071 15.832 100.647 15.944 101.223 16.088C101.799 16.216 102.319 16.4 102.783 16.64C103.263 16.88 103.647 17.216 103.935 17.648C104.239 18.08 104.391 18.656 104.391 19.376C104.391 20.144 104.167 20.808 103.719 21.368C103.271 21.928 102.639 22.368 101.823 22.688C101.007 22.992 100.031 23.144 98.8945 23.144ZM119.163 23.144C117.883 23.144 116.747 22.864 115.755 22.304C114.763 21.744 113.979 20.976 113.403 20C112.827 19.008 112.539 17.888 112.539 16.64C112.539 15.376 112.827 14.256 113.403 13.28C113.979 12.304 114.763 11.544 115.755 11C116.747 10.44 117.883 10.16 119.163 10.16C120.427 10.16 121.555 10.44 122.547 11C123.555 11.544 124.339 12.304 124.899 13.28C125.475 14.24 125.763 15.36 125.763 16.64C125.763 17.904 125.475 19.024 124.899 20C124.339 20.976 123.555 21.744 122.547 22.304C121.555 22.864 120.427 23.144 119.163 23.144ZM119.163 21.128C119.979 21.128 120.707 20.944 121.347 20.576C122.003 20.208 122.515 19.688 122.883 19.016C123.251 18.328 123.435 17.536 123.435 16.64C123.435 15.728 123.251 14.944 122.883 14.288C122.515 13.616 122.003 13.096 121.347 12.728C120.707 12.36 119.979 12.176 119.163 12.176C118.347 12.176 117.619 12.36 116.979 12.728C116.339 13.096 115.827 13.616 115.443 14.288C115.059 14.944 114.867 15.728 114.867 16.64C114.867 17.536 115.059 18.328 115.443 19.016C115.827 19.688 116.339 20.208 116.979 20.576C117.619 20.944 118.347 21.128 119.163 21.128ZM129.286 23V9.152C129.286 7.904 129.646 6.912 130.366 6.176C131.102 5.424 132.142 5.048 133.486 5.048C133.982 5.048 134.454 5.112 134.902 5.24C135.366 5.352 135.758 5.536 136.078 5.792L135.382 7.544C135.142 7.352 134.87 7.208 134.566 7.112C134.262 7 133.942 6.944 133.606 6.944C132.934 6.944 132.422 7.136 132.07 7.52C131.718 7.888 131.542 8.44 131.542 9.176V10.88L131.59 11.936V23H129.286ZM127.126 12.176V10.28H135.238V12.176H127.126ZM147.504 23.144C146.448 23.144 145.44 23 144.48 22.712C143.536 22.424 142.792 22.072 142.248 21.656L143.208 19.832C143.752 20.2 144.424 20.512 145.224 20.768C146.024 21.024 146.84 21.152 147.672 21.152C148.744 21.152 149.512 21 149.976 20.696C150.456 20.392 150.696 19.968 150.696 19.424C150.696 19.024 150.552 18.712 150.264 18.488C149.976 18.264 149.592 18.096 149.112 17.984C148.648 17.872 148.128 17.776 147.552 17.696C146.976 17.6 146.4 17.488 145.824 17.36C145.248 17.216 144.72 17.024 144.24 16.784C143.76 16.528 143.376 16.184 143.088 15.752C142.8 15.304 142.656 14.712 142.656 13.976C142.656 13.208 142.872 12.536 143.304 11.96C143.736 11.384 144.344 10.944 145.128 10.64C145.928 10.32 146.872 10.16 147.96 10.16C148.792 10.16 149.632 10.264 150.48 10.472C151.344 10.664 152.048 10.944 152.592 11.312L151.608 13.136C151.032 12.752 150.432 12.488 149.808 12.344C149.184 12.2 148.56 12.128 147.936 12.128C146.928 12.128 146.176 12.296 145.68 12.632C145.184 12.952 144.936 13.368 144.936 13.88C144.936 14.312 145.08 14.648 145.368 14.888C145.672 15.112 146.056 15.288 146.52 15.416C147 15.544 147.528 15.656 148.104 15.752C148.68 15.832 149.256 15.944 149.832 16.088C150.408 16.216 150.928 16.4 151.392 16.64C151.872 16.88 152.256 17.216 152.544 17.648C152.848 18.08 153 18.656 153 19.376C153 20.144 152.776 20.808 152.328 21.368C151.88 21.928 151.248 22.368 150.432 22.688C149.616 22.992 148.64 23.144 147.504 23.144ZM161.231 23.144C160.143 23.144 159.183 22.944 158.351 22.544C157.535 22.144 156.895 21.536 156.431 20.72C155.983 19.888 155.759 18.848 155.759 17.6V10.28H158.063V17.336C158.063 18.584 158.359 19.52 158.951 20.144C159.559 20.768 160.407 21.08 161.495 21.08C162.295 21.08 162.991 20.92 163.583 20.6C164.175 20.264 164.631 19.784 164.951 19.16C165.271 18.52 165.431 17.752 165.431 16.856V10.28H167.735V23H165.551V19.568L165.911 20.48C165.495 21.328 164.871 21.984 164.039 22.448C163.207 22.912 162.271 23.144 161.231 23.144ZM177.666 23.144C176.37 23.144 175.21 22.864 174.186 22.304C173.178 21.744 172.386 20.976 171.81 20C171.234 19.024 170.946 17.904 170.946 16.64C170.946 15.376 171.234 14.256 171.81 13.28C172.386 12.304 173.178 11.544 174.186 11C175.21 10.44 176.37 10.16 177.666 10.16C178.818 10.16 179.842 10.392 180.738 10.856C181.65 11.304 182.354 11.976 182.85 12.872L181.098 14C180.682 13.376 180.17 12.92 179.562 12.632C178.97 12.328 178.33 12.176 177.642 12.176C176.81 12.176 176.066 12.36 175.41 12.728C174.754 13.096 174.234 13.616 173.85 14.288C173.466 14.944 173.274 15.728 173.274 16.64C173.274 17.552 173.466 18.344 173.85 19.016C174.234 19.688 174.754 20.208 175.41 20.576C176.066 20.944 176.81 21.128 177.642 21.128C178.33 21.128 178.97 20.984 179.562 20.696C180.17 20.392 180.682 19.928 181.098 19.304L182.85 20.408C182.354 21.288 181.65 21.968 180.738 22.448C179.842 22.912 178.818 23.144 177.666 23.144ZM191.189 23.144C189.893 23.144 188.733 22.864 187.709 22.304C186.701 21.744 185.909 20.976 185.333 20C184.757 19.024 184.469 17.904 184.469 16.64C184.469 15.376 184.757 14.256 185.333 13.28C185.909 12.304 186.701 11.544 187.709 11C188.733 10.44 189.893 10.16 191.189 10.16C192.341 10.16 193.365 10.392 194.261 10.856C195.173 11.304 195.877 11.976 196.373 12.872L194.621 14C194.205 13.376 193.693 12.92 193.085 12.632C192.493 12.328 191.853 12.176 191.165 12.176C190.333 12.176 189.589 12.36 188.933 12.728C188.277 13.096 187.757 13.616 187.373 14.288C186.989 14.944 186.797 15.728 186.797 16.64C186.797 17.552 186.989 18.344 187.373 19.016C187.757 19.688 188.277 20.208 188.933 20.576C189.589 20.944 190.333 21.128 191.165 21.128C191.853 21.128 192.493 20.984 193.085 20.696C193.693 20.392 194.205 19.928 194.621 19.304L196.373 20.408C195.877 21.288 195.173 21.968 194.261 22.448C193.365 22.912 192.341 23.144 191.189 23.144ZM204.832 23.144C203.472 23.144 202.272 22.864 201.232 22.304C200.208 21.744 199.408 20.976 198.832 20C198.272 19.024 197.992 17.904 197.992 16.64C197.992 15.376 198.264 14.256 198.808 13.28C199.368 12.304 200.128 11.544 201.088 11C202.064 10.44 203.16 10.16 204.376 10.16C205.608 10.16 206.696 10.432 207.64 10.976C208.584 11.52 209.32 12.288 209.848 13.28C210.392 14.256 210.664 15.4 210.664 16.712C210.664 16.808 210.656 16.92 210.64 17.048C210.64 17.176 210.632 17.296 210.616 17.408H199.792V15.752H209.416L208.48 16.328C208.496 15.512 208.328 14.784 207.976 14.144C207.624 13.504 207.136 13.008 206.512 12.656C205.904 12.288 205.192 12.104 204.376 12.104C203.576 12.104 202.864 12.288 202.24 12.656C201.616 13.008 201.128 13.512 200.776 14.168C200.424 14.808 200.248 15.544 200.248 16.376V16.76C200.248 17.608 200.44 18.368 200.824 19.04C201.224 19.696 201.776 20.208 202.48 20.576C203.184 20.944 203.992 21.128 204.904 21.128C205.656 21.128 206.336 21 206.944 20.744C207.568 20.488 208.112 20.104 208.576 19.592L209.848 21.08C209.272 21.752 208.552 22.264 207.688 22.616C206.84 22.968 205.888 23.144 204.832 23.144ZM217.512 23.144C216.456 23.144 215.448 23 214.488 22.712C213.544 22.424 212.8 22.072 212.256 21.656L213.216 19.832C213.76 20.2 214.432 20.512 215.232 20.768C216.032 21.024 216.848 21.152 217.68 21.152C218.752 21.152 219.52 21 219.984 20.696C220.464 20.392 220.704 19.968 220.704 19.424C220.704 19.024 220.56 18.712 220.272 18.488C219.984 18.264 219.6 18.096 219.12 17.984C218.656 17.872 218.136 17.776 217.56 17.696C216.984 17.6 216.408 17.488 215.832 17.36C215.256 17.216 214.728 17.024 214.248 16.784C213.768 16.528 213.384 16.184 213.096 15.752C212.808 15.304 212.664 14.712 212.664 13.976C212.664 13.208 212.88 12.536 213.312 11.96C213.744 11.384 214.352 10.944 215.136 10.64C215.936 10.32 216.88 10.16 217.968 10.16C218.8 10.16 219.64 10.264 220.488 10.472C221.352 10.664 222.056 10.944 222.6 11.312L221.616 13.136C221.04 12.752 220.44 12.488 219.816 12.344C219.192 12.2 218.568 12.128 217.944 12.128C216.936 12.128 216.184 12.296 215.688 12.632C215.192 12.952 214.944 13.368 214.944 13.88C214.944 14.312 215.088 14.648 215.376 14.888C215.68 15.112 216.064 15.288 216.528 15.416C217.008 15.544 217.536 15.656 218.112 15.752C218.688 15.832 219.264 15.944 219.84 16.088C220.416 16.216 220.936 16.4 221.4 16.64C221.88 16.88 222.264 17.216 222.552 17.648C222.856 18.08 223.008 18.656 223.008 19.376C223.008 20.144 222.784 20.808 222.336 21.368C221.888 21.928 221.256 22.368 220.44 22.688C219.624 22.992 218.648 23.144 217.512 23.144ZM229.535 23.144C228.479 23.144 227.471 23 226.511 22.712C225.567 22.424 224.823 22.072 224.279 21.656L225.239 19.832C225.783 20.2 226.455 20.512 227.255 20.768C228.055 21.024 228.871 21.152 229.703 21.152C230.775 21.152 231.543 21 232.007 20.696C232.487 20.392 232.727 19.968 232.727 19.424C232.727 19.024 232.583 18.712 232.295 18.488C232.007 18.264 231.623 18.096 231.143 17.984C230.679 17.872 230.159 17.776 229.583 17.696C229.007 17.6 228.431 17.488 227.855 17.36C227.279 17.216 226.751 17.024 226.271 16.784C225.791 16.528 225.407 16.184 225.119 15.752C224.831 15.304 224.687 14.712 224.687 13.976C224.687 13.208 224.903 12.536 225.335 11.96C225.767 11.384 226.375 10.944 227.159 10.64C227.959 10.32 228.903 10.16 229.991 10.16C230.823 10.16 231.663 10.264 232.511 10.472C233.375 10.664 234.079 10.944 234.623 11.312L233.639 13.136C233.063 12.752 232.463 12.488 231.839 12.344C231.215 12.2 230.591 12.128 229.967 12.128C228.959 12.128 228.207 12.296 227.711 12.632C227.215 12.952 226.967 13.368 226.967 13.88C226.967 14.312 227.111 14.648 227.399 14.888C227.703 15.112 228.087 15.288 228.551 15.416C229.031 15.544 229.559 15.656 230.135 15.752C230.711 15.832 231.287 15.944 231.863 16.088C232.439 16.216 232.959 16.4 233.423 16.64C233.903 16.88 234.287 17.216 234.575 17.648C234.879 18.08 235.031 18.656 235.031 19.376C235.031 20.144 234.807 20.808 234.359 21.368C233.911 21.928 233.279 22.368 232.463 22.688C231.647 22.992 230.671 23.144 229.535 23.144Z" fill="#9D3A21"/>
<path d="M123.524 125.108C122.576 125.108 121.7 124.952 120.896 124.64C120.092 124.316 119.396 123.866 118.808 123.29C118.22 122.714 117.758 122.036 117.422 121.256C117.098 120.476 116.936 119.624 116.936 118.7C116.936 117.776 117.098 116.924 117.422 116.144C117.758 115.364 118.22 114.686 118.808 114.11C119.408 113.534 120.11 113.09 120.914 112.778C121.718 112.454 122.594 112.292 123.542 112.292C124.454 112.292 125.312 112.448 126.116 112.76C126.92 113.06 127.598 113.516 128.15 114.128L127.304 114.974C126.788 114.446 126.218 114.068 125.594 113.84C124.97 113.6 124.298 113.48 123.578 113.48C122.822 113.48 122.12 113.612 121.472 113.876C120.824 114.128 120.26 114.494 119.78 114.974C119.3 115.442 118.922 115.994 118.646 116.63C118.382 117.254 118.25 117.944 118.25 118.7C118.25 119.456 118.382 120.152 118.646 120.788C118.922 121.412 119.3 121.964 119.78 122.444C120.26 122.912 120.824 123.278 121.472 123.542C122.12 123.794 122.822 123.92 123.578 123.92C124.298 123.92 124.97 123.8 125.594 123.56C126.218 123.32 126.788 122.936 127.304 122.408L128.15 123.254C127.598 123.866 126.92 124.328 126.116 124.64C125.312 124.952 124.448 125.108 123.524 125.108ZM134.15 125.09C133.238 125.09 132.416 124.886 131.684 124.478C130.964 124.058 130.394 123.488 129.974 122.768C129.554 122.036 129.344 121.202 129.344 120.266C129.344 119.318 129.554 118.484 129.974 117.764C130.394 117.044 130.964 116.48 131.684 116.072C132.404 115.664 133.226 115.46 134.15 115.46C135.086 115.46 135.914 115.664 136.634 116.072C137.366 116.48 137.936 117.044 138.344 117.764C138.764 118.484 138.974 119.318 138.974 120.266C138.974 121.202 138.764 122.036 138.344 122.768C137.936 123.488 137.366 124.058 136.634 124.478C135.902 124.886 135.074 125.09 134.15 125.09ZM134.15 123.956C134.834 123.956 135.44 123.806 135.968 123.506C136.496 123.194 136.91 122.762 137.21 122.21C137.522 121.646 137.678 120.998 137.678 120.266C137.678 119.522 137.522 118.874 137.21 118.322C136.91 117.77 136.496 117.344 135.968 117.044C135.44 116.732 134.84 116.576 134.168 116.576C133.496 116.576 132.896 116.732 132.368 117.044C131.84 117.344 131.42 117.77 131.108 118.322C130.796 118.874 130.64 119.522 130.64 120.266C130.64 120.998 130.796 121.646 131.108 122.21C131.42 122.762 131.84 123.194 132.368 123.506C132.896 123.806 133.49 123.956 134.15 123.956ZM146.407 115.46C147.175 115.46 147.847 115.61 148.423 115.91C149.011 116.198 149.467 116.642 149.791 117.242C150.127 117.842 150.295 118.598 150.295 119.51V125H149.017V119.636C149.017 118.64 148.765 117.89 148.261 117.386C147.769 116.87 147.073 116.612 146.173 116.612C145.501 116.612 144.913 116.75 144.409 117.026C143.917 117.29 143.533 117.68 143.257 118.196C142.993 118.7 142.861 119.312 142.861 120.032V125H141.583V115.55H142.807V118.142L142.609 117.656C142.909 116.972 143.389 116.438 144.049 116.054C144.709 115.658 145.495 115.46 146.407 115.46ZM156.285 125.09C155.505 125.09 154.767 124.982 154.071 124.766C153.375 124.538 152.829 124.256 152.433 123.92L153.009 122.912C153.393 123.2 153.885 123.452 154.485 123.668C155.085 123.872 155.715 123.974 156.375 123.974C157.275 123.974 157.923 123.836 158.319 123.56C158.715 123.272 158.913 122.894 158.913 122.426C158.913 122.078 158.799 121.808 158.571 121.616C158.355 121.412 158.067 121.262 157.707 121.166C157.347 121.058 156.945 120.968 156.501 120.896C156.057 120.824 155.613 120.74 155.169 120.644C154.737 120.548 154.341 120.41 153.981 120.23C153.621 120.038 153.327 119.78 153.099 119.456C152.883 119.132 152.775 118.7 152.775 118.16C152.775 117.644 152.919 117.182 153.207 116.774C153.495 116.366 153.915 116.048 154.467 115.82C155.031 115.58 155.715 115.46 156.519 115.46C157.131 115.46 157.743 115.544 158.355 115.712C158.967 115.868 159.471 116.078 159.867 116.342L159.309 117.368C158.889 117.08 158.439 116.876 157.959 116.756C157.479 116.624 156.999 116.558 156.519 116.558C155.667 116.558 155.037 116.708 154.629 117.008C154.233 117.296 154.035 117.668 154.035 118.124C154.035 118.484 154.143 118.766 154.359 118.97C154.587 119.174 154.881 119.336 155.241 119.456C155.613 119.564 156.015 119.654 156.447 119.726C156.891 119.798 157.329 119.888 157.761 119.996C158.205 120.092 158.607 120.23 158.967 120.41C159.339 120.578 159.633 120.824 159.849 121.148C160.077 121.46 160.191 121.874 160.191 122.39C160.191 122.942 160.035 123.422 159.723 123.83C159.423 124.226 158.979 124.538 158.391 124.766C157.815 124.982 157.113 125.09 156.285 125.09ZM162.536 125V115.55H163.814V125H162.536ZM163.184 113.462C162.92 113.462 162.698 113.372 162.518 113.192C162.338 113.012 162.248 112.796 162.248 112.544C162.248 112.292 162.338 112.082 162.518 111.914C162.698 111.734 162.92 111.644 163.184 111.644C163.448 111.644 163.67 111.728 163.85 111.896C164.03 112.064 164.12 112.274 164.12 112.526C164.12 112.79 164.03 113.012 163.85 113.192C163.682 113.372 163.46 113.462 163.184 113.462ZM169.908 125.09C169.128 125.09 168.39 124.982 167.694 124.766C166.998 124.538 166.452 124.256 166.056 123.92L166.632 122.912C167.016 123.2 167.508 123.452 168.108 123.668C168.708 123.872 169.338 123.974 169.998 123.974C170.898 123.974 171.546 123.836 171.942 123.56C172.338 123.272 172.536 122.894 172.536 122.426C172.536 122.078 172.422 121.808 172.194 121.616C171.978 121.412 171.69 121.262 171.33 121.166C170.97 121.058 170.568 120.968 170.124 120.896C169.68 120.824 169.236 120.74 168.792 120.644C168.36 120.548 167.964 120.41 167.604 120.23C167.244 120.038 166.95 119.78 166.722 119.456C166.506 119.132 166.398 118.7 166.398 118.16C166.398 117.644 166.542 117.182 166.83 116.774C167.118 116.366 167.538 116.048 168.09 115.82C168.654 115.58 169.338 115.46 170.142 115.46C170.754 115.46 171.366 115.544 171.978 115.712C172.59 115.868 173.094 116.078 173.49 116.342L172.932 117.368C172.512 117.08 172.062 116.876 171.582 116.756C171.102 116.624 170.622 116.558 170.142 116.558C169.29 116.558 168.66 116.708 168.252 117.008C167.856 117.296 167.658 117.668 167.658 118.124C167.658 118.484 167.766 118.766 167.982 118.97C168.21 119.174 168.504 119.336 168.864 119.456C169.236 119.564 169.638 119.654 170.07 119.726C170.514 119.798 170.952 119.888 171.384 119.996C171.828 120.092 172.23 120.23 172.59 120.41C172.962 120.578 173.256 120.824 173.472 121.148C173.7 121.46 173.814 121.874 173.814 122.39C173.814 122.942 173.658 123.422 173.346 123.83C173.046 124.226 172.602 124.538 172.014 124.766C171.438 124.982 170.736 125.09 169.908 125.09ZM179.147 125.09C178.259 125.09 177.575 124.85 177.095 124.37C176.615 123.89 176.375 123.212 176.375 122.336V113.462H177.653V122.264C177.653 122.816 177.791 123.242 178.067 123.542C178.355 123.842 178.763 123.992 179.291 123.992C179.855 123.992 180.323 123.83 180.695 123.506L181.145 124.424C180.893 124.652 180.587 124.82 180.227 124.928C179.879 125.036 179.519 125.09 179.147 125.09ZM174.683 116.612V115.55H180.533V116.612H174.683ZM189.393 125V122.912L189.339 122.57V119.078C189.339 118.274 189.111 117.656 188.655 117.224C188.211 116.792 187.545 116.576 186.657 116.576C186.045 116.576 185.463 116.678 184.911 116.882C184.359 117.086 183.891 117.356 183.507 117.692L182.931 116.738C183.411 116.33 183.987 116.018 184.659 115.802C185.331 115.574 186.039 115.46 186.783 115.46C188.007 115.46 188.949 115.766 189.609 116.378C190.281 116.978 190.617 117.896 190.617 119.132V125H189.393ZM186.135 125.09C185.427 125.09 184.809 124.976 184.281 124.748C183.765 124.508 183.369 124.184 183.093 123.776C182.817 123.356 182.679 122.876 182.679 122.336C182.679 121.844 182.793 121.4 183.021 121.004C183.261 120.596 183.645 120.272 184.173 120.032C184.713 119.78 185.433 119.654 186.333 119.654H189.591V120.608H186.369C185.457 120.608 184.821 120.77 184.461 121.094C184.113 121.418 183.939 121.82 183.939 122.3C183.939 122.84 184.149 123.272 184.569 123.596C184.989 123.92 185.577 124.082 186.333 124.082C187.053 124.082 187.671 123.92 188.187 123.596C188.715 123.26 189.099 122.78 189.339 122.156L189.627 123.038C189.387 123.662 188.967 124.16 188.367 124.532C187.779 124.904 187.035 125.09 186.135 125.09ZM198.913 115.46C199.681 115.46 200.353 115.61 200.929 115.91C201.517 116.198 201.973 116.642 202.297 117.242C202.633 117.842 202.801 118.598 202.801 119.51V125H201.523V119.636C201.523 118.64 201.271 117.89 200.767 117.386C200.275 116.87 199.579 116.612 198.679 116.612C198.007 116.612 197.419 116.75 196.915 117.026C196.423 117.29 196.039 117.68 195.763 118.196C195.499 118.7 195.367 119.312 195.367 120.032V125H194.089V115.55H195.313V118.142L195.115 117.656C195.415 116.972 195.895 116.438 196.555 116.054C197.215 115.658 198.001 115.46 198.913 115.46ZM210.177 125.09C209.241 125.09 208.401 124.886 207.657 124.478C206.925 124.058 206.349 123.488 205.929 122.768C205.509 122.036 205.299 121.202 205.299 120.266C205.299 119.318 205.509 118.484 205.929 117.764C206.349 117.044 206.925 116.48 207.657 116.072C208.401 115.664 209.241 115.46 210.177 115.46C210.981 115.46 211.707 115.616 212.355 115.928C213.003 116.24 213.513 116.708 213.885 117.332L212.931 117.98C212.607 117.5 212.205 117.146 211.725 116.918C211.245 116.69 210.723 116.576 210.159 116.576C209.487 116.576 208.881 116.732 208.341 117.044C207.801 117.344 207.375 117.77 207.063 118.322C206.751 118.874 206.595 119.522 206.595 120.266C206.595 121.01 206.751 121.658 207.063 122.21C207.375 122.762 207.801 123.194 208.341 123.506C208.881 123.806 209.487 123.956 210.159 123.956C210.723 123.956 211.245 123.842 211.725 123.614C212.205 123.386 212.607 123.038 212.931 122.57L213.885 123.218C213.513 123.83 213.003 124.298 212.355 124.622C211.707 124.934 210.981 125.09 210.177 125.09ZM216.327 128.582C215.883 128.582 215.457 128.51 215.049 128.366C214.653 128.222 214.311 128.006 214.023 127.718L214.617 126.764C214.857 126.992 215.115 127.166 215.391 127.286C215.679 127.418 215.997 127.484 216.345 127.484C216.765 127.484 217.125 127.364 217.425 127.124C217.737 126.896 218.031 126.488 218.307 125.9L218.919 124.514L219.063 124.316L222.951 115.55H224.211L219.477 126.134C219.213 126.746 218.919 127.232 218.595 127.592C218.283 127.952 217.941 128.204 217.569 128.348C217.197 128.504 216.783 128.582 216.327 128.582ZM218.847 125.27L214.491 115.55H215.823L219.675 124.226L218.847 125.27Z" fill="black"/>
<path d="M120.5 175V163.552H116.072V162.4H126.26V163.552H121.832V175H120.5ZM127.872 175V165.55H129.096V168.124L128.97 167.674C129.234 166.954 129.678 166.408 130.302 166.036C130.926 165.652 131.7 165.46 132.624 165.46V166.702C132.576 166.702 132.528 166.702 132.48 166.702C132.432 166.69 132.384 166.684 132.336 166.684C131.34 166.684 130.56 166.99 129.996 167.602C129.432 168.202 129.15 169.06 129.15 170.176V175H127.872ZM140.175 175V172.912L140.121 172.57V169.078C140.121 168.274 139.893 167.656 139.437 167.224C138.993 166.792 138.327 166.576 137.439 166.576C136.827 166.576 136.245 166.678 135.693 166.882C135.141 167.086 134.673 167.356 134.289 167.692L133.713 166.738C134.193 166.33 134.769 166.018 135.441 165.802C136.113 165.574 136.821 165.46 137.565 165.46C138.789 165.46 139.731 165.766 140.391 166.378C141.063 166.978 141.399 167.896 141.399 169.132V175H140.175ZM136.917 175.09C136.209 175.09 135.591 174.976 135.063 174.748C134.547 174.508 134.151 174.184 133.875 173.776C133.599 173.356 133.461 172.876 133.461 172.336C133.461 171.844 133.575 171.4 133.803 171.004C134.043 170.596 134.427 170.272 134.955 170.032C135.495 169.78 136.215 169.654 137.115 169.654H140.373V170.608H137.151C136.239 170.608 135.603 170.77 135.243 171.094C134.895 171.418 134.721 171.82 134.721 172.3C134.721 172.84 134.931 173.272 135.351 173.596C135.771 173.92 136.359 174.082 137.115 174.082C137.835 174.082 138.453 173.92 138.969 173.596C139.497 173.26 139.881 172.78 140.121 172.156L140.409 173.038C140.169 173.662 139.749 174.16 139.149 174.532C138.561 174.904 137.817 175.09 136.917 175.09ZM149.694 165.46C150.462 165.46 151.134 165.61 151.71 165.91C152.298 166.198 152.754 166.642 153.078 167.242C153.414 167.842 153.582 168.598 153.582 169.51V175H152.304V169.636C152.304 168.64 152.052 167.89 151.548 167.386C151.056 166.87 150.36 166.612 149.46 166.612C148.788 166.612 148.2 166.75 147.696 167.026C147.204 167.29 146.82 167.68 146.544 168.196C146.28 168.7 146.148 169.312 146.148 170.032V175H144.87V165.55H146.094V168.142L145.896 167.656C146.196 166.972 146.676 166.438 147.336 166.054C147.996 165.658 148.782 165.46 149.694 165.46ZM159.572 175.09C158.792 175.09 158.054 174.982 157.358 174.766C156.662 174.538 156.116 174.256 155.72 173.92L156.296 172.912C156.68 173.2 157.172 173.452 157.772 173.668C158.372 173.872 159.002 173.974 159.662 173.974C160.562 173.974 161.21 173.836 161.606 173.56C162.002 173.272 162.2 172.894 162.2 172.426C162.2 172.078 162.086 171.808 161.858 171.616C161.642 171.412 161.354 171.262 160.994 171.166C160.634 171.058 160.232 170.968 159.788 170.896C159.344 170.824 158.9 170.74 158.456 170.644C158.024 170.548 157.628 170.41 157.268 170.23C156.908 170.038 156.614 169.78 156.386 169.456C156.17 169.132 156.062 168.7 156.062 168.16C156.062 167.644 156.206 167.182 156.494 166.774C156.782 166.366 157.202 166.048 157.754 165.82C158.318 165.58 159.002 165.46 159.806 165.46C160.418 165.46 161.03 165.544 161.642 165.712C162.254 165.868 162.758 166.078 163.154 166.342L162.596 167.368C162.176 167.08 161.726 166.876 161.246 166.756C160.766 166.624 160.286 166.558 159.806 166.558C158.954 166.558 158.324 166.708 157.916 167.008C157.52 167.296 157.322 167.668 157.322 168.124C157.322 168.484 157.43 168.766 157.646 168.97C157.874 169.174 158.168 169.336 158.528 169.456C158.9 169.564 159.302 169.654 159.734 169.726C160.178 169.798 160.616 169.888 161.048 169.996C161.492 170.092 161.894 170.23 162.254 170.41C162.626 170.578 162.92 170.824 163.136 171.148C163.364 171.46 163.478 171.874 163.478 172.39C163.478 172.942 163.322 173.422 163.01 173.83C162.71 174.226 162.266 174.538 161.678 174.766C161.102 174.982 160.4 175.09 159.572 175.09ZM170.701 175.09C169.885 175.09 169.147 174.904 168.487 174.532C167.827 174.148 167.299 173.602 166.903 172.894C166.519 172.174 166.327 171.298 166.327 170.266C166.327 169.234 166.519 168.364 166.903 167.656C167.287 166.936 167.809 166.39 168.469 166.018C169.129 165.646 169.873 165.46 170.701 165.46C171.601 165.46 172.405 165.664 173.113 166.072C173.833 166.468 174.397 167.032 174.805 167.764C175.213 168.484 175.417 169.318 175.417 170.266C175.417 171.226 175.213 172.066 174.805 172.786C174.397 173.506 173.833 174.07 173.113 174.478C172.405 174.886 171.601 175.09 170.701 175.09ZM165.823 178.492V165.55H167.047V168.394L166.921 170.284L167.101 172.192V178.492H165.823ZM170.611 173.956C171.283 173.956 171.883 173.806 172.411 173.506C172.939 173.194 173.359 172.762 173.671 172.21C173.983 171.646 174.139 170.998 174.139 170.266C174.139 169.534 173.983 168.892 173.671 168.34C173.359 167.788 172.939 167.356 172.411 167.044C171.883 166.732 171.283 166.576 170.611 166.576C169.939 166.576 169.333 166.732 168.793 167.044C168.265 167.356 167.845 167.788 167.533 168.34C167.233 168.892 167.083 169.534 167.083 170.266C167.083 170.998 167.233 171.646 167.533 172.21C167.845 172.762 168.265 173.194 168.793 173.506C169.333 173.806 169.939 173.956 170.611 173.956ZM182.036 175.09C181.052 175.09 180.188 174.886 179.444 174.478C178.7 174.058 178.118 173.488 177.698 172.768C177.278 172.036 177.068 171.202 177.068 170.266C177.068 169.33 177.266 168.502 177.662 167.782C178.07 167.062 178.622 166.498 179.318 166.09C180.026 165.67 180.818 165.46 181.694 165.46C182.582 165.46 183.368 165.664 184.052 166.072C184.748 166.468 185.294 167.032 185.69 167.764C186.086 168.484 186.284 169.318 186.284 170.266C186.284 170.326 186.278 170.392 186.266 170.464C186.266 170.524 186.266 170.59 186.266 170.662H178.04V169.708H185.582L185.078 170.086C185.078 169.402 184.928 168.796 184.628 168.268C184.34 167.728 183.944 167.308 183.44 167.008C182.936 166.708 182.354 166.558 181.694 166.558C181.046 166.558 180.464 166.708 179.948 167.008C179.432 167.308 179.03 167.728 178.742 168.268C178.454 168.808 178.31 169.426 178.31 170.122V170.32C178.31 171.04 178.466 171.676 178.778 172.228C179.102 172.768 179.546 173.194 180.11 173.506C180.686 173.806 181.34 173.956 182.072 173.956C182.648 173.956 183.182 173.854 183.674 173.65C184.178 173.446 184.61 173.134 184.97 172.714L185.69 173.542C185.27 174.046 184.742 174.43 184.106 174.694C183.482 174.958 182.792 175.09 182.036 175.09ZM188.886 175V165.55H190.11V168.124L189.984 167.674C190.248 166.954 190.692 166.408 191.316 166.036C191.94 165.652 192.714 165.46 193.638 165.46V166.702C193.59 166.702 193.542 166.702 193.494 166.702C193.446 166.69 193.398 166.684 193.35 166.684C192.354 166.684 191.574 166.99 191.01 167.602C190.446 168.202 190.164 169.06 190.164 170.176V175H188.886ZM201.188 175V172.912L201.134 172.57V169.078C201.134 168.274 200.906 167.656 200.45 167.224C200.006 166.792 199.34 166.576 198.452 166.576C197.84 166.576 197.258 166.678 196.706 166.882C196.154 167.086 195.686 167.356 195.302 167.692L194.726 166.738C195.206 166.33 195.782 166.018 196.454 165.802C197.126 165.574 197.834 165.46 198.578 165.46C199.802 165.46 200.744 165.766 201.404 166.378C202.076 166.978 202.412 167.896 202.412 169.132V175H201.188ZM197.93 175.09C197.222 175.09 196.604 174.976 196.076 174.748C195.56 174.508 195.164 174.184 194.888 173.776C194.612 173.356 194.474 172.876 194.474 172.336C194.474 171.844 194.588 171.4 194.816 171.004C195.056 170.596 195.44 170.272 195.968 170.032C196.508 169.78 197.228 169.654 198.128 169.654H201.386V170.608H198.164C197.252 170.608 196.616 170.77 196.256 171.094C195.908 171.418 195.734 171.82 195.734 172.3C195.734 172.84 195.944 173.272 196.364 173.596C196.784 173.92 197.372 174.082 198.128 174.082C198.848 174.082 199.466 173.92 199.982 173.596C200.51 173.26 200.894 172.78 201.134 172.156L201.422 173.038C201.182 173.662 200.762 174.16 200.162 174.532C199.574 174.904 198.83 175.09 197.93 175.09ZM210.708 165.46C211.476 165.46 212.148 165.61 212.724 165.91C213.312 166.198 213.768 166.642 214.092 167.242C214.428 167.842 214.596 168.598 214.596 169.51V175H213.318V169.636C213.318 168.64 213.066 167.89 212.562 167.386C212.07 166.87 211.374 166.612 210.474 166.612C209.802 166.612 209.214 166.75 208.71 167.026C208.218 167.29 207.834 167.68 207.558 168.196C207.294 168.7 207.162 169.312 207.162 170.032V175H205.884V165.55H207.108V168.142L206.91 167.656C207.21 166.972 207.69 166.438 208.35 166.054C209.01 165.658 209.796 165.46 210.708 165.46ZM221.972 175.09C221.036 175.09 220.196 174.886 219.452 174.478C218.72 174.058 218.144 173.488 217.724 172.768C217.304 172.036 217.094 171.202 217.094 170.266C217.094 169.318 217.304 168.484 217.724 167.764C218.144 167.044 218.72 166.48 219.452 166.072C220.196 165.664 221.036 165.46 221.972 165.46C222.776 165.46 223.502 165.616 224.15 165.928C224.798 166.24 225.308 166.708 225.68 167.332L224.726 167.98C224.402 167.5 224 167.146 223.52 166.918C223.04 166.69 222.518 166.576 221.954 166.576C221.282 166.576 220.676 166.732 220.136 167.044C219.596 167.344 219.17 167.77 218.858 168.322C218.546 168.874 218.39 169.522 218.39 170.266C218.39 171.01 218.546 171.658 218.858 172.21C219.17 172.762 219.596 173.194 220.136 173.506C220.676 173.806 221.282 173.956 221.954 173.956C222.518 173.956 223.04 173.842 223.52 173.614C224 173.386 224.402 173.038 224.726 172.57L225.68 173.218C225.308 173.83 224.798 174.298 224.15 174.622C223.502 174.934 222.776 175.09 221.972 175.09ZM228.122 178.582C227.678 178.582 227.252 178.51 226.844 178.366C226.448 178.222 226.106 178.006 225.818 177.718L226.412 176.764C226.652 176.992 226.91 177.166 227.186 177.286C227.474 177.418 227.792 177.484 228.14 177.484C228.56 177.484 228.92 177.364 229.22 177.124C229.532 176.896 229.826 176.488 230.102 175.9L230.714 174.514L230.858 174.316L234.746 165.55H236.006L231.272 176.134C231.008 176.746 230.714 177.232 230.39 177.592C230.078 177.952 229.736 178.204 229.364 178.348C228.992 178.504 228.578 178.582 228.122 178.582ZM230.642 175.27L226.286 165.55H227.618L231.47 174.226L230.642 175.27Z" fill="black"/>
<g clip-path="url(#clip0_2002_63)">
<path d="M96.2935 164.218C94.7993 164.218 93.3455 163.791 92.0887 162.983C91.864 162.839 91.6435 162.681 91.4336 162.513L91.282 162.392L91.2799 162.39C91.2754 162.387 91.2706 162.383 91.2658 162.38C91.2619 162.377 91.258 162.374 91.2541 162.371C91.2496 162.368 91.245 162.366 91.2405 162.363C91.236 162.36 91.2312 162.357 91.2267 162.354C91.2225 162.351 91.2183 162.349 91.2141 162.347C91.2087 162.344 91.2035 162.341 91.1981 162.339L91.1957 162.337C91.1924 162.336 91.1888 162.334 91.1855 162.333C91.1801 162.33 91.1747 162.328 91.169 162.326C91.1644 162.324 91.1599 162.322 91.1551 162.32C91.1497 162.319 91.1446 162.317 91.1392 162.315C91.1341 162.313 91.1293 162.312 91.1241 162.31C91.119 162.309 91.1139 162.307 91.1091 162.306C91.1037 162.305 91.0986 162.304 91.0932 162.302C91.0884 162.302 91.0832 162.3 91.0784 162.299C91.073 162.299 91.0676 162.298 91.0622 162.297C91.0574 162.296 91.0523 162.296 91.0475 162.295C91.042 162.295 91.0366 162.294 91.0312 162.294C91.0261 162.294 91.021 162.293 91.0162 162.293C91.0111 162.293 91.0057 162.293 91.0005 162.293C90.9954 162.293 90.99 162.293 90.9849 162.293C90.9798 162.293 90.9747 162.294 90.9699 162.294C90.9644 162.294 90.959 162.295 90.9536 162.295C90.9488 162.296 90.9437 162.296 90.9389 162.297C90.9335 162.298 90.9281 162.299 90.9226 162.299C90.9178 162.3 90.9127 162.301 90.9079 162.302C90.9025 162.304 90.8974 162.305 90.892 162.306C90.8869 162.307 90.882 162.309 90.8769 162.31C90.8718 162.312 90.867 162.313 90.8619 162.315C90.8565 162.317 90.8514 162.318 90.846 162.32C90.8414 162.322 90.8366 162.324 90.8321 162.326C90.8264 162.328 90.821 162.33 90.8156 162.333C90.8123 162.334 90.8087 162.336 90.8053 162.337L90.8029 162.339C90.7975 162.341 90.7924 162.344 90.787 162.347C90.7828 162.349 90.7786 162.351 90.7747 162.354C90.7699 162.356 90.7654 162.359 90.7608 162.362C90.7563 162.365 90.7518 162.368 90.7473 162.371C90.7434 162.373 90.7395 162.376 90.7356 162.379C90.7308 162.383 90.726 162.386 90.7214 162.39L90.7193 162.391L90.4959 162.569C90.3684 162.669 90.2408 162.762 90.116 162.848C89.8703 163.017 89.6114 163.174 89.3467 163.314C89.0044 163.495 88.6469 163.651 88.2829 163.779C88.0784 163.851 87.8655 163.915 87.6508 163.971C87.0156 164.135 86.362 164.218 85.707 164.218C85.458 164.218 85.2559 164.42 85.2559 164.669V169V169.004C85.2559 169.53 85.3235 170.053 85.4565 170.558C85.5665 170.978 85.7229 171.389 85.9208 171.778C86.0736 172.078 86.252 172.367 86.4508 172.636C86.7332 173.019 87.0601 173.369 87.4225 173.675C87.7371 173.941 88.0808 174.177 88.4441 174.375L90.7843 175.652C90.7864 175.653 90.7888 175.654 90.7909 175.655C90.7948 175.657 90.799 175.659 90.8032 175.661C90.8081 175.664 90.8129 175.666 90.8177 175.668C90.8219 175.67 90.8258 175.671 90.83 175.673C90.8351 175.675 90.8399 175.677 90.845 175.679C90.8493 175.681 90.8532 175.682 90.8574 175.684C90.8625 175.685 90.8679 175.687 90.873 175.688C90.8772 175.69 90.8811 175.691 90.8853 175.692C90.8908 175.693 90.8962 175.695 90.9019 175.696C90.9058 175.697 90.9097 175.698 90.9136 175.699C90.9193 175.7 90.9254 175.701 90.9311 175.702C90.9347 175.702 90.9386 175.703 90.9422 175.703C90.9488 175.704 90.9551 175.705 90.9617 175.705C90.9647 175.705 90.9681 175.706 90.9711 175.706C90.9807 175.707 90.9903 175.707 90.9999 175.707C91.0096 175.707 91.0192 175.707 91.0288 175.706C91.0321 175.706 91.0351 175.705 91.0384 175.705C91.0447 175.705 91.0514 175.704 91.0577 175.703C91.0616 175.703 91.0652 175.702 91.0691 175.702C91.0748 175.701 91.0805 175.7 91.0863 175.699C91.0905 175.698 91.0944 175.697 91.0986 175.696C91.104 175.695 91.1091 175.694 91.1145 175.692C91.1187 175.691 91.1229 175.69 91.1275 175.689C91.1326 175.687 91.1377 175.686 91.1425 175.684C91.1467 175.683 91.1512 175.681 91.1554 175.68C91.1602 175.678 91.165 175.676 91.1699 175.674C91.1741 175.672 91.1786 175.67 91.1828 175.668C91.1876 175.666 91.1924 175.664 91.1969 175.662C91.2011 175.66 91.2054 175.658 91.2093 175.656C91.2114 175.654 91.2138 175.653 91.2159 175.652L93.556 174.376C94.3455 173.945 95.0162 173.36 95.5497 172.637C96.0117 172.01 96.3461 171.311 96.5434 170.559C96.6766 170.053 96.744 169.53 96.744 169.005V169V164.669C96.7446 164.42 96.5425 164.218 96.2935 164.218ZM86.1581 165.108C86.7374 165.078 87.313 164.99 87.8751 164.845C88.1148 164.783 88.3524 164.711 88.5807 164.631C88.9864 164.488 89.3858 164.314 89.7678 164.112C90.0357 163.97 90.2983 163.812 90.5491 163.644V168.549H86.1581V165.108ZM95.6712 170.329C95.5028 170.97 95.2177 171.566 94.824 172.101C94.3693 172.717 93.7972 173.216 93.1244 173.583L91.4514 174.496V169.451H95.8231C95.7978 169.748 95.747 170.041 95.6712 170.329Z" fill="#9D3A21"/>
<path d="M103 169C103 167.747 102.026 166.719 100.795 166.631C100.362 164.833 99.4436 163.195 98.1242 161.876C96.8048 160.556 95.1672 159.638 93.369 159.205C93.2812 157.974 92.2526 157 91 157C89.7474 157 88.7188 157.974 88.631 159.205C86.8328 159.638 85.1952 160.556 83.8758 161.876C82.5564 163.195 81.6379 164.833 81.2051 166.631C79.9744 166.719 79 167.747 79 169C79 170.253 79.9744 171.281 81.2051 171.369C81.6379 173.167 82.5564 174.805 83.8758 176.124C85.1952 177.444 86.8328 178.362 88.631 178.795C88.7188 180.026 89.7474 181 91 181C92.2526 181 93.2812 180.026 93.369 178.795C95.1672 178.362 96.8048 177.444 98.1242 176.124C99.4436 174.805 100.362 173.167 100.795 171.369C102.026 171.281 103 170.253 103 169ZM91 157.902C91.8126 157.902 92.4737 158.563 92.4737 159.376C92.4737 159.426 92.4713 159.475 92.4665 159.522C92.3922 160.279 91.7618 160.85 91 160.85C90.9287 160.85 90.8583 160.845 90.7895 160.835C90.1248 160.741 89.6006 160.208 89.5332 159.522C89.5284 159.475 89.5263 159.426 89.5263 159.376C89.5263 158.563 90.1874 157.902 91 157.902ZM79.9023 169C79.9023 168.187 80.5633 167.526 81.3759 167.526C81.4259 167.526 81.4749 167.529 81.5224 167.533C82.2791 167.608 82.8496 168.238 82.8496 169C82.8496 169.047 82.8475 169.095 82.843 169.141C82.8406 169.167 82.837 169.194 82.8334 169.22C82.7356 169.88 82.2048 170.399 81.5215 170.466C81.4749 170.471 81.4259 170.473 81.3759 170.473C80.5633 170.474 79.9023 169.813 79.9023 169ZM91 180.098C90.1874 180.098 89.5263 179.437 89.5263 178.624C89.5263 178.576 89.5287 178.527 89.5335 178.478C89.6081 177.721 90.2385 177.15 91 177.15C91.0238 177.15 91.0475 177.151 91.071 177.152C91.8003 177.187 92.394 177.744 92.4665 178.477C92.4713 178.527 92.4737 178.576 92.4737 178.624C92.4737 179.437 91.8126 180.098 91 180.098ZM93.2611 177.892C93.2586 177.885 93.2559 177.877 93.2532 177.869C93.2505 177.861 93.2475 177.853 93.2445 177.844C93.2355 177.818 93.2259 177.792 93.2159 177.766C93.2141 177.762 93.2126 177.757 93.2108 177.753C93.1991 177.723 93.1868 177.693 93.1738 177.664C93.1705 177.657 93.1669 177.649 93.1636 177.642C93.1531 177.618 93.1423 177.595 93.1308 177.573C93.1272 177.565 93.1236 177.558 93.12 177.551C93.1056 177.522 93.0905 177.494 93.0752 177.466C93.0725 177.461 93.0695 177.457 93.0668 177.452C93.0535 177.428 93.0397 177.405 93.0256 177.382C93.0208 177.374 93.0159 177.366 93.0111 177.359C92.9955 177.334 92.9796 177.31 92.9633 177.286C92.9615 177.283 92.9597 177.28 92.9579 177.278C92.9398 177.251 92.9209 177.225 92.9017 177.199C92.8962 177.192 92.8908 177.185 92.8857 177.178C92.8701 177.158 92.8541 177.138 92.8379 177.118C92.8331 177.112 92.8283 177.106 92.8232 177.1C92.8024 177.076 92.7814 177.051 92.7597 177.027C92.7552 177.022 92.7504 177.017 92.7456 177.012C92.7275 176.993 92.7095 176.974 92.6908 176.955C92.6845 176.949 92.6782 176.942 92.6716 176.936C92.6484 176.913 92.6247 176.89 92.6006 176.868C92.1618 176.468 91.5937 176.248 91 176.248C90.4063 176.248 89.8382 176.468 89.3997 176.868C89.3753 176.89 89.3519 176.913 89.3287 176.936C89.3224 176.942 89.3158 176.949 89.3095 176.955C89.2908 176.974 89.2725 176.993 89.2544 177.012C89.2499 177.017 89.2451 177.022 89.2406 177.027C89.2189 177.051 89.1979 177.076 89.1771 177.1C89.1723 177.106 89.1675 177.112 89.1627 177.118C89.1462 177.138 89.1302 177.158 89.1143 177.178C89.1092 177.185 89.1038 177.192 89.0986 177.199C89.0791 177.225 89.0602 177.251 89.0418 177.277C89.0403 177.279 89.0391 177.281 89.0376 177.284C89.0208 177.309 89.0042 177.334 88.9883 177.359C88.9838 177.366 88.9792 177.374 88.9747 177.381C88.96 177.405 88.9456 177.429 88.9314 177.454C88.9293 177.457 88.9272 177.461 88.9251 177.465C88.9092 177.494 88.8938 177.522 88.8791 177.552C88.8761 177.558 88.8731 177.564 88.8701 177.57C88.858 177.595 88.846 177.619 88.8349 177.644C88.8322 177.65 88.8295 177.656 88.8268 177.662C88.8132 177.693 88.8003 177.723 88.7883 177.754C88.7874 177.756 88.7868 177.758 88.7859 177.761C88.7747 177.789 88.7642 177.818 88.754 177.847C88.7519 177.854 88.7495 177.86 88.7474 177.867C88.7447 177.875 88.7414 177.884 88.7386 177.892C85.4725 177.068 82.9323 174.528 82.1077 171.261C82.1152 171.259 82.1224 171.256 82.1299 171.253C82.1387 171.25 82.1474 171.247 82.1561 171.244C82.182 171.235 82.2075 171.226 82.2331 171.216C82.2379 171.214 82.243 171.213 82.2478 171.211C82.2776 171.199 82.3068 171.187 82.3359 171.174C82.3438 171.17 82.3513 171.167 82.3588 171.163C82.3819 171.153 82.4048 171.142 82.4274 171.131C82.4349 171.127 82.4421 171.124 82.4496 171.12C82.4782 171.106 82.5062 171.091 82.5341 171.075C82.539 171.072 82.5438 171.069 82.5486 171.067C82.572 171.053 82.5955 171.04 82.6184 171.026C82.6262 171.021 82.6337 171.016 82.6415 171.011C82.6662 170.996 82.6908 170.979 82.7149 170.963C82.7176 170.961 82.72 170.96 82.7227 170.958C82.7492 170.939 82.775 170.921 82.8009 170.901C82.8078 170.896 82.8147 170.891 82.8217 170.885C82.8421 170.87 82.8623 170.853 82.8824 170.837C82.8884 170.832 82.8941 170.828 82.9001 170.823C82.9248 170.802 82.9492 170.781 82.9729 170.759C82.978 170.755 82.9829 170.75 82.988 170.746C83.0075 170.727 83.0265 170.709 83.0454 170.691C83.0517 170.684 83.0584 170.678 83.0647 170.672C83.0875 170.648 83.1104 170.625 83.1326 170.601C83.5317 170.162 83.7519 169.594 83.7519 169C83.7519 168.889 83.7441 168.778 83.729 168.67C83.6632 168.198 83.4568 167.756 83.1323 167.4L83.1314 167.399C83.1098 167.375 83.0875 167.352 83.065 167.329C83.0584 167.322 83.0517 167.315 83.0451 167.309C83.0265 167.29 83.0075 167.272 82.9886 167.255C82.9835 167.25 82.978 167.245 82.9729 167.24C82.9492 167.218 82.9251 167.198 82.9008 167.177C82.8944 167.172 82.8884 167.167 82.8821 167.161C82.8626 167.146 82.8427 167.13 82.8229 167.114C82.8156 167.109 82.8084 167.103 82.8009 167.097C82.7753 167.078 82.7498 167.06 82.7236 167.042C82.7203 167.039 82.7167 167.037 82.7134 167.035C82.6902 167.019 82.6668 167.003 82.643 166.989C82.6346 166.983 82.6265 166.978 82.6181 166.973C82.5961 166.959 82.5741 166.946 82.5519 166.934C82.5459 166.93 82.5399 166.927 82.5338 166.924C82.5068 166.909 82.4791 166.894 82.4514 166.88C82.443 166.875 82.4343 166.871 82.4259 166.867C82.4048 166.857 82.3835 166.847 82.3624 166.837C82.3534 166.833 82.3444 166.829 82.3353 166.825C82.3071 166.812 82.2788 166.8 82.2502 166.789C82.243 166.786 82.2361 166.783 82.2289 166.781C82.206 166.772 82.1832 166.764 82.16 166.755C82.1495 166.752 82.1392 166.748 82.1287 166.745C82.1221 166.743 82.1155 166.74 82.1089 166.738C82.9323 163.472 85.4722 160.932 88.7389 160.108C88.7414 160.115 88.7441 160.123 88.7465 160.13C88.7492 160.139 88.7522 160.147 88.7552 160.156C88.7642 160.182 88.7735 160.208 88.7835 160.233C88.7853 160.238 88.7871 160.243 88.7889 160.248C88.8006 160.277 88.8129 160.307 88.8259 160.336C88.8292 160.343 88.8328 160.351 88.8361 160.359C88.8466 160.382 88.8574 160.405 88.8686 160.427C88.8722 160.435 88.8758 160.442 88.8794 160.449C88.8938 160.478 88.9086 160.506 88.9242 160.534C88.9269 160.539 88.9299 160.543 88.9326 160.548C88.9459 160.572 88.9597 160.595 88.9738 160.618C88.9786 160.626 88.9835 160.634 88.9883 160.641C89.0039 160.666 89.0195 160.691 89.0361 160.715C89.0379 160.717 89.0397 160.72 89.0415 160.723C89.0595 160.749 89.0785 160.775 89.0977 160.801C89.1032 160.808 89.1086 160.815 89.114 160.822C89.1296 160.842 89.1456 160.862 89.1618 160.882C89.1666 160.888 89.1714 160.894 89.1765 160.9C89.197 160.925 89.2183 160.949 89.2397 160.973C89.2442 160.978 89.249 160.983 89.2538 160.988C89.2716 161.007 89.2899 161.026 89.3086 161.045C89.3149 161.051 89.3215 161.058 89.3278 161.064C89.351 161.087 89.3747 161.11 89.3988 161.132C89.8379 161.532 90.4063 161.752 91 161.752C91.1113 161.752 91.2217 161.744 91.3305 161.729C91.8021 161.663 92.2442 161.457 92.6003 161.132C92.6247 161.11 92.6481 161.088 92.6713 161.064C92.6776 161.058 92.6842 161.051 92.6905 161.045C92.7092 161.026 92.7275 161.007 92.7456 160.988C92.7501 160.983 92.7549 160.978 92.7594 160.973C92.7811 160.949 92.8021 160.925 92.8229 160.9C92.828 160.894 92.8328 160.888 92.8376 160.882C92.8538 160.862 92.8698 160.842 92.8851 160.822C92.8905 160.814 92.8962 160.808 92.9014 160.8C92.9206 160.775 92.9392 160.749 92.9573 160.723C92.9594 160.719 92.9615 160.716 92.9639 160.713C92.9798 160.689 92.9952 160.666 93.0105 160.642C93.0156 160.633 93.0208 160.625 93.0259 160.617C93.0394 160.595 93.0523 160.573 93.065 160.551C93.0683 160.545 93.0719 160.539 93.0755 160.533C93.0905 160.506 93.1053 160.478 93.1191 160.451C93.1236 160.442 93.1278 160.433 93.132 160.424C93.1423 160.404 93.1522 160.383 93.1618 160.361C93.166 160.352 93.1702 160.343 93.1744 160.334C93.1868 160.306 93.1988 160.278 93.2099 160.249C93.2129 160.242 93.2156 160.234 93.2183 160.227C93.2271 160.204 93.2352 160.182 93.2433 160.159C93.2469 160.149 93.2505 160.138 93.2541 160.127C93.2562 160.121 93.2586 160.114 93.2608 160.108C96.5275 160.933 99.0674 163.472 99.892 166.739C99.8845 166.741 99.877 166.744 99.8695 166.747C99.8608 166.75 99.8523 166.752 99.8439 166.755C99.818 166.764 99.7922 166.774 99.7663 166.784C99.7615 166.786 99.7567 166.787 99.7522 166.789C99.7224 166.801 99.6929 166.813 99.6638 166.826C99.6562 166.829 99.6484 166.833 99.6409 166.836C99.6177 166.847 99.5949 166.858 99.5723 166.869C99.5648 166.873 99.5576 166.876 99.5501 166.88C99.5218 166.894 99.4935 166.909 99.4656 166.925C99.4608 166.927 99.4556 166.93 99.4508 166.933C99.4274 166.946 99.4042 166.96 99.3814 166.974C99.3735 166.979 99.3657 166.984 99.3579 166.989C99.3332 167.004 99.3089 167.02 99.2848 167.036C99.2821 167.038 99.2794 167.04 99.2767 167.042C99.2502 167.06 99.2244 167.079 99.1988 167.098C99.1916 167.103 99.1847 167.109 99.1777 167.114C99.1573 167.13 99.1374 167.146 99.1176 167.162C99.1116 167.167 99.1056 167.172 99.0995 167.177C99.0749 167.198 99.0508 167.219 99.0268 167.24C99.0217 167.245 99.0168 167.25 99.0117 167.254C98.9925 167.273 98.9732 167.291 98.9543 167.309C98.948 167.316 98.9414 167.322 98.935 167.328C98.9119 167.352 98.8893 167.375 98.8671 167.399C98.4683 167.838 98.2481 168.406 98.2481 169C98.2481 169.594 98.4683 170.162 98.8677 170.6C98.8899 170.625 98.9125 170.648 98.9356 170.671C98.942 170.678 98.9486 170.684 98.9549 170.691C98.9738 170.709 98.9928 170.727 99.0123 170.746C99.0174 170.75 99.0223 170.755 99.0274 170.759C99.0511 170.781 99.0755 170.802 99.1002 170.823C99.1059 170.828 99.1119 170.832 99.1176 170.837C99.1377 170.854 99.1579 170.87 99.1786 170.886C99.1856 170.891 99.1922 170.896 99.1991 170.901C99.225 170.921 99.2511 170.94 99.2779 170.958C99.28 170.96 99.2821 170.961 99.2839 170.962C99.3089 170.98 99.3341 170.996 99.3594 171.012C99.3666 171.016 99.3738 171.021 99.3811 171.025C99.4054 171.04 99.4298 171.055 99.4544 171.069C99.458 171.071 99.4617 171.073 99.4653 171.075C99.4938 171.091 99.5227 171.106 99.5519 171.121C99.5579 171.124 99.5639 171.127 99.5699 171.13C99.5946 171.142 99.6195 171.154 99.6445 171.165C99.6505 171.168 99.6562 171.171 99.6623 171.174C99.6926 171.187 99.7233 171.2 99.7543 171.212C99.7564 171.213 99.7582 171.213 99.7603 171.214C99.7892 171.226 99.8183 171.236 99.8475 171.246C99.8538 171.248 99.8602 171.251 99.8668 171.253C99.8752 171.256 99.8836 171.259 99.8923 171.262C99.0677 174.527 96.5275 177.068 93.2611 177.892ZM100.624 170.474C100.576 170.474 100.527 170.471 100.478 170.466C99.7209 170.392 99.1504 169.762 99.1504 169C99.1504 168.976 99.151 168.952 99.1522 168.929C99.1865 168.2 99.7444 167.606 100.477 167.533C100.527 167.529 100.576 167.526 100.624 167.526C101.437 167.526 102.098 168.187 102.098 169C102.098 169.813 101.437 170.474 100.624 170.474Z" fill="#9D3A21"/>
<path d="M91 184C99.2843 184 106 177.284 106 169C106 160.716 99.2843 154 91 154C82.7157 154 76 160.716 76 169C76 177.284 82.7157 184 91 184Z" fill="#D25239" fill-opacity="0.2"/>
</g>
<g clip-path="url(#clip1_2002_63)">
<mask id="mask0_2002_63" style="mask-type:luminance" maskUnits="userSpaceOnUse" x="79" y="107" width="24" height="24">
<path d="M103 107H79V131H103V107Z" fill="white"/>
</mask>
<g mask="url(#mask0_2002_63)">
<path d="M89.875 110.073V109.317C87.6941 109.574 85.6633 110.558 84.1105 112.11C82.5577 113.663 81.5735 115.694 81.3169 117.875H82.0728C82.3254 115.894 83.2287 114.053 84.6408 112.641C86.0529 111.229 87.894 110.325 89.875 110.073ZM82.0728 120.125H81.3169C81.5735 122.306 82.5577 124.337 84.1105 125.889C85.6633 127.442 87.6941 128.426 89.875 128.683V127.927C87.894 127.675 86.0529 126.771 84.6408 125.359C83.2287 123.947 82.3254 122.106 82.0728 120.125ZM91 112.25C91.0995 112.25 91.1948 112.21 91.2652 112.14C91.3355 112.07 91.375 111.974 91.375 111.875V107.375C91.375 107.276 91.3355 107.18 91.2652 107.11C91.1948 107.04 91.0995 107 91 107C90.9005 107 90.8052 107.04 90.7348 107.11C90.6645 107.18 90.625 107.276 90.625 107.375V111.875C90.625 111.974 90.6645 112.07 90.7348 112.14C90.8052 112.21 90.9005 112.25 91 112.25ZM91 125.75C90.9005 125.75 90.8052 125.79 90.7348 125.86C90.6645 125.93 90.625 126.025 90.625 126.125V130.625C90.625 130.725 90.6645 130.82 90.7348 130.89C90.8052 130.96 90.9005 131 91 131C91.0995 131 91.1948 130.96 91.2652 130.89C91.3355 130.82 91.375 130.725 91.375 130.625V126.125C91.375 126.025 91.3355 125.93 91.2652 125.86C91.1948 125.79 91.0995 125.75 91 125.75ZM102.625 118.625H98.125C98.0255 118.625 97.9302 118.665 97.8598 118.735C97.7895 118.805 97.75 118.9 97.75 119C97.75 119.1 97.7895 119.195 97.8598 119.265C97.9302 119.335 98.0255 119.375 98.125 119.375H102.625C102.725 119.375 102.82 119.335 102.89 119.265C102.96 119.195 103 119.1 103 119C103 118.9 102.96 118.805 102.89 118.735C102.82 118.665 102.725 118.625 102.625 118.625ZM84.25 119C84.25 118.9 84.2105 118.805 84.1402 118.735C84.0698 118.665 83.9744 118.625 83.875 118.625H79.375C79.2755 118.625 79.1802 118.665 79.1098 118.735C79.0395 118.805 79 118.9 79 119C79 119.1 79.0395 119.195 79.1098 119.265C79.1802 119.335 79.2755 119.375 79.375 119.375H83.875C83.9744 119.375 84.0698 119.335 84.1402 119.265C84.2105 119.195 84.25 119.1 84.25 119ZM94.1329 114.331C92.9732 113.551 91.5651 113.229 90.1819 113.429C88.7986 113.628 87.5387 114.334 86.6465 115.41C85.7542 116.485 85.2933 117.854 85.353 119.25C85.4127 120.647 85.9888 121.971 86.9696 122.967C87.9504 123.962 89.266 124.558 90.6612 124.639C92.0564 124.72 93.4319 124.279 94.5208 123.403C95.6097 122.527 96.3345 121.278 96.5546 119.898C96.7747 118.518 96.4745 117.105 95.712 115.934L95.171 116.479C95.792 117.503 96.015 118.72 95.7977 119.898C95.5803 121.076 94.9378 122.134 93.9922 122.869C93.0466 123.605 91.8637 123.967 90.6684 123.888C89.473 123.809 88.3484 123.293 87.5082 122.439C86.6681 121.585 86.1709 120.452 86.1111 119.256C86.0514 118.059 86.4332 116.882 87.1841 115.949C87.935 115.015 89.0026 114.39 90.1841 114.192C91.3656 113.994 92.5787 114.237 93.5929 114.875L94.1329 114.331ZM95.5099 110.373L95.5177 110.366C94.4612 109.81 93.3109 109.454 92.125 109.317V110.073C93.1895 110.207 94.2211 110.531 95.1705 111.031C95.2061 110.78 95.3258 110.548 95.5099 110.373ZM98.9042 114.705C99.4409 115.689 99.7879 116.764 99.9272 117.875H100.683C100.538 116.617 100.147 115.4 99.5326 114.293L99.3639 114.451C99.233 114.571 99.0755 114.658 98.9042 114.705Z" fill="#9D3A21" stroke="#9D3A21" stroke-width="0.5"/>
<path d="M91.2251 118.325L91.2121 118.311L91.2765 118.101C91.3056 118.006 91.2957 117.903 91.249 117.815C91.2023 117.727 91.1226 117.662 91.0275 117.632C90.9324 117.603 90.8297 117.613 90.7418 117.66C90.654 117.707 90.5883 117.786 90.5592 117.881L90.0789 119.453C90.0596 119.516 90.0573 119.583 90.0721 119.647C90.0869 119.711 90.1183 119.77 90.1632 119.818C90.2083 119.866 90.2651 119.901 90.3279 119.92C90.3908 119.94 90.4576 119.942 90.5217 119.928L92.1102 119.562C92.1582 119.551 92.2035 119.53 92.2436 119.502C92.2837 119.473 92.3178 119.437 92.3439 119.395C92.37 119.354 92.3877 119.307 92.3958 119.258C92.404 119.21 92.4025 119.16 92.3914 119.112C92.3803 119.064 92.3599 119.019 92.3314 118.979C92.3028 118.939 92.2666 118.905 92.2248 118.878C92.183 118.852 92.1365 118.835 92.088 118.827C92.0394 118.818 91.9897 118.82 91.9417 118.831L91.7332 118.878L96.6875 113.886L98.5725 114.003C98.5804 114.003 98.5881 114.004 98.5957 114.004C98.6908 114.004 98.7823 113.967 98.8517 113.902L101.569 111.364C101.619 111.317 101.655 111.257 101.674 111.191C101.692 111.125 101.692 111.055 101.674 110.989C101.655 110.923 101.619 110.863 101.569 110.816C101.518 110.769 101.456 110.737 101.389 110.723L99.6446 110.36L99.289 108.613C99.2756 108.547 99.245 108.486 99.2002 108.437C99.1555 108.387 99.0982 108.35 99.0344 108.33C98.9705 108.31 98.9025 108.307 98.8373 108.322C98.7721 108.337 98.7121 108.369 98.6635 108.415L96.026 110.917C95.9855 110.956 95.9541 111.003 95.9341 111.055C95.914 111.107 95.9058 111.163 95.9101 111.218L96.0814 113.432L91.2251 118.325ZM98.4577 113.244L97.3901 113.178L99.4637 111.089L100.528 111.31L98.4577 113.244ZM96.6717 111.338L98.6889 109.425L98.9218 110.57L96.7792 112.729L96.6717 111.338ZM92.125 127.927V128.683C93.0162 128.58 93.8887 128.353 94.7174 128.009C94.5722 127.802 94.4472 127.582 94.3442 127.352C93.6322 127.638 92.8864 127.832 92.125 127.927ZM99.9272 120.125C99.8416 120.804 99.6783 121.471 99.4404 122.112C99.6741 122.209 99.898 122.328 100.109 122.468C100.397 121.714 100.59 120.927 100.683 120.125H99.9272ZM97.9375 122.562C97.3071 122.562 96.6908 122.749 96.1666 123.1C95.6424 123.45 95.2339 123.948 94.9926 124.53C94.7514 125.113 94.6882 125.754 94.8112 126.372C94.9342 126.99 95.2378 127.558 95.6836 128.004C96.1294 128.45 96.6973 128.753 97.3156 128.876C97.934 128.999 98.5749 128.936 99.1573 128.695C99.7397 128.454 100.238 128.045 100.588 127.521C100.938 126.997 101.125 126.38 101.125 125.75C101.124 124.905 100.788 124.095 100.19 123.497C99.5928 122.9 98.7826 122.563 97.9375 122.562ZM97.9375 128.187C97.4554 128.187 96.9841 128.045 96.5833 127.777C96.1824 127.509 95.87 127.128 95.6855 126.683C95.501 126.237 95.4528 125.747 95.5468 125.274C95.6409 124.802 95.873 124.367 96.2139 124.026C96.5548 123.686 96.9891 123.453 97.462 123.359C97.9348 123.265 98.4249 123.314 98.8703 123.498C99.3157 123.683 99.6964 123.995 99.9642 124.396C100.232 124.797 100.375 125.268 100.375 125.75C100.374 126.396 100.117 127.016 99.6602 127.473C99.2033 127.93 98.5837 128.187 97.9375 128.187Z" fill="#9D3A21" stroke="#9D3A21" stroke-width="0.5"/>
<path d="M90.2679 117.074C90.408 116.975 90.5691 116.908 90.7388 116.881C90.9084 116.853 91.0822 116.865 91.2466 116.915C91.2982 116.932 91.3483 116.952 91.3966 116.977C91.4268 116.983 91.4561 116.991 91.4858 116.998L92.0764 116.403C91.4763 116.151 90.8078 116.114 90.1836 116.298C89.5593 116.482 89.0175 116.875 88.6493 117.411C88.2812 117.948 88.1092 118.595 88.1623 119.244C88.2155 119.892 88.4905 120.502 88.9411 120.972C89.3917 121.441 89.9903 121.741 90.6362 121.821C91.282 121.901 91.9355 121.755 92.4867 121.409C93.0379 121.063 93.453 120.538 93.6622 119.922C93.8713 119.306 93.8617 118.636 93.635 118.026L93.0284 118.638C93.0336 118.667 93.038 118.697 93.042 118.726C93.0766 118.796 93.1035 118.869 93.122 118.944C93.1665 119.137 93.1591 119.338 93.1006 119.528C93.0421 119.717 92.9345 119.888 92.7888 120.022C92.6251 120.309 92.3946 120.553 92.1169 120.732C91.8392 120.912 91.5223 121.022 91.1932 121.053C90.864 121.084 90.5321 121.036 90.2256 120.912C89.9191 120.788 89.6468 120.592 89.4319 120.341C89.217 120.09 89.0658 119.79 88.9909 119.468C88.916 119.146 88.9197 118.811 89.0016 118.49C89.0836 118.17 89.2415 117.874 89.4618 117.628C89.6822 117.381 89.9587 117.191 90.2679 117.074ZM98.8241 124.804L97.4816 125.908L97.0677 125.523C97.0317 125.49 96.9894 125.463 96.9432 125.446C96.8971 125.429 96.8479 125.421 96.7986 125.423C96.7493 125.424 96.7009 125.436 96.656 125.456C96.6111 125.477 96.5707 125.506 96.5372 125.542C96.5036 125.578 96.4774 125.62 96.4602 125.666C96.443 125.713 96.4351 125.762 96.4369 125.811C96.4388 125.86 96.4503 125.909 96.4709 125.954C96.4915 125.999 96.5207 126.039 96.5569 126.072L97.2109 126.681C97.2774 126.743 97.3641 126.778 97.4549 126.781C97.5457 126.784 97.6344 126.754 97.7046 126.696L99.3005 125.383C99.3387 125.352 99.3703 125.314 99.3935 125.27C99.4168 125.227 99.4312 125.179 99.4361 125.13C99.4409 125.081 99.436 125.031 99.4216 124.984C99.4073 124.937 99.3838 124.893 99.3525 124.855C99.3212 124.817 99.2826 124.786 99.2391 124.762C99.1956 124.739 99.1479 124.725 99.0989 124.72C99.0498 124.715 99.0003 124.72 98.9531 124.735C98.906 124.749 98.8621 124.773 98.8241 124.804Z" fill="#9D3A21" stroke="#9D3A21" stroke-width="0.5"/>
</g>
<path d="M91 134C99.2843 134 106 127.284 106 119C106 110.716 99.2843 104 91 104C82.7157 104 76 110.716 76 119C76 127.284 82.7157 134 91 134Z" fill="#D25239" fill-opacity="0.2"/>
</g>
<g clip-path="url(#clip2_2002_63)">
<path d="M89.7945 58.5513C90.4149 57.8162 91.5851 57.8162 92.2055 58.5513L93.2401 59.7771C93.6256 60.2338 94.256 60.4299 94.8482 60.2774L96.4375 59.8682C97.3906 59.6228 98.3373 60.2815 98.3881 61.2255L98.4728 62.7995C98.5044 63.386 98.894 63.8996 99.4666 64.1096L101.004 64.6732C101.925 65.0111 102.287 66.077 101.749 66.8693L100.851 68.1904C100.517 68.6827 100.517 69.3174 100.851 69.8097L101.749 71.1308C102.287 71.9231 101.925 72.989 101.004 73.3269L99.4666 73.8905C98.894 74.1005 98.5044 74.6141 98.4728 75.2006L98.3881 76.7746C98.3373 77.7186 97.3906 78.3773 96.4375 78.1319L94.8482 77.7227C94.256 77.5701 93.6256 77.7663 93.2401 78.223L92.2055 79.4488C91.5851 80.1837 90.4149 80.1837 89.7945 79.4488L88.7599 78.223C88.3744 77.7663 87.744 77.5701 87.1518 77.7227L85.5626 78.1319C84.6095 78.3773 83.6628 77.7186 83.612 76.7746L83.5273 75.2006C83.4957 74.6141 83.1061 74.1005 82.5334 73.8905L80.9965 73.3269C80.0748 72.989 79.7132 71.9231 80.2514 71.1308L81.1489 69.8097C81.4833 69.3174 81.4833 68.6827 81.1489 68.1904L80.2514 66.8693C79.7132 66.077 80.0748 65.0111 80.9965 64.6732L82.5334 64.1096C83.1061 63.8996 83.4957 63.386 83.5273 62.7995L83.612 61.2255C83.6628 60.2815 84.6095 59.6228 85.5626 59.8682L87.1518 60.2774C87.744 60.4299 88.3744 60.2338 88.7599 59.7771L89.7945 58.5513Z" stroke="#9D3A21" stroke-width="1.5"/>
<path d="M91 75.2355C94.5958 75.2355 97.5107 72.4438 97.5107 69.0001C97.5107 65.5563 94.5958 62.7646 91 62.7646C87.4042 62.7646 84.4893 65.5563 84.4893 69.0001C84.4893 72.4438 87.4042 75.2355 91 75.2355Z" stroke="#9D3A21" stroke-width="1.5"/>
<path d="M88.5195 69.2132L89.7628 70.4937C90.0694 70.8094 90.5914 70.8094 90.898 70.4937L93.7901 67.5151" stroke="#9D3A21" stroke-width="1.5" stroke-linecap="round" stroke-linejoin="round"/>
<path d="M91 84C99.2843 84 106 77.2843 106 69C106 60.7157 99.2843 54 91 54C82.7157 54 76 60.7157 76 69C76 77.2843 82.7157 84 91 84Z" fill="#D25239" fill-opacity="0.2"/>
</g>
<line x1="31.5" y1="169.004" x2="30.4937" y2="38.007" stroke="black"/>
<line x1="31" y1="68.5" x2="61" y2="68.5" stroke="black"/>
<line x1="31" y1="118.5" x2="61" y2="118.5" stroke="black"/>
<line x1="31" y1="168.5" x2="61" y2="168.5" stroke="black"/>
<defs>
<clipPath id="clip0_2002_63">
<rect width="30" height="30" fill="white" transform="translate(76 154)"/>
</clipPath>
<clipPath id="clip1_2002_63">
<rect width="30" height="30" fill="white" transform="translate(76 104)"/>
</clipPath>
<clipPath id="clip2_2002_63">
<rect width="30" height="30" fill="white" transform="translate(76 54)"/>
</clipPath>
</defs>
</svg>
