<svg width="30" height="30" viewBox="0 0 30 30" fill="none" xmlns="http://www.w3.org/2000/svg">
<path d="M13.7945 4.55132C14.4149 3.81623 15.5851 3.81623 16.2055 4.55132L17.2401 5.77706C17.6256 6.23376 18.256 6.42994 18.8482 6.27744L20.4375 5.86822C21.3906 5.62278 22.3373 6.28151 22.3881 7.2255L22.4728 8.79953C22.5044 9.38601 22.894 9.89958 23.4666 10.1096L25.0035 10.6732C25.9252 11.0111 26.2868 12.077 25.7486 12.8693L24.8511 14.1904C24.5167 14.6827 24.5167 15.3174 24.8511 15.8097L25.7486 17.1308C26.2868 17.9231 25.9252 18.989 25.0035 19.3269L23.4666 19.8905C22.894 20.1005 22.5044 20.6141 22.4728 21.2006L22.3881 22.7746C22.3373 23.7186 21.3906 24.3773 20.4375 24.1319L18.8482 23.7227C18.256 23.5701 17.6256 23.7663 17.2401 24.223L16.2055 25.4488C15.5851 26.1837 14.4149 26.1837 13.7945 25.4488L12.7599 24.223C12.3744 23.7663 11.744 23.5701 11.1518 23.7227L9.56256 24.1319C8.60945 24.3773 7.66276 23.7186 7.61195 22.7746L7.52725 21.2006C7.49565 20.6141 7.10606 20.1005 6.5334 19.8905L4.9965 19.3269C4.07479 18.989 3.71317 17.9231 4.25142 17.1308L5.14894 15.8097C5.48334 15.3174 5.48334 14.6827 5.14894 14.1904L4.25142 12.8693C3.71317 12.077 4.07479 11.0111 4.9965 10.6732L6.5334 10.1096C7.10606 9.89958 7.49565 9.38601 7.52725 8.79953L7.61195 7.2255C7.66276 6.28151 8.60945 5.62278 9.56256 5.86822L11.1518 6.27744C11.744 6.42994 12.3744 6.23376 12.7599 5.77706L13.7945 4.55132Z" stroke="#9D3A21" stroke-width="1.5"/>
<path d="M15.0001 21.2354C18.5959 21.2354 21.5108 18.4437 21.5108 15C21.5108 11.5562 18.5959 8.76453 15.0001 8.76453C11.4043 8.76453 8.48938 11.5562 8.48938 15C8.48938 18.4437 11.4043 21.2354 15.0001 21.2354Z" stroke="#9D3A21" stroke-width="1.5"/>
<path d="M12.5197 15.2134L13.763 16.4939C14.0696 16.8096 14.5916 16.8096 14.8982 16.4939L17.7903 13.5153" stroke="#9D3A21" stroke-width="1.5" stroke-linecap="round" stroke-linejoin="round"/>
<circle cx="15" cy="15" r="15" fill="#D25239" fill-opacity="0.2"/>
</svg>
