<svg width="31" height="31" viewBox="0 0 31 31" fill="none" xmlns="http://www.w3.org/2000/svg">
<path d="M11.6803 0.408702C12.0832 0.184896 12.2846 0.0729932 12.4978 0.0291156C12.6867 -0.0097052 12.8813 -0.0097052 13.0702 0.0291156C13.2835 0.0729932 13.4849 0.184896 13.8877 0.408702L24.399 6.24831C24.8246 6.48468 25.0372 6.60286 25.1922 6.77095C25.3291 6.91966 25.433 7.09591 25.4963 7.28793C25.568 7.50496 25.568 7.74832 25.568 8.23502V19.7649C25.568 20.2517 25.568 20.495 25.4963 20.712C25.433 20.9041 25.3291 21.0804 25.1922 21.2289C25.0372 21.3971 24.8246 21.5153 24.399 21.7517L13.8877 27.5913C13.4849 27.8151 13.2835 27.9269 13.0702 27.9708C12.8813 28.0097 12.6867 28.0097 12.4978 27.9708C12.2846 27.9269 12.0832 27.8151 11.6803 27.5913L1.16899 21.7517C0.743533 21.5153 0.530807 21.3971 0.375893 21.2289C0.238862 21.0804 0.135155 20.9041 0.071704 20.712C-1.58747e-07 20.495 0 20.2517 0 19.7649V8.23502C0 7.74832 -1.58747e-07 7.50496 0.071704 7.28793C0.135155 7.09591 0.238862 6.91966 0.375893 6.77095C0.530807 6.60286 0.743533 6.48468 1.16899 6.24831L11.6803 0.408702Z" fill="#D25239" fill-opacity="0.2"/>
<path d="M16.1301 5.6265C16.8351 4.79117 18.1649 4.79117 18.8699 5.6265L20.0456 7.01939C20.4837 7.53837 21.2 7.7613 21.8729 7.588L23.6789 7.12298C24.762 6.84407 25.8378 7.59262 25.8955 8.66534L25.9918 10.454C26.0277 11.1205 26.4704 11.7041 27.1212 11.9427L28.8676 12.5831C29.915 12.9672 30.3259 14.1784 29.7143 15.0787L28.6944 16.58C28.3144 17.1394 28.3144 17.8607 28.6944 18.4201L29.7143 19.9214C30.3259 20.8217 29.915 22.0329 28.8676 22.417L27.1212 23.0574C26.4704 23.296 26.0277 23.8796 25.9918 24.5461L25.8955 26.3348C25.8378 27.4075 24.762 28.156 23.6789 27.8771L21.8729 27.4121C21.2 27.2388 20.4837 27.4617 20.0456 27.9807L18.8699 29.3736C18.1649 30.2088 16.8351 30.2088 16.1301 29.3736L14.9544 27.9807C14.5163 27.4617 13.8 27.2388 13.1271 27.4121L11.3211 27.8771C10.238 28.156 9.16223 27.4075 9.10449 26.3348L9.00823 24.5461C8.97233 23.8796 8.52962 23.296 7.87886 23.0574L6.13238 22.417C5.08499 22.0329 4.67406 20.8217 5.28571 19.9214L6.30561 18.4201C6.68562 17.8607 6.68562 17.1394 6.30561 16.58L5.28571 15.0787C4.67406 14.1784 5.08499 12.9672 6.13238 12.5831L7.87886 11.9427C8.52962 11.7041 8.97233 11.1205 9.00823 10.454L9.10449 8.66534C9.16223 7.59262 10.238 6.84407 11.3211 7.12298L13.1271 7.588C13.8 7.7613 14.5163 7.53837 14.9544 7.01939L16.1301 5.6265Z" stroke="#9D3A21" stroke-width="1.5"/>
<path d="M17.5001 24.5857C21.5862 24.5857 24.8987 21.4133 24.8987 17.5C24.8987 13.5866 21.5862 10.4142 17.5001 10.4142C13.414 10.4142 10.1016 13.5866 10.1016 17.5C10.1016 21.4133 13.414 24.5857 17.5001 24.5857Z" stroke="#9D3A21" stroke-width="1.5"/>
<path d="M14.6815 17.7425L16.0944 19.1976C16.4428 19.5564 17.036 19.5564 17.3844 19.1976L20.6708 15.8129" stroke="#9D3A21" stroke-width="1.5" stroke-linecap="round" stroke-linejoin="round"/>
</svg>
