<svg width="288" height="99" viewBox="0 0 288 99" fill="none" xmlns="http://www.w3.org/2000/svg">
<g clip-path="url(#clip0_259_195)">
<path d="M113.706 26.5028C119.706 28.5028 119.539 36.3361 118.706 40.0028H112.707C113.107 30.805 107.54 30.8352 104.707 32C99.907 35.9978 102.04 40.6657 103.707 42.5C104.507 43.3 112.374 48.5 116.207 51C121.007 55.8 120.54 62.6667 119.707 65.5C116.907 75.5 106.54 75.3333 101.707 74C94.1067 72.8 93.54 62.8333 94.2067 58H101.707C100.907 60.8 101.707 64.5 102.207 66C105.807 70.4 110.04 68.5 111.707 67C116.207 59 110.207 55.5 110.207 55C110.207 54.6 103.206 50.5 99.706 48.5C94.906 45.7 94.706 38.6667 95.206 35.5C96.006 30.7 99.206 27.8352 100.706 27.0028C105.906 24.6028 111.539 25.6694 113.706 26.5028Z" fill="#FF7C14" stroke="#FF7C14"/>
<path d="M280.913 26.9715C286.913 28.9715 286.746 36.8049 285.913 40.4715H279.914C280.314 31.2737 274.747 31.3039 271.914 32.4688C267.114 36.4665 269.247 41.1345 270.914 42.9688C271.714 43.7687 279.581 48.9688 283.414 51.4688C288.214 56.2687 287.748 63.1354 286.914 65.9688C284.114 75.9688 273.747 75.8021 268.914 74.4688C261.314 73.2687 260.747 63.3021 261.414 58.4688H268.914C268.114 61.2687 268.914 64.9688 269.414 66.4688C273.014 70.8688 277.247 68.9688 278.914 67.4688C283.414 59.4688 277.414 55.9688 277.414 55.4688C277.414 55.0688 270.413 50.9688 266.913 48.9688C262.113 46.1688 261.913 39.1354 262.413 35.9688C263.213 31.1687 266.413 28.3039 267.913 27.4715C273.113 25.0715 278.746 26.1382 280.913 26.9715Z" fill="#FF7C14" stroke="#FF7C14"/>
<path fill-rule="evenodd" clip-rule="evenodd" d="M130.207 73.5L133.207 63H144.207L146.207 73.5H152.707L142.707 27H134.707L123.707 73.5H130.207ZM138.707 34L133.707 57H142.707L138.707 34Z" fill="#FF7C14"/>
<path d="M133.207 63V62.5H132.83L132.726 62.8626L133.207 63ZM130.207 73.5V74H130.584L130.688 73.6374L130.207 73.5ZM144.207 63L144.698 62.9064L144.621 62.5H144.207V63ZM146.207 73.5L145.716 73.5936L145.793 74H146.207V73.5ZM152.707 73.5V74H153.326L153.196 73.3949L152.707 73.5ZM142.707 27L143.196 26.8949L143.111 26.5H142.707V27ZM134.707 27V26.5H134.312L134.22 26.8849L134.707 27ZM123.707 73.5L123.22 73.3849L123.075 74H123.707V73.5ZM133.707 57L133.218 56.8938L133.087 57.5H133.707V57ZM138.707 34L139.2 33.9143L138.218 33.8938L138.707 34ZM142.707 57V57.5H143.301L143.2 56.9143L142.707 57ZM132.726 62.8626L129.726 73.3626L130.688 73.6374L133.688 63.1374L132.726 62.8626ZM144.207 62.5H133.207V63.5H144.207V62.5ZM146.698 73.4064L144.698 62.9064L143.716 63.0936L145.716 73.5936L146.698 73.4064ZM152.707 73H146.207V74H152.707V73ZM142.218 27.1051L152.218 73.6051L153.196 73.3949L143.196 26.8949L142.218 27.1051ZM134.707 27.5H142.707V26.5H134.707V27.5ZM124.194 73.6151L135.194 27.1151L134.22 26.8849L123.22 73.3849L124.194 73.6151ZM130.207 73H123.707V74H130.207V73ZM134.196 57.1062L139.196 34.1062L138.218 33.8938L133.218 56.8938L134.196 57.1062ZM142.707 56.5H133.707V57.5H142.707V56.5ZM138.214 34.0857L142.214 57.0857L143.2 56.9143L139.2 33.9143L138.214 34.0857Z" fill="#FF7C14"/>
<path fill-rule="evenodd" clip-rule="evenodd" d="M235.707 73.5L238.707 63H249.707L251.707 73.5H258.207L248.207 27H240.207L229.207 73.5H235.707ZM244.207 34L239.207 57H248.207L244.207 34Z" fill="#FF7C14"/>
<path d="M238.707 63V62.5H238.33L238.226 62.8626L238.707 63ZM235.707 73.5V74H236.084L236.188 73.6374L235.707 73.5ZM249.707 63L250.198 62.9064L250.121 62.5H249.707V63ZM251.707 73.5L251.216 73.5936L251.293 74H251.707V73.5ZM258.207 73.5V74H258.826L258.696 73.3949L258.207 73.5ZM248.207 27L248.696 26.8949L248.611 26.5H248.207V27ZM240.207 27V26.5H239.812L239.72 26.8849L240.207 27ZM229.207 73.5L228.72 73.3849L228.575 74H229.207V73.5ZM239.207 57L238.718 56.8938L238.587 57.5H239.207V57ZM244.207 34L244.7 33.9143L243.718 33.8938L244.207 34ZM248.207 57V57.5H248.801L248.7 56.9143L248.207 57ZM238.226 62.8626L235.226 73.3626L236.188 73.6374L239.188 63.1374L238.226 62.8626ZM249.707 62.5H238.707V63.5H249.707V62.5ZM252.198 73.4064L250.198 62.9064L249.216 63.0936L251.216 73.5936L252.198 73.4064ZM258.207 73H251.707V74H258.207V73ZM247.718 27.1051L257.718 73.6051L258.696 73.3949L248.696 26.8949L247.718 27.1051ZM240.207 27.5H248.207V26.5H240.207V27.5ZM229.694 73.6151L240.694 27.1151L239.72 26.8849L228.72 73.3849L229.694 73.6151ZM235.707 73H229.207V74H235.707V73ZM239.696 57.1062L244.696 34.1062L243.718 33.8938L238.718 56.8938L239.696 57.1062ZM248.207 56.5H239.207V57.5H248.207V56.5ZM243.714 34.0857L247.714 57.0857L248.7 56.9143L244.7 33.9143L243.714 34.0857Z" fill="#FF7C14"/>
<path d="M164.707 35V73.5H158.707V27H168.207L179.207 66V27H185.207V73.5H175.707L164.707 35Z" fill="#FF7C14" stroke="#FF7C14"/>
<path d="M199.207 27H192.207V73.5H199.207V27Z" fill="#FF7C14" stroke="#FF7C14"/>
<path d="M230.707 27H204.707V32H214.707V73H221.207V32H230.707V27Z" fill="#FF7C14" stroke="#FF7C14"/>
<path d="M187.282 17.9246C185.313 15.9555 184.207 13.2848 184.207 10.5C184.207 7.71523 185.313 5.04451 187.282 3.07538C189.252 1.10625 191.922 2.98763e-07 194.707 0C197.492 -2.98763e-07 200.163 1.10625 202.132 3.07538L194.707 10.5L187.282 17.9246Z" fill="#F27D21"/>
<path d="M203.161 4.10449C205.148 6.05529 206.279 8.71564 206.305 11.5003C206.331 14.2849 205.249 16.9658 203.299 18.9531C201.348 20.9404 198.687 22.0713 195.903 22.0971C193.118 22.1229 190.437 21.0415 188.45 19.0907L195.805 11.5976L203.161 4.10449Z" fill="#989898"/>
<path d="M97.7002 88.6104H103.237V85.2002C103.237 84.5908 103.199 84.1895 103.123 83.9961C103.064 83.8496 102.941 83.7236 102.754 83.6182C102.502 83.4775 102.235 83.4072 101.954 83.4072H101.532V83.082H106.63V83.4072H106.208C105.927 83.4072 105.66 83.4746 105.408 83.6094C105.221 83.7031 105.092 83.8467 105.021 84.04C104.957 84.2275 104.925 84.6143 104.925 85.2002V92.8906C104.925 93.4941 104.963 93.8926 105.039 94.0859C105.098 94.2324 105.218 94.3584 105.399 94.4639C105.657 94.6045 105.927 94.6748 106.208 94.6748H106.63V95H101.532V94.6748H101.954C102.44 94.6748 102.795 94.5312 103.018 94.2441C103.164 94.0566 103.237 93.6055 103.237 92.8906V89.2607H97.7002V92.8906C97.7002 93.4941 97.7383 93.8926 97.8145 94.0859C97.873 94.2324 97.9961 94.3584 98.1836 94.4639C98.4355 94.6045 98.7021 94.6748 98.9834 94.6748H99.4141V95H94.3076V94.6748H94.7295C95.2217 94.6748 95.5791 94.5312 95.8018 94.2441C95.9424 94.0566 96.0127 93.6055 96.0127 92.8906V85.2002C96.0127 84.5908 95.9746 84.1895 95.8984 83.9961C95.8398 83.8496 95.7197 83.7236 95.5381 83.6182C95.2803 83.4775 95.0107 83.4072 94.7295 83.4072H94.3076V83.082H99.4141V83.4072H98.9834C98.7021 83.4072 98.4355 83.4746 98.1836 83.6094C98.002 83.7031 97.876 83.8467 97.8057 84.04C97.7354 84.2275 97.7002 84.6143 97.7002 85.2002V88.6104ZM119.05 83.7324V88.4434H121.669C122.348 88.4434 122.802 88.3408 123.031 88.1357C123.336 87.8662 123.506 87.3916 123.541 86.7119H123.866V90.8604H123.541C123.459 90.2803 123.377 89.9082 123.295 89.7441C123.189 89.5391 123.016 89.3779 122.776 89.2607C122.536 89.1436 122.167 89.085 121.669 89.085H119.05V93.0137C119.05 93.541 119.073 93.8633 119.12 93.9805C119.167 94.0918 119.249 94.1826 119.366 94.2529C119.483 94.3174 119.706 94.3496 120.034 94.3496H122.055C122.729 94.3496 123.218 94.3027 123.523 94.209C123.828 94.1152 124.121 93.9307 124.402 93.6553C124.765 93.292 125.137 92.7441 125.518 92.0117H125.87L124.842 95H115.657V94.6748H116.079C116.36 94.6748 116.627 94.6074 116.879 94.4727C117.066 94.3789 117.192 94.2383 117.257 94.0508C117.327 93.8633 117.362 93.4795 117.362 92.8994V85.1562C117.362 84.4004 117.286 83.9346 117.134 83.7588C116.923 83.5244 116.571 83.4072 116.079 83.4072H115.657V83.082H124.842L124.973 85.6924H124.631C124.508 85.0654 124.37 84.6348 124.217 84.4004C124.071 84.166 123.851 83.9873 123.558 83.8643C123.324 83.7764 122.911 83.7324 122.319 83.7324H119.05ZM142.807 91.0098H138.193L137.384 92.8906C137.185 93.3535 137.085 93.6992 137.085 93.9277C137.085 94.1094 137.17 94.2705 137.34 94.4111C137.516 94.5459 137.891 94.6338 138.465 94.6748V95H134.712V94.6748C135.21 94.5869 135.533 94.4727 135.679 94.332C135.978 94.0508 136.309 93.4795 136.672 92.6182L140.865 82.8096H141.172L145.321 92.7236C145.655 93.5205 145.956 94.0391 146.226 94.2793C146.501 94.5137 146.882 94.6455 147.369 94.6748V95H142.666V94.6748C143.141 94.6514 143.46 94.5723 143.624 94.4375C143.794 94.3027 143.879 94.1387 143.879 93.9453C143.879 93.6875 143.762 93.2803 143.528 92.7236L142.807 91.0098ZM142.561 90.3594L140.539 85.543L138.465 90.3594H142.561ZM166.178 91.7041L166.468 91.7656L165.448 95H156.22V94.6748H156.668C157.172 94.6748 157.532 94.5107 157.749 94.1826C157.872 93.9951 157.934 93.5615 157.934 92.8818V85.1914C157.934 84.4473 157.852 83.9814 157.688 83.7939C157.459 83.5361 157.119 83.4072 156.668 83.4072H156.22V83.082H161.616V83.4072C160.984 83.4014 160.538 83.46 160.28 83.583C160.028 83.7061 159.856 83.8613 159.762 84.0488C159.668 84.2363 159.621 84.6846 159.621 85.3936V92.8818C159.621 93.3682 159.668 93.7021 159.762 93.8838C159.832 94.0068 159.941 94.0977 160.087 94.1562C160.234 94.2148 160.691 94.2441 161.458 94.2441H162.328C163.242 94.2441 163.884 94.1768 164.253 94.042C164.622 93.9072 164.959 93.6699 165.264 93.3301C165.569 92.9844 165.873 92.4424 166.178 91.7041ZM183.906 83.082L184.038 85.877H183.704C183.64 85.3848 183.552 85.0332 183.44 84.8223C183.259 84.4824 183.016 84.2334 182.711 84.0752C182.412 83.9111 182.016 83.8291 181.524 83.8291H179.846V92.9346C179.846 93.667 179.925 94.124 180.083 94.3057C180.306 94.5518 180.648 94.6748 181.111 94.6748H181.524V95H176.471V94.6748H176.892C177.396 94.6748 177.754 94.5225 177.965 94.2178C178.094 94.0303 178.158 93.6025 178.158 92.9346V83.8291H176.725C176.169 83.8291 175.773 83.8701 175.539 83.9521C175.234 84.0635 174.974 84.2773 174.757 84.5938C174.54 84.9102 174.411 85.3379 174.37 85.877H174.036L174.177 83.082H183.906ZM196.475 88.6104H202.012V85.2002C202.012 84.5908 201.974 84.1895 201.898 83.9961C201.839 83.8496 201.716 83.7236 201.529 83.6182C201.277 83.4775 201.01 83.4072 200.729 83.4072H200.307V83.082H205.405V83.4072H204.983C204.702 83.4072 204.435 83.4746 204.183 83.6094C203.996 83.7031 203.867 83.8467 203.796 84.04C203.732 84.2275 203.7 84.6143 203.7 85.2002V92.8906C203.7 93.4941 203.738 93.8926 203.814 94.0859C203.873 94.2324 203.993 94.3584 204.174 94.4639C204.432 94.6045 204.702 94.6748 204.983 94.6748H205.405V95H200.307V94.6748H200.729C201.215 94.6748 201.57 94.5312 201.793 94.2441C201.939 94.0566 202.012 93.6055 202.012 92.8906V89.2607H196.475V92.8906C196.475 93.4941 196.513 93.8926 196.589 94.0859C196.648 94.2324 196.771 94.3584 196.959 94.4639C197.211 94.6045 197.477 94.6748 197.758 94.6748H198.189V95H193.083V94.6748H193.504C193.997 94.6748 194.354 94.5312 194.577 94.2441C194.717 94.0566 194.788 93.6055 194.788 92.8906V85.2002C194.788 84.5908 194.75 84.1895 194.673 83.9961C194.615 83.8496 194.495 83.7236 194.313 83.6182C194.055 83.4775 193.786 83.4072 193.504 83.4072H193.083V83.082H198.189V83.4072H197.758C197.477 83.4072 197.211 83.4746 196.959 83.6094C196.777 83.7031 196.651 83.8467 196.581 84.04C196.51 84.2275 196.475 84.6143 196.475 85.2002V88.6104ZM224.9 82.8096L225.172 86.8613H224.9C224.536 85.6484 224.018 84.7754 223.344 84.2422C222.67 83.709 221.862 83.4424 220.918 83.4424C220.127 83.4424 219.412 83.6445 218.774 84.0488C218.135 84.4473 217.631 85.0859 217.262 85.9648C216.899 86.8438 216.717 87.9365 216.717 89.2432C216.717 90.3213 216.89 91.2559 217.236 92.0469C217.581 92.8379 218.1 93.4443 218.791 93.8662C219.489 94.2881 220.283 94.499 221.173 94.499C221.947 94.499 222.629 94.335 223.221 94.0068C223.813 93.6729 224.463 93.0137 225.172 92.0293L225.445 92.2051C224.847 93.2656 224.15 94.042 223.353 94.5342C222.556 95.0264 221.61 95.2725 220.514 95.2725C218.539 95.2725 217.01 94.54 215.926 93.0752C215.118 91.9854 214.713 90.7021 214.713 89.2256C214.713 88.0361 214.98 86.9434 215.513 85.9473C216.046 84.9512 216.779 84.1807 217.71 83.6357C218.648 83.085 219.67 82.8096 220.778 82.8096C221.639 82.8096 222.489 83.0205 223.326 83.4424C223.573 83.5713 223.748 83.6357 223.854 83.6357C224.012 83.6357 224.15 83.5801 224.267 83.4688C224.419 83.3105 224.528 83.0908 224.592 82.8096H224.9ZM242.584 91.0098H237.97L237.161 92.8906C236.962 93.3535 236.862 93.6992 236.862 93.9277C236.862 94.1094 236.947 94.2705 237.117 94.4111C237.293 94.5459 237.668 94.6338 238.242 94.6748V95H234.489V94.6748C234.987 94.5869 235.31 94.4727 235.456 94.332C235.755 94.0508 236.086 93.4795 236.449 92.6182L240.642 82.8096H240.949L245.098 92.7236C245.432 93.5205 245.733 94.0391 246.003 94.2793C246.278 94.5137 246.659 94.6455 247.146 94.6748V95H242.443V94.6748C242.918 94.6514 243.237 94.5723 243.401 94.4375C243.571 94.3027 243.656 94.1387 243.656 93.9453C243.656 93.6875 243.539 93.2803 243.305 92.7236L242.584 91.0098ZM242.338 90.3594L240.316 85.543L238.242 90.3594H242.338ZM267.801 95H264.619L260.585 89.4277C260.286 89.4395 260.043 89.4453 259.855 89.4453C259.779 89.4453 259.697 89.4453 259.609 89.4453C259.521 89.4395 259.43 89.4336 259.337 89.4277V92.8906C259.337 93.6406 259.419 94.1064 259.583 94.2881C259.805 94.5459 260.139 94.6748 260.585 94.6748H261.051V95H255.944V94.6748H256.392C256.896 94.6748 257.257 94.5107 257.473 94.1826C257.596 94.001 257.658 93.5703 257.658 92.8906V85.1914C257.658 84.4414 257.576 83.9756 257.412 83.7939C257.183 83.5361 256.844 83.4072 256.392 83.4072H255.944V83.082H260.286C261.552 83.082 262.483 83.1758 263.081 83.3633C263.684 83.5449 264.194 83.8848 264.61 84.3828C265.032 84.875 265.243 85.4639 265.243 86.1494C265.243 86.8818 265.003 87.5176 264.522 88.0566C264.048 88.5957 263.309 88.9766 262.307 89.1992L264.768 92.6182C265.331 93.4033 265.814 93.9248 266.219 94.1826C266.623 94.4404 267.15 94.6045 267.801 94.6748V95ZM259.337 88.874C259.448 88.874 259.545 88.877 259.627 88.8828C259.709 88.8828 259.776 88.8828 259.829 88.8828C260.966 88.8828 261.821 88.6367 262.395 88.1445C262.975 87.6523 263.265 87.0254 263.265 86.2637C263.265 85.5195 263.031 84.916 262.562 84.4531C262.099 83.9844 261.484 83.75 260.717 83.75C260.377 83.75 259.917 83.8057 259.337 83.917V88.874ZM279.684 83.7324V88.4434H282.303C282.983 88.4434 283.437 88.3408 283.666 88.1357C283.97 87.8662 284.14 87.3916 284.175 86.7119H284.5V90.8604H284.175C284.093 90.2803 284.011 89.9082 283.929 89.7441C283.824 89.5391 283.651 89.3779 283.411 89.2607C283.17 89.1436 282.801 89.085 282.303 89.085H279.684V93.0137C279.684 93.541 279.708 93.8633 279.754 93.9805C279.801 94.0918 279.883 94.1826 280 94.2529C280.118 94.3174 280.34 94.3496 280.668 94.3496H282.69C283.364 94.3496 283.853 94.3027 284.158 94.209C284.462 94.1152 284.755 93.9307 285.037 93.6553C285.4 93.292 285.772 92.7441 286.153 92.0117H286.504L285.476 95H276.291V94.6748H276.713C276.995 94.6748 277.261 94.6074 277.513 94.4727C277.701 94.3789 277.827 94.2383 277.891 94.0508C277.961 93.8633 277.997 93.4795 277.997 92.8994V85.1562C277.997 84.4004 277.92 83.9346 277.768 83.7588C277.557 83.5244 277.206 83.4072 276.713 83.4072H276.291V83.082H285.476L285.608 85.6924H285.265C285.142 85.0654 285.004 84.6348 284.852 84.4004C284.706 84.166 284.486 83.9873 284.193 83.8643C283.958 83.7764 283.545 83.7324 282.954 83.7324H279.684Z" fill="#989898"/>
<path d="M49.6947 31.707C55.2947 31.307 59.3614 34.207 60.6947 35.707C57.4942 29.3039 51.3616 24.7068 48.6953 23.2086C40.6953 19.2086 33.362 21.5419 30.6953 23.2086C27.8953 24.8086 20.5286 31.8753 17.1953 35.2086C11.5953 40.0086 5.19596 47.5419 2.69628 50.7086C-0.903717 57.1086 -0.137051 63.7086 0.696283 66.2086C2.29628 71.8086 7.02962 75.8753 9.19628 77.2086C14.7963 82.0086 22.8629 81.2086 26.1963 80.2086C30.5963 79.4086 37.6963 72.2086 40.6963 68.7086L29.6963 58.2086C26.4963 62.2086 23.0286 64.5419 21.6947 65.2086C15.2947 65.6086 15.6947 60.7086 16.6947 58.2086C17.0947 57.0086 23.528 50.3753 26.6947 47.2086C33.4947 39.6086 38.528 36.0419 40.1947 35.2086C44.1947 32.8086 48.1947 31.8742 49.6947 31.707Z" fill="#EB7E29"/>
<path d="M30.1206 86.7089C24.5371 87.2962 17.0774 84.6634 15.6946 83.2089C19.1077 89.5013 27.9796 95.5514 30.6945 96.9594C39.6953 99.7063 45.3279 96.9626 47.9373 95.2076C50.6821 93.5147 57.7113 87.6567 60.9312 84.2136C66.3673 79.2287 72.303 71.4597 74.6953 68.2111C78.0789 61.6942 77.5693 55.4494 76.6527 52.9787C74.866 47.4354 71.9053 43.9712 69.6952 42.7111C63.9376 38.1014 53.9961 38.7294 50.6981 39.8405C46.3274 40.7874 39.4725 48.2211 36.5914 51.8196L47.1952 61.51C50.2595 57.405 54.3844 54.9221 55.6952 54.2111C62.0782 53.597 62.1109 58.6791 61.1952 61.2111C60.8356 62.4239 51.6952 72.2111 51.6952 72.2111C51.6952 72.2111 43.6955 80.2136 40.6946 82.7089C36.7772 85.2415 34.1946 86.7089 30.1206 86.7089Z" fill="#989898"/>
</g>
<defs>
<clipPath id="clip0_259_195">
<rect width="288" height="99" fill="white"/>
</clipPath>
</defs>
</svg>
