<svg width="30" height="30" viewBox="0 0 30 30" fill="none" xmlns="http://www.w3.org/2000/svg">
<path d="M20.2933 10.2181C18.7991 10.2181 17.3453 9.79133 16.0885 8.98351C15.8638 8.83945 15.6433 8.68126 15.4334 8.51314L15.2818 8.39193C15.2812 8.39133 15.2803 8.39073 15.2797 8.39043C15.2752 8.38682 15.2704 8.38321 15.2656 8.3799C15.2617 8.3772 15.2578 8.37419 15.2539 8.37148C15.2494 8.36847 15.2448 8.36577 15.2403 8.36276C15.2358 8.35975 15.231 8.35674 15.2265 8.35404C15.2223 8.35163 15.2181 8.34953 15.2139 8.34712C15.2085 8.34441 15.2033 8.34141 15.1979 8.3387C15.197 8.3384 15.1964 8.3378 15.1955 8.3375C15.1922 8.33599 15.1886 8.33449 15.1853 8.33298C15.1799 8.33058 15.1745 8.32787 15.1688 8.32577C15.1642 8.32396 15.1597 8.32246 15.1549 8.32065C15.1495 8.31885 15.1444 8.31674 15.139 8.31494C15.1339 8.31344 15.1291 8.31193 15.1239 8.31043C15.1188 8.30892 15.1137 8.30742 15.1089 8.30622C15.1035 8.30501 15.0984 8.30381 15.093 8.30261C15.0882 8.30171 15.083 8.3005 15.0782 8.2996C15.0728 8.2987 15.0674 8.2978 15.062 8.2972C15.0572 8.29659 15.0521 8.29569 15.0473 8.29539C15.0418 8.29479 15.0364 8.29449 15.031 8.29419C15.0259 8.29389 15.0208 8.29359 15.016 8.29329C15.0109 8.29298 15.0055 8.29329 15.0003 8.29329C14.9952 8.29329 14.9898 8.29329 14.9847 8.29329C14.9796 8.29359 14.9745 8.29389 14.9697 8.29419C14.9642 8.29449 14.9588 8.29479 14.9534 8.29539C14.9486 8.29599 14.9435 8.29659 14.9387 8.2972C14.9333 8.2981 14.9279 8.2987 14.9224 8.2996C14.9176 8.3005 14.9125 8.30141 14.9077 8.30261C14.9023 8.30381 14.8972 8.30471 14.8918 8.30622C14.8867 8.30742 14.8818 8.30892 14.8767 8.31043C14.8716 8.31193 14.8668 8.31314 14.8617 8.31494C14.8563 8.31674 14.8512 8.31855 14.8458 8.32065C14.8412 8.32246 14.8364 8.32396 14.8319 8.32577C14.8262 8.32787 14.8208 8.33058 14.8154 8.33298C14.8121 8.33449 14.8085 8.33569 14.8051 8.3375C14.8042 8.3378 14.8036 8.3384 14.8027 8.3387C14.7973 8.34141 14.7922 8.34411 14.7868 8.34712C14.7826 8.34923 14.7784 8.35163 14.7745 8.35374C14.7697 8.35644 14.7652 8.35945 14.7606 8.36246C14.7561 8.36516 14.7516 8.36817 14.7471 8.37088C14.7432 8.37359 14.7393 8.37659 14.7354 8.3793C14.7306 8.38291 14.7258 8.38622 14.7212 8.38983C14.7206 8.39043 14.7197 8.39073 14.7191 8.39133L14.4957 8.56968C14.3682 8.66892 14.2406 8.76246 14.1158 8.84787C13.8701 9.01689 13.6112 9.17389 13.3465 9.31404C13.0042 9.49509 12.6467 9.65148 12.2827 9.779C12.0782 9.85088 11.8653 9.91554 11.6506 9.97118C11.0154 10.1351 10.3618 10.2181 9.7068 10.2181C9.45778 10.2181 9.25568 10.4202 9.25568 10.6692V15.0001V15.0046C9.25568 15.53 9.32335 16.053 9.45628 16.5579C9.56635 16.9784 9.72274 17.3889 9.92064 17.7781C10.0734 18.0785 10.2518 18.3673 10.4506 18.6361C10.733 19.019 11.0599 19.3688 11.4223 19.6752C11.7369 19.9414 12.0806 20.1769 12.4439 20.3754L14.7841 21.6518C14.7862 21.653 14.7886 21.6539 14.7907 21.6551C14.7946 21.6572 14.7988 21.6593 14.803 21.6614C14.8079 21.6638 14.8127 21.6659 14.8175 21.668C14.8217 21.6698 14.8256 21.6716 14.8298 21.6734C14.8349 21.6755 14.8397 21.6773 14.8448 21.6792C14.8491 21.6807 14.853 21.6822 14.8572 21.6837C14.8623 21.6855 14.8677 21.687 14.8728 21.6885C14.877 21.6897 14.8809 21.6909 14.8851 21.6921C14.8906 21.6936 14.896 21.6948 14.9017 21.696C14.9056 21.6969 14.9095 21.6978 14.9134 21.6987C14.9191 21.6999 14.9252 21.7008 14.9309 21.7017C14.9345 21.7023 14.9384 21.7029 14.942 21.7035C14.9486 21.7044 14.9549 21.705 14.9615 21.7053C14.9645 21.7056 14.9679 21.7059 14.9709 21.7062C14.9805 21.7068 14.9901 21.7071 14.9997 21.7071C15.0094 21.7071 15.019 21.7068 15.0286 21.7062C15.0319 21.7059 15.0349 21.7056 15.0382 21.7053C15.0445 21.7047 15.0512 21.7041 15.0575 21.7035C15.0614 21.7029 15.065 21.7023 15.0689 21.7017C15.0746 21.7008 15.0803 21.6999 15.0861 21.699C15.0903 21.6981 15.0942 21.6972 15.0984 21.6963C15.1038 21.6951 15.1089 21.6939 15.1143 21.6924C15.1185 21.6912 15.1227 21.69 15.1273 21.6888C15.1324 21.6873 15.1375 21.6858 15.1423 21.6843C15.1465 21.6828 15.151 21.6813 15.1552 21.6798C15.16 21.6779 15.1648 21.6761 15.1697 21.674C15.1739 21.6722 15.1784 21.6704 15.1826 21.6686C15.1874 21.6665 15.1922 21.6644 15.1967 21.662C15.2009 21.6599 15.2052 21.6578 15.2091 21.6557C15.2112 21.6545 15.2136 21.6536 15.2157 21.6524L17.5558 20.376C18.3453 19.9456 19.016 19.3604 19.5495 18.6367C20.0115 18.01 20.3459 17.3107 20.5432 16.5592C20.6764 16.0533 20.7438 15.5303 20.7438 15.0052V15.0001V10.6692C20.7444 10.4202 20.5423 10.2181 20.2933 10.2181ZM10.1579 11.1086C10.7372 11.0785 11.3128 10.9901 11.8749 10.8452C12.1146 10.7832 12.3522 10.711 12.5805 10.6307C12.9862 10.4885 13.3856 10.314 13.7676 10.1119C14.0355 9.96998 14.2981 9.81268 14.5489 9.64426V14.5489H10.1579V11.1086ZM19.671 16.3291C19.5026 16.97 19.2175 17.5661 18.8238 18.1008C18.3691 18.7176 17.797 19.2163 17.1242 19.5832L15.4512 20.4957V15.4512H19.8229C19.7976 15.7477 19.7468 16.0416 19.671 16.3291Z" fill="#9D3A21"/>
<path d="M27 15C27 13.7474 26.0256 12.7188 24.7949 12.631C24.3621 10.8328 23.4436 9.19519 22.1242 7.87579C20.8048 6.55639 19.1672 5.6382 17.369 5.20511C17.2812 3.97444 16.2526 3 15 3C13.7474 3 12.7188 3.97444 12.631 5.20511C10.8328 5.6379 9.19519 6.55639 7.87579 7.87579C6.55639 9.19519 5.6379 10.8328 5.20511 12.631C3.97444 12.7188 3 13.7474 3 15C3 16.2526 3.97444 17.2812 5.20511 17.369C5.6379 19.1672 6.55639 20.8048 7.87579 22.1242C9.19519 23.4436 10.8328 24.3621 12.631 24.7949C12.7188 26.0256 13.7474 27 15 27C16.2526 27 17.2812 26.0256 17.369 24.7949C19.1672 24.3621 20.8048 23.4436 22.1242 22.1242C23.4436 20.8048 24.3621 19.1672 24.7949 17.369C26.0256 17.2812 27 16.2526 27 15ZM15 3.90226C15.8126 3.90226 16.4737 4.56331 16.4737 5.37594C16.4737 5.42586 16.4713 5.47489 16.4665 5.52241C16.3922 6.2791 15.7618 6.84962 15 6.84962C14.9287 6.84962 14.8583 6.84451 14.7895 6.83489C14.1248 6.74105 13.6006 6.20812 13.5332 5.5215C13.5284 5.47489 13.5263 5.42586 13.5263 5.37594C13.5263 4.56331 14.1874 3.90226 15 3.90226ZM3.90226 15C3.90226 14.1874 4.56331 13.5263 5.37594 13.5263C5.42586 13.5263 5.47489 13.5287 5.52241 13.5335C6.2791 13.6078 6.84962 14.2382 6.84962 15C6.84962 15.0475 6.84752 15.0947 6.84301 15.1411C6.8406 15.1675 6.83699 15.194 6.83338 15.2198C6.73564 15.88 6.20481 16.3994 5.5215 16.4665C5.47489 16.4713 5.42586 16.4734 5.37594 16.4734C4.56331 16.4737 3.90226 15.8126 3.90226 15ZM15 26.0977C14.1874 26.0977 13.5263 25.4367 13.5263 24.6241C13.5263 24.5762 13.5287 24.5266 13.5335 24.4776C13.6081 23.7209 14.2385 23.1504 15 23.1504C15.0238 23.1504 15.0475 23.151 15.071 23.1522C15.8003 23.1865 16.394 23.7444 16.4665 24.4773C16.4713 24.5272 16.4737 24.5765 16.4737 24.6244C16.4737 25.4367 15.8126 26.0977 15 26.0977ZM17.2611 23.8923C17.2586 23.8848 17.2559 23.8773 17.2532 23.8695C17.2505 23.8611 17.2475 23.8526 17.2445 23.8442C17.2355 23.818 17.2259 23.7919 17.2159 23.7663C17.2141 23.7618 17.2126 23.757 17.2108 23.7525C17.1991 23.7227 17.1868 23.6932 17.1738 23.6641C17.1705 23.6565 17.1669 23.649 17.1636 23.6415C17.1531 23.6183 17.1423 23.5952 17.1308 23.5726C17.1272 23.5654 17.1236 23.5579 17.12 23.5507C17.1056 23.5221 17.0905 23.4941 17.0752 23.4662C17.0725 23.4614 17.0695 23.4565 17.0668 23.4517C17.0535 23.4283 17.0397 23.4051 17.0256 23.382C17.0208 23.3741 17.0159 23.3663 17.0111 23.3588C16.9955 23.3341 16.9796 23.3098 16.9633 23.2857C16.9615 23.283 16.9597 23.2803 16.9579 23.2776C16.9398 23.2511 16.9209 23.2253 16.9017 23.1994C16.8962 23.1925 16.8908 23.1853 16.8857 23.1783C16.8701 23.1579 16.8541 23.1377 16.8379 23.1179C16.8331 23.1119 16.8283 23.1059 16.8232 23.1002C16.8024 23.0755 16.7814 23.0511 16.7597 23.0274C16.7552 23.0223 16.7504 23.0174 16.7456 23.0123C16.7275 22.9931 16.7095 22.9738 16.6908 22.9549C16.6845 22.9486 16.6782 22.942 16.6716 22.9356C16.6484 22.9125 16.6247 22.8899 16.6006 22.8677C16.1618 22.4683 15.5937 22.2481 15 22.2481C14.4063 22.2481 13.8382 22.4683 13.3997 22.8677C13.3753 22.8899 13.3519 22.9125 13.3287 22.9356C13.3224 22.942 13.3158 22.9486 13.3095 22.9549C13.2908 22.9738 13.2725 22.9928 13.2544 23.0123C13.2499 23.0174 13.2451 23.0223 13.2406 23.0274C13.2189 23.0511 13.1979 23.0755 13.1771 23.1002C13.1723 23.1059 13.1675 23.1119 13.1627 23.1176C13.1462 23.1377 13.1302 23.1579 13.1143 23.1783C13.1092 23.1853 13.1038 23.1919 13.0986 23.1988C13.0791 23.2247 13.0602 23.2508 13.0418 23.2773C13.0403 23.2794 13.0391 23.2815 13.0376 23.2836C13.0208 23.3086 13.0042 23.3335 12.9883 23.3591C12.9838 23.3663 12.9792 23.3735 12.9747 23.3808C12.96 23.4048 12.9456 23.4292 12.9314 23.4538C12.9293 23.4574 12.9272 23.4614 12.9251 23.465C12.9092 23.4935 12.8938 23.5224 12.8791 23.5516C12.8761 23.5576 12.8731 23.5636 12.8701 23.5699C12.858 23.5946 12.846 23.6192 12.8349 23.6442C12.8322 23.6502 12.8295 23.6562 12.8268 23.6623C12.8132 23.6926 12.8003 23.7233 12.7883 23.7543C12.7874 23.7564 12.7868 23.7585 12.7859 23.7606C12.7747 23.7892 12.7642 23.8183 12.754 23.8475C12.7519 23.8541 12.7495 23.8605 12.7474 23.8671C12.7447 23.8755 12.7414 23.8839 12.7386 23.8923C9.47248 23.0677 6.93233 20.5278 6.10767 17.2611C6.11519 17.2586 6.12241 17.2559 6.12993 17.2535C6.13865 17.2505 6.14737 17.2475 6.15609 17.2445C6.18196 17.2355 6.20752 17.2262 6.23308 17.2162C6.23789 17.2144 6.24301 17.2126 6.24782 17.2108C6.27759 17.1991 6.30677 17.1868 6.33594 17.1738C6.34376 17.1705 6.35128 17.1669 6.3588 17.1633C6.38195 17.1528 6.40481 17.142 6.42737 17.1308C6.43489 17.1272 6.44211 17.1236 6.44962 17.12C6.4782 17.1056 6.50617 17.0908 6.53414 17.0752C6.53895 17.0725 6.54376 17.0695 6.54857 17.0668C6.57203 17.0535 6.59549 17.0397 6.61835 17.0256C6.62617 17.0208 6.63368 17.0159 6.6415 17.0111C6.66617 16.9955 6.69083 16.9795 6.71489 16.963C6.71759 16.9612 6.72 16.9597 6.72271 16.9579C6.74917 16.9395 6.77504 16.9206 6.8009 16.9014C6.80782 16.8962 6.81474 16.8908 6.82165 16.8854C6.84211 16.8698 6.86226 16.8535 6.88241 16.8373C6.88842 16.8325 6.89414 16.8277 6.90015 16.8229C6.92481 16.8021 6.94917 16.7811 6.97293 16.7594C6.97805 16.7549 6.98286 16.7501 6.98797 16.7456C7.00752 16.7275 7.02647 16.7095 7.04541 16.6908C7.05173 16.6845 7.05835 16.6782 7.06466 16.6716C7.08752 16.6484 7.11038 16.6247 7.13263 16.6006C7.53173 16.1621 7.75188 15.5937 7.75188 15C7.75188 14.8887 7.74406 14.7783 7.72902 14.6695C7.66316 14.1979 7.45684 13.7558 7.13233 13.3997C7.13203 13.3994 7.13173 13.3991 7.13143 13.3985C7.10977 13.3747 7.08752 13.3516 7.06496 13.3287C7.05835 13.3221 7.05173 13.3155 7.04511 13.3089C7.02647 13.2905 7.00752 13.2725 6.98857 13.2547C6.98346 13.2499 6.97805 13.2448 6.97293 13.24C6.94917 13.2183 6.92511 13.1976 6.90075 13.1768C6.89444 13.1717 6.88842 13.1666 6.88211 13.1615C6.86256 13.1456 6.84271 13.1299 6.82286 13.1143C6.81564 13.1086 6.80842 13.1032 6.8009 13.0974C6.77534 13.0782 6.74977 13.0595 6.72361 13.0415C6.7203 13.0391 6.71669 13.037 6.71338 13.0346C6.69023 13.0186 6.66677 13.0033 6.64301 12.9886C6.63459 12.9835 6.62647 12.978 6.61805 12.9729C6.59609 12.9594 6.57414 12.9465 6.55188 12.9338C6.54586 12.9305 6.53985 12.9269 6.53383 12.9236C6.50677 12.9086 6.4791 12.8938 6.45143 12.8797C6.44301 12.8755 6.43429 12.8713 6.42586 12.8671C6.40481 12.8568 6.38346 12.8466 6.36241 12.837C6.35338 12.8328 6.34436 12.8286 6.33534 12.8247C6.30707 12.8123 6.2788 12.8003 6.25023 12.7889C6.24301 12.7862 6.23609 12.7835 6.22887 12.7808C6.20602 12.772 6.18316 12.7636 6.16 12.7555C6.14947 12.7519 6.13925 12.7483 6.12872 12.745C6.12211 12.7429 6.11549 12.7405 6.10887 12.738C6.93233 9.47218 9.47218 6.93233 12.7389 6.10767C12.7414 6.11519 12.7441 6.12271 12.7465 6.13023C12.7492 6.13865 12.7522 6.14737 12.7552 6.15579C12.7642 6.18165 12.7735 6.20752 12.7835 6.23338C12.7853 6.2382 12.7871 6.24301 12.7889 6.24752C12.8006 6.27729 12.8129 6.30677 12.8259 6.33594C12.8292 6.34346 12.8328 6.35098 12.8361 6.3585C12.8466 6.38165 12.8574 6.40451 12.8686 6.42737C12.8722 6.43459 12.8758 6.44211 12.8794 6.44932C12.8938 6.47789 12.9086 6.50586 12.9242 6.53383C12.9269 6.53865 12.9299 6.54346 12.9326 6.54827C12.9459 6.57173 12.9597 6.59489 12.9738 6.61805C12.9786 6.62586 12.9835 6.63368 12.9883 6.6415C13.0039 6.66617 13.0195 6.69053 13.0361 6.71459C13.0379 6.71729 13.0397 6.72 13.0415 6.72301C13.0595 6.74947 13.0785 6.77534 13.0977 6.8009C13.1032 6.80812 13.1086 6.81504 13.114 6.82196C13.1296 6.84211 13.1456 6.86226 13.1618 6.88211C13.1666 6.88812 13.1714 6.89414 13.1765 6.90015C13.197 6.92481 13.2183 6.94887 13.2397 6.97263C13.2442 6.97774 13.249 6.98286 13.2538 6.98767C13.2716 7.00692 13.2899 7.02617 13.3086 7.04481C13.3149 7.05143 13.3215 7.05774 13.3278 7.06406C13.351 7.08692 13.3747 7.10977 13.3988 7.13203C13.8379 7.53173 14.4063 7.75188 15 7.75188C15.1113 7.75188 15.2217 7.74406 15.3305 7.72902C15.8021 7.66316 16.2442 7.45684 16.6003 7.13233C16.6247 7.11008 16.6481 7.08752 16.6713 7.06436C16.6776 7.05805 16.6842 7.05143 16.6905 7.04511C16.7092 7.02617 16.7275 7.00722 16.7456 6.98767C16.7501 6.98256 16.7549 6.97774 16.7594 6.97263C16.7811 6.94887 16.8021 6.92451 16.8229 6.89985C16.828 6.89383 16.8328 6.88782 16.8376 6.8818C16.8538 6.86196 16.8698 6.84211 16.8851 6.82165C16.8905 6.81444 16.8962 6.80752 16.9014 6.8003C16.9206 6.77474 16.9392 6.74887 16.9573 6.72271C16.9594 6.7194 16.9615 6.71609 16.9639 6.71278C16.9798 6.68932 16.9952 6.66556 17.0105 6.6418C17.0156 6.63338 17.0208 6.62526 17.0259 6.61684C17.0394 6.59489 17.0523 6.57293 17.065 6.55068C17.0683 6.54466 17.0719 6.53865 17.0755 6.53263C17.0905 6.50556 17.1053 6.4782 17.1191 6.45053C17.1236 6.4418 17.1278 6.43308 17.132 6.42436C17.1423 6.40361 17.1522 6.38256 17.1618 6.3615C17.166 6.35218 17.1702 6.34316 17.1744 6.33383C17.1868 6.30586 17.1988 6.27759 17.2099 6.24932C17.2129 6.2418 17.2156 6.23429 17.2183 6.22677C17.2271 6.20421 17.2352 6.18165 17.2433 6.1591C17.2469 6.14857 17.2505 6.13774 17.2541 6.12722C17.2562 6.1206 17.2586 6.11429 17.2608 6.10767C20.5275 6.93263 23.0674 9.47248 23.892 12.7389C23.8845 12.7414 23.877 12.7441 23.8695 12.7468C23.8608 12.7498 23.8523 12.7525 23.8439 12.7555C23.818 12.7645 23.7922 12.7738 23.7663 12.7838C23.7615 12.7856 23.7567 12.7874 23.7522 12.7892C23.7224 12.8009 23.6929 12.8132 23.6638 12.8262C23.6562 12.8295 23.6484 12.8331 23.6409 12.8364C23.6177 12.8469 23.5949 12.8577 23.5723 12.8689C23.5648 12.8725 23.5576 12.8761 23.5501 12.8797C23.5218 12.8941 23.4935 12.9089 23.4656 12.9245C23.4608 12.9272 23.4556 12.9302 23.4508 12.9329C23.4274 12.9462 23.4042 12.96 23.3814 12.9741C23.3735 12.9789 23.3657 12.9838 23.3579 12.9886C23.3332 13.0042 23.3089 13.0198 23.2848 13.0364C23.2821 13.0382 23.2794 13.04 23.2767 13.0418C23.2502 13.0599 23.2244 13.0788 23.1988 13.098C23.1916 13.1035 23.1847 13.1089 23.1777 13.1143C23.1573 13.1299 23.1374 13.1459 23.1176 13.1621C23.1116 13.1669 23.1056 13.1717 23.0995 13.1768C23.0749 13.1976 23.0508 13.2186 23.0268 13.2403C23.0217 13.2448 23.0168 13.2496 23.0117 13.2544C22.9925 13.2725 22.9732 13.2905 22.9543 13.3092C22.948 13.3155 22.9414 13.3218 22.935 13.3284C22.9119 13.3516 22.8893 13.3753 22.8671 13.3994C22.4683 13.8382 22.2481 14.4063 22.2481 15C22.2481 15.5937 22.4683 16.1618 22.8677 16.6003C22.8899 16.6247 22.9125 16.6481 22.9356 16.6713C22.942 16.6776 22.9486 16.6842 22.9549 16.6905C22.9738 16.7092 22.9928 16.7275 23.0123 16.7456C23.0174 16.7501 23.0223 16.7549 23.0274 16.7594C23.0511 16.7811 23.0755 16.8021 23.1002 16.8229C23.1059 16.8277 23.1119 16.8325 23.1176 16.8373C23.1377 16.8538 23.1579 16.8698 23.1786 16.8857C23.1856 16.8908 23.1922 16.8962 23.1991 16.9014C23.225 16.9209 23.2511 16.9398 23.2779 16.9582C23.28 16.9597 23.2821 16.9609 23.2839 16.9624C23.3089 16.9795 23.3341 16.9958 23.3594 17.012C23.3666 17.0165 23.3738 17.0211 23.3811 17.0253C23.4054 17.0403 23.4298 17.0547 23.4544 17.0686C23.458 17.0707 23.4617 17.0728 23.4653 17.0749C23.4938 17.0908 23.5227 17.1062 23.5519 17.1209C23.5579 17.1239 23.5639 17.1269 23.5699 17.1299C23.5946 17.1423 23.6195 17.154 23.6445 17.1654C23.6505 17.1681 23.6562 17.1708 23.6623 17.1735C23.6926 17.1871 23.7233 17.2 23.7543 17.212C23.7564 17.2129 23.7582 17.2135 23.7603 17.2144C23.7892 17.2256 23.8183 17.2364 23.8475 17.2463C23.8538 17.2484 23.8602 17.2508 23.8668 17.2529C23.8752 17.2559 23.8836 17.2589 23.8923 17.2617C23.0677 20.5275 20.5275 23.0677 17.2611 23.8923ZM24.6241 16.4737C24.5762 16.4737 24.5266 16.4713 24.4776 16.4665C23.7209 16.3919 23.1504 15.7615 23.1504 15C23.1504 14.9762 23.151 14.9525 23.1522 14.929C23.1865 14.1997 23.7444 13.606 24.4773 13.5335C24.5272 13.5287 24.5765 13.5263 24.6244 13.5263C25.437 13.5263 26.098 14.1874 26.098 15C26.098 15.8126 25.4367 16.4737 24.6241 16.4737Z" fill="#9D3A21"/>
<circle cx="15" cy="15" r="15" fill="#D25239" fill-opacity="0.2"/>
</svg>
