<svg width="30" height="30" viewBox="0 0 30 30" fill="none" xmlns="http://www.w3.org/2000/svg">
<path d="M23.0139 12.5188C21.4575 12.5188 19.943 12.0743 18.6338 11.2328C18.3998 11.0827 18.1702 10.9179 17.9515 10.7428L17.7936 10.6166C17.793 10.6159 17.792 10.6153 17.7914 10.615C17.7867 10.6112 17.7817 10.6075 17.7767 10.604C17.7726 10.6012 17.7686 10.5981 17.7645 10.5953C17.7598 10.5921 17.7551 10.5893 17.7504 10.5862C17.7457 10.583 17.7407 10.5799 17.736 10.5771C17.7316 10.5746 17.7272 10.5724 17.7228 10.5699C17.7172 10.5671 17.7118 10.5639 17.7062 10.5611C17.7053 10.5608 17.7046 10.5602 17.7037 10.5599C17.7003 10.5583 17.6965 10.5567 17.693 10.5552C17.6874 10.5527 17.6818 10.5498 17.6758 10.5476C17.6711 10.5458 17.6664 10.5442 17.6614 10.5423C17.6558 10.5404 17.6504 10.5382 17.6448 10.5364C17.6395 10.5348 17.6345 10.5332 17.6291 10.5317C17.6238 10.5301 17.6185 10.5285 17.6135 10.5273C17.6078 10.526 17.6025 10.5248 17.5969 10.5235C17.5919 10.5226 17.5865 10.5213 17.5815 10.5204C17.5759 10.5194 17.5702 10.5185 17.5646 10.5179C17.5596 10.5173 17.5543 10.5163 17.5493 10.516C17.5436 10.5154 17.538 10.5151 17.5323 10.5148C17.527 10.5144 17.5217 10.5141 17.5167 10.5138C17.5113 10.5135 17.5057 10.5138 17.5004 10.5138C17.4951 10.5138 17.4894 10.5138 17.4841 10.5138C17.4788 10.5141 17.4734 10.5144 17.4684 10.5148C17.4628 10.5151 17.4571 10.5154 17.4515 10.516C17.4465 10.5166 17.4412 10.5173 17.4362 10.5179C17.4305 10.5188 17.4249 10.5194 17.4192 10.5204C17.4142 10.5213 17.4089 10.5223 17.4039 10.5235C17.3982 10.5248 17.3929 10.5257 17.3873 10.5273C17.382 10.5285 17.3769 10.5301 17.3716 10.5317C17.3663 10.5332 17.3613 10.5345 17.356 10.5364C17.3503 10.5382 17.345 10.5401 17.3394 10.5423C17.3347 10.5442 17.3296 10.5458 17.3249 10.5476C17.319 10.5498 17.3133 10.5527 17.3077 10.5552C17.3043 10.5567 17.3005 10.558 17.2971 10.5599C17.2961 10.5602 17.2955 10.5608 17.2946 10.5611C17.2889 10.5639 17.2836 10.5668 17.2779 10.5699C17.2736 10.5721 17.2692 10.5746 17.2651 10.5768C17.2601 10.5796 17.2554 10.5827 17.2507 10.5859C17.246 10.5887 17.2413 10.5918 17.2366 10.5946C17.2325 10.5975 17.2285 10.6006 17.2244 10.6034C17.2194 10.6072 17.2144 10.6106 17.2097 10.6144C17.209 10.615 17.2081 10.6153 17.2075 10.6159L16.9747 10.8017C16.8419 10.9051 16.709 11.0025 16.579 11.0915C16.3231 11.2676 16.0533 11.4311 15.7776 11.5771C15.4211 11.7657 15.0486 11.9286 14.6696 12.0614C14.4565 12.1363 14.2347 12.2037 14.011 12.2616C13.3494 12.4324 12.6686 12.5188 11.9863 12.5188C11.7269 12.5188 11.5164 12.7294 11.5164 12.9887V17.5V17.5047C11.5164 18.052 11.5868 18.5968 11.7253 19.1228C11.84 19.5608 12.0029 19.9884 12.209 20.3938C12.3682 20.7068 12.554 21.0075 12.761 21.2876C13.0552 21.6864 13.3957 22.0508 13.7732 22.37C14.1009 22.6473 14.459 22.8926 14.8375 23.0993L17.2751 24.4289C17.2773 24.4302 17.2798 24.4311 17.282 24.4324C17.2861 24.4346 17.2905 24.4367 17.2949 24.4389C17.2999 24.4414 17.3049 24.4436 17.3099 24.4458C17.3143 24.4477 17.3184 24.4496 17.3227 24.4515C17.3281 24.4537 17.3331 24.4555 17.3384 24.4574C17.3428 24.459 17.3469 24.4606 17.3513 24.4621C17.3566 24.464 17.3622 24.4656 17.3675 24.4671C17.3719 24.4684 17.376 24.4696 17.3804 24.4709C17.386 24.4725 17.3917 24.4737 17.3976 24.475C17.4017 24.4759 17.4058 24.4768 17.4098 24.4778C17.4158 24.479 17.4221 24.48 17.428 24.4809C17.4318 24.4815 17.4358 24.4822 17.4396 24.4828C17.4465 24.4837 17.4531 24.4844 17.46 24.4847C17.4631 24.485 17.4665 24.4853 17.4697 24.4856C17.4797 24.4862 17.4897 24.4866 17.4998 24.4866C17.5098 24.4866 17.5198 24.4862 17.5298 24.4856C17.5333 24.4853 17.5364 24.485 17.5399 24.4847C17.5464 24.4841 17.5533 24.4834 17.5599 24.4828C17.564 24.4822 17.5677 24.4815 17.5718 24.4809C17.5778 24.48 17.5837 24.479 17.5897 24.4781C17.5941 24.4772 17.5981 24.4762 17.6025 24.4753C17.6082 24.474 17.6135 24.4728 17.6191 24.4712C17.6235 24.47 17.6279 24.4687 17.6326 24.4674C17.6379 24.4659 17.6432 24.4643 17.6482 24.4627C17.6526 24.4612 17.6573 24.4596 17.6617 24.458C17.6667 24.4562 17.6717 24.4543 17.6768 24.4521C17.6811 24.4502 17.6858 24.4483 17.6902 24.4465C17.6952 24.4443 17.7003 24.4421 17.705 24.4396C17.7093 24.4374 17.7137 24.4352 17.7178 24.433C17.72 24.4317 17.7225 24.4308 17.7247 24.4295L20.1623 23.1C20.9847 22.6517 21.6833 22.042 22.2391 21.2882C22.7203 20.6354 23.0687 19.907 23.2742 19.1241C23.413 18.5971 23.4831 18.0523 23.4831 17.5054V17.5V12.9887C23.4838 12.7294 23.2732 12.5188 23.0139 12.5188ZM12.4562 13.4465C13.0596 13.4151 13.6592 13.323 14.2447 13.172C14.4944 13.1075 14.7419 13.0323 14.9797 12.9486C15.4023 12.8005 15.8184 12.6188 16.2162 12.4082C16.4954 12.2604 16.7689 12.0965 17.0301 11.9211V17.0301H12.4562V13.4465ZM22.3657 18.8844C22.1902 19.552 21.8932 20.173 21.4831 20.73C21.0095 21.3725 20.4136 21.8919 19.7128 22.2742L17.97 23.2247V17.97H22.5239C22.4976 18.2788 22.4446 18.5849 22.3657 18.8844Z" fill="#9D3A21"/>
<path d="M30 17.5C30 16.1952 28.985 15.1237 27.703 15.0323C27.2522 13.1591 26.2954 11.4533 24.9211 10.0789C23.5467 8.70457 21.8409 7.74812 19.9677 7.29699C19.8763 6.01504 18.8048 5 17.5 5C16.1952 5 15.1237 6.01504 15.0323 7.29699C13.1591 7.74781 11.4533 8.70457 10.0789 10.0789C8.70457 11.4533 7.74781 13.1591 7.29699 15.0323C6.01504 15.1237 5 16.1952 5 17.5C5 18.8048 6.01504 19.8763 7.29699 19.9677C7.74781 21.8409 8.70457 23.5467 10.0789 24.9211C11.4533 26.2954 13.1591 27.2522 15.0323 27.703C15.1237 28.985 16.1952 30 17.5 30C18.8048 30 19.8763 28.985 19.9677 27.703C21.8409 27.2522 23.5467 26.2954 24.9211 24.9211C26.2954 23.5467 27.2522 21.8409 27.703 19.9677C28.985 19.8763 30 18.8048 30 17.5ZM17.5 5.93985C18.3465 5.93985 19.0351 6.62845 19.0351 7.47494C19.0351 7.52694 19.0326 7.57801 19.0276 7.62751C18.9502 8.41573 18.2935 9.01003 17.5 9.01003C17.4258 9.01003 17.3524 9.0047 17.2807 8.99467C16.5883 8.89693 16.0423 8.34179 15.9721 7.62657C15.9671 7.57801 15.9649 7.52694 15.9649 7.47494C15.9649 6.62845 16.6535 5.93985 17.5 5.93985ZM5.93985 17.5C5.93985 16.6535 6.62845 15.9649 7.47494 15.9649C7.52694 15.9649 7.57801 15.9674 7.62751 15.9724C8.41573 16.0498 9.01003 16.7065 9.01003 17.5C9.01003 17.5495 9.00783 17.5987 9.00313 17.6469C9.00063 17.6745 8.99687 17.7021 8.99311 17.729C8.89129 18.4167 8.33835 18.9577 7.62657 19.0276C7.57801 19.0326 7.52694 19.0348 7.47494 19.0348C6.62845 19.0351 5.93985 18.3465 5.93985 17.5ZM17.5 29.0602C16.6535 29.0602 15.9649 28.3716 15.9649 27.5251C15.9649 27.4753 15.9674 27.4236 15.9724 27.3725C16.0501 26.5843 16.7068 25.99 17.5 25.99C17.5247 25.99 17.5495 25.9906 17.5739 25.9919C18.3336 26.0276 18.9521 26.6087 19.0276 27.3722C19.0326 27.4242 19.0351 27.4756 19.0351 27.5254C19.0351 28.3716 18.3465 29.0602 17.5 29.0602ZM19.8553 26.7628C19.8528 26.755 19.8499 26.7472 19.8471 26.739C19.8443 26.7303 19.8412 26.7215 19.838 26.7127C19.8286 26.6855 19.8186 26.6582 19.8083 26.6316C19.8064 26.6269 19.8048 26.6219 19.8029 26.6172C19.7907 26.5862 19.7779 26.5555 19.7644 26.5251C19.761 26.5172 19.7572 26.5094 19.7538 26.5016C19.7428 26.4774 19.7315 26.4533 19.7196 26.4298C19.7159 26.4223 19.7121 26.4145 19.7083 26.407C19.6933 26.3772 19.6776 26.3481 19.6617 26.3189C19.6588 26.3139 19.6557 26.3089 19.6529 26.3039C19.6391 26.2794 19.6247 26.2553 19.61 26.2312C19.6049 26.2231 19.5999 26.2149 19.5949 26.2071C19.5786 26.1814 19.562 26.156 19.5451 26.131C19.5432 26.1281 19.5414 26.1253 19.5395 26.1225C19.5207 26.0949 19.5009 26.068 19.4809 26.041C19.4753 26.0338 19.4696 26.0263 19.4643 26.0191C19.448 25.9978 19.4314 25.9768 19.4145 25.9561C19.4095 25.9499 19.4044 25.9436 19.3991 25.9377C19.3775 25.912 19.3556 25.8866 19.333 25.8618C19.3283 25.8565 19.3233 25.8515 19.3183 25.8462C19.2995 25.8261 19.2807 25.8061 19.2613 25.7863C19.2547 25.7798 19.2481 25.7729 19.2412 25.7663C19.2171 25.7422 19.1924 25.7187 19.1673 25.6955C18.7102 25.2794 18.1184 25.0501 17.5 25.0501C16.8816 25.0501 16.2898 25.2794 15.833 25.6955C15.8076 25.7187 15.7832 25.7422 15.7591 25.7663C15.7525 25.7729 15.7456 25.7798 15.739 25.7863C15.7196 25.8061 15.7005 25.8258 15.6817 25.8462C15.677 25.8515 15.672 25.8565 15.6673 25.8618C15.6447 25.8866 15.6228 25.912 15.6012 25.9377C15.5962 25.9436 15.5912 25.9499 15.5862 25.9558C15.5689 25.9768 15.5523 25.9978 15.5357 26.0191C15.5304 26.0263 15.5247 26.0332 15.5194 26.0404C15.4991 26.0674 15.4793 26.0946 15.4602 26.1222C15.4586 26.1244 15.4574 26.1266 15.4558 26.1288C15.4383 26.1548 15.4211 26.1808 15.4044 26.2074C15.3997 26.2149 15.3951 26.2224 15.3904 26.2299C15.375 26.255 15.36 26.2804 15.3452 26.3061C15.343 26.3098 15.3409 26.3139 15.3387 26.3177C15.3221 26.3474 15.3061 26.3775 15.2907 26.4079C15.2876 26.4142 15.2845 26.4204 15.2813 26.427C15.2688 26.4527 15.2563 26.4784 15.2447 26.5044C15.2419 26.5107 15.239 26.5169 15.2362 26.5232C15.2221 26.5548 15.2086 26.5868 15.1961 26.619C15.1952 26.6212 15.1945 26.6234 15.1936 26.6256C15.182 26.6554 15.1711 26.6858 15.1604 26.7162C15.1582 26.7231 15.1557 26.7296 15.1535 26.7365C15.1507 26.7453 15.1472 26.7541 15.1444 26.7628C11.7422 25.9038 9.09618 23.2581 8.23716 19.8553C8.24499 19.8528 8.25251 19.8499 8.26034 19.8474C8.26942 19.8443 8.27851 19.8412 8.28759 19.838C8.31454 19.8286 8.34117 19.8189 8.36779 19.8086C8.37281 19.8067 8.37813 19.8048 8.38315 19.8029C8.41416 19.7907 8.44455 19.7779 8.47494 19.7644C8.48308 19.761 8.49091 19.7572 8.49875 19.7534C8.52287 19.7425 8.54668 19.7312 8.57018 19.7196C8.57801 19.7159 8.58553 19.7121 8.59336 19.7083C8.62312 19.6933 8.65226 19.6779 8.68139 19.6617C8.6864 19.6588 8.69142 19.6557 8.69643 19.6529C8.72086 19.6391 8.7453 19.6247 8.76911 19.61C8.77726 19.6049 8.78509 19.5999 8.79323 19.5949C8.81892 19.5786 8.84461 19.562 8.86967 19.5448C8.87249 19.5429 8.875 19.5414 8.87782 19.5395C8.90539 19.5204 8.93233 19.5006 8.95927 19.4806C8.96648 19.4752 8.97368 19.4696 8.98089 19.464C9.00219 19.4477 9.02318 19.4308 9.04417 19.4138C9.05044 19.4088 9.05639 19.4038 9.06266 19.3988C9.08835 19.3772 9.11372 19.3553 9.13847 19.3327C9.1438 19.328 9.14881 19.323 9.15414 19.3183C9.1745 19.2995 9.19424 19.2807 9.21397 19.2613C9.22055 19.2547 9.22744 19.2481 9.23402 19.2412C9.25783 19.2171 9.28164 19.1924 9.30482 19.1673C9.72055 18.7105 9.94987 18.1184 9.94987 17.5C9.94987 17.3841 9.94173 17.2691 9.92606 17.1557C9.85746 16.6645 9.64254 16.2039 9.30451 15.833C9.3042 15.8327 9.30388 15.8324 9.30357 15.8318C9.28101 15.807 9.25783 15.7829 9.23434 15.7591C9.22744 15.7522 9.22055 15.7453 9.21366 15.7384C9.19424 15.7193 9.1745 15.7005 9.15476 15.682C9.14944 15.677 9.1438 15.6717 9.13847 15.6667C9.11372 15.6441 9.08866 15.6225 9.06328 15.6009C9.0567 15.5956 9.05044 15.5902 9.04386 15.5849C9.0235 15.5683 9.00282 15.552 8.98214 15.5357C8.97462 15.5298 8.96711 15.5241 8.95927 15.5182C8.93264 15.4981 8.90601 15.4787 8.87876 15.4599C8.87531 15.4574 8.87155 15.4552 8.86811 15.4527C8.84399 15.4361 8.81955 15.4201 8.7948 15.4048C8.78603 15.3994 8.77757 15.3938 8.7688 15.3885C8.74593 15.3744 8.72306 15.3609 8.69987 15.3477C8.69361 15.3443 8.68734 15.3405 8.68108 15.3371C8.65288 15.3214 8.62406 15.3061 8.59524 15.2914C8.58647 15.287 8.57738 15.2826 8.56861 15.2782C8.54668 15.2675 8.52444 15.2569 8.50251 15.2469C8.49311 15.2425 8.48371 15.2381 8.47431 15.234C8.44486 15.2212 8.41541 15.2086 8.38565 15.1967C8.37813 15.1939 8.37093 15.1911 8.36341 15.1883C8.3396 15.1792 8.31579 15.1704 8.29167 15.162C8.2807 15.1582 8.27005 15.1544 8.25909 15.151C8.25219 15.1488 8.2453 15.1463 8.23841 15.1438C9.09618 11.7419 11.7419 9.09618 15.1447 8.23716C15.1472 8.24499 15.1501 8.25282 15.1526 8.26065C15.1554 8.26942 15.1585 8.27851 15.1617 8.28728C15.1711 8.31422 15.1808 8.34117 15.1911 8.36811C15.193 8.37312 15.1949 8.37813 15.1967 8.38283C15.209 8.41385 15.2218 8.44455 15.2353 8.47494C15.2387 8.48277 15.2425 8.4906 15.2459 8.49843C15.2569 8.52256 15.2682 8.54637 15.2798 8.57018C15.2835 8.57769 15.2873 8.58553 15.291 8.59305C15.3061 8.62281 15.3214 8.65194 15.3377 8.68108C15.3405 8.68609 15.3437 8.6911 15.3465 8.69612C15.3603 8.72055 15.3747 8.74467 15.3894 8.7688C15.3944 8.77694 15.3994 8.78509 15.4044 8.79323C15.4207 8.81892 15.437 8.8443 15.4543 8.86936C15.4561 8.87218 15.458 8.875 15.4599 8.87813C15.4787 8.9057 15.4984 8.93264 15.5185 8.95927C15.5241 8.96679 15.5298 8.974 15.5354 8.9812C15.5517 9.00219 15.5683 9.02318 15.5852 9.04386C15.5902 9.05013 15.5952 9.05639 15.6006 9.06266C15.6219 9.08835 15.6441 9.11341 15.6664 9.13816C15.6711 9.14348 15.6761 9.14881 15.6811 9.15382C15.6996 9.17387 15.7187 9.19392 15.7381 9.21335C15.7447 9.22024 15.7516 9.22682 15.7581 9.2334C15.7823 9.25721 15.807 9.28101 15.8321 9.3042C16.2895 9.72055 16.8816 9.94987 17.5 9.94987C17.6159 9.94987 17.7309 9.94173 17.8443 9.92606C18.3355 9.85746 18.7961 9.64254 19.167 9.30451C19.1924 9.28133 19.2168 9.25783 19.2409 9.23371C19.2475 9.22713 19.2544 9.22024 19.261 9.21366C19.2804 9.19392 19.2995 9.17419 19.3183 9.15382C19.323 9.1485 19.328 9.14348 19.3327 9.13816C19.3553 9.11341 19.3772 9.08803 19.3988 9.06234C19.4041 9.05608 19.4091 9.04981 19.4142 9.04355C19.4311 9.02287 19.4477 9.00219 19.4637 8.98089C19.4693 8.97337 19.4752 8.96617 19.4806 8.95865C19.5006 8.93202 19.5201 8.90508 19.5388 8.87782C19.541 8.87437 19.5432 8.87093 19.5457 8.86748C19.5623 8.84304 19.5783 8.8183 19.5943 8.79355C19.5996 8.78477 19.6049 8.77632 19.6103 8.76754C19.6244 8.74467 19.6378 8.7218 19.651 8.69862C19.6544 8.69236 19.6582 8.68609 19.662 8.67982C19.6776 8.65163 19.693 8.62312 19.7074 8.5943C19.7121 8.58521 19.7165 8.57613 19.7209 8.56704C19.7315 8.54543 19.7419 8.5235 19.7519 8.50157C19.7563 8.49185 19.7607 8.48246 19.765 8.47274C19.7779 8.44361 19.7904 8.41416 19.802 8.38471C19.8051 8.37688 19.808 8.36905 19.8108 8.36122C19.8199 8.33772 19.8283 8.31422 19.8368 8.29073C19.8405 8.27976 19.8443 8.26848 19.8481 8.25752C19.8503 8.25063 19.8528 8.24405 19.8549 8.23716C23.2578 9.09649 25.9035 11.7422 26.7625 15.1447C26.7547 15.1472 26.7469 15.1501 26.739 15.1529C26.7299 15.156 26.7212 15.1588 26.7124 15.162C26.6855 15.1714 26.6585 15.1811 26.6316 15.1914C26.6266 15.1933 26.6216 15.1952 26.6169 15.1971C26.5858 15.2093 26.5551 15.2221 26.5247 15.2356C26.5169 15.239 26.5088 15.2428 26.5009 15.2462C26.4768 15.2572 26.453 15.2685 26.4295 15.2801C26.4217 15.2838 26.4142 15.2876 26.4063 15.2914C26.3769 15.3064 26.3474 15.3217 26.3183 15.338C26.3133 15.3409 26.308 15.344 26.3029 15.3468C26.2785 15.3606 26.2544 15.375 26.2306 15.3897C26.2224 15.3947 26.2143 15.3997 26.2061 15.4048C26.1805 15.4211 26.1551 15.4373 26.13 15.4546C26.1272 15.4565 26.1244 15.4583 26.1216 15.4602C26.094 15.479 26.067 15.4987 26.0404 15.5188C26.0329 15.5244 26.0257 15.5301 26.0185 15.5357C25.9972 15.552 25.9765 15.5686 25.9558 15.5855C25.9496 15.5905 25.9433 15.5956 25.937 15.6009C25.9113 15.6225 25.8863 15.6444 25.8612 15.667C25.8559 15.6717 25.8509 15.6767 25.8456 15.6817C25.8255 15.7005 25.8055 15.7193 25.7857 15.7387C25.7791 15.7453 25.7722 15.7519 25.7657 15.7588C25.7415 15.7829 25.718 15.8076 25.6949 15.8327C25.2794 16.2898 25.0501 16.8816 25.0501 17.5C25.0501 18.1184 25.2794 18.7102 25.6955 19.167C25.7187 19.1924 25.7422 19.2168 25.7663 19.2409C25.7729 19.2475 25.7798 19.2544 25.7863 19.261C25.8061 19.2804 25.8258 19.2995 25.8462 19.3183C25.8515 19.323 25.8565 19.328 25.8618 19.3327C25.8866 19.3553 25.912 19.3772 25.9377 19.3988C25.9436 19.4038 25.9499 19.4088 25.9558 19.4138C25.9768 19.4311 25.9978 19.4477 26.0194 19.4643C26.0266 19.4696 26.0335 19.4752 26.0407 19.4806C26.0677 19.5009 26.0949 19.5207 26.1228 19.5398C26.125 19.5414 26.1272 19.5426 26.1291 19.5442C26.1551 19.562 26.1814 19.5789 26.2077 19.5959C26.2152 19.6006 26.2227 19.6053 26.2303 19.6096C26.2556 19.6253 26.281 19.6404 26.3067 19.6548C26.3105 19.657 26.3142 19.6591 26.318 19.6613C26.3477 19.6779 26.3778 19.6939 26.4082 19.7093C26.4145 19.7124 26.4207 19.7155 26.427 19.7187C26.4527 19.7315 26.4787 19.7437 26.5047 19.7556C26.511 19.7585 26.5169 19.7613 26.5232 19.7641C26.5548 19.7782 26.5868 19.7917 26.619 19.8042C26.6212 19.8051 26.6231 19.8058 26.6253 19.8067C26.6554 19.8183 26.6858 19.8296 26.7162 19.8399C26.7227 19.8421 26.7293 19.8446 26.7362 19.8468C26.745 19.8499 26.7538 19.8531 26.7628 19.8559C25.9038 23.2578 23.2578 25.9038 19.8553 26.7628ZM27.5251 19.0351C27.4753 19.0351 27.4236 19.0326 27.3725 19.0276C26.5843 18.9499 25.99 18.2932 25.99 17.5C25.99 17.4753 25.9906 17.4505 25.9919 17.4261C26.0276 16.6664 26.6087 16.0479 27.3722 15.9724C27.4242 15.9674 27.4756 15.9649 27.5254 15.9649C28.3719 15.9649 29.0605 16.6535 29.0605 17.5C29.0605 18.3465 28.3716 19.0351 27.5251 19.0351Z" fill="#9D3A21"/>
<circle cx="13.5" cy="13.5" r="13.5" fill="#D25239" fill-opacity="0.2"/>
</svg>
