<svg width="30" height="30" viewBox="0 0 30 30" fill="none" xmlns="http://www.w3.org/2000/svg">
<g clip-path="url(#clip0_11_40)">
<path d="M15.9579 10.3065V12.2933C16.7731 12.5822 17.4182 13.2268 17.7066 14.042H19.6934C19.3127 12.1654 17.8345 10.6872 15.9579 10.3065Z" fill="#9D3A21" fill-opacity="0.8"/>
<path d="M17.7057 15.9579C17.3114 17.0734 16.251 17.8737 14.9999 17.8737C13.4126 17.8737 12.1261 16.5872 12.1261 14.9999C12.1261 13.7493 12.9265 12.6889 14.042 12.2942V10.308C11.8559 10.752 10.2102 12.6828 10.2102 15C10.2102 17.6454 12.3546 19.7897 14.9999 19.7897C17.3167 19.7897 19.2479 18.144 19.6919 15.958L17.7057 15.9579Z" fill="#9D3A21" fill-opacity="0.8"/>
<path d="M29.7326 14.6887C29.4922 14.408 23.7411 7.81543 14.9999 7.81543C6.25866 7.81543 0.507735 14.4079 0.267304 14.6887L0 14.9998L0.267304 15.3112C0.507735 15.5919 6.25876 22.1845 15 22.1845C23.7412 22.1845 29.4923 15.5919 29.7327 15.3112L30 14.9998L29.7326 14.6887ZM21.2266 14.9998C21.2266 18.4331 18.4333 21.2265 14.9999 21.2265C11.5665 21.2265 8.77332 18.4331 8.77332 14.9998C8.77332 11.5666 11.5667 8.77317 14.9999 8.77317C18.4331 8.77317 21.2266 11.5666 21.2266 14.9998ZM1.28359 14.9994C2.2588 13.9864 5.63597 10.7807 10.4995 9.40791C8.86477 10.726 7.81528 12.7416 7.81528 14.9999C7.81528 17.2568 8.86324 19.2714 10.4956 20.5895C5.63985 19.2148 2.25931 16.0114 1.28359 14.9994ZM19.5003 20.5919C21.135 19.2737 22.1845 17.2582 22.1845 14.9998C22.1845 12.7429 21.1366 10.7284 19.5042 9.41026C24.3606 10.7849 27.7406 13.9883 28.7163 15.0004C27.7411 16.0134 24.3638 19.2192 19.5003 20.5919Z" fill="#9D3A21"/>
<path d="M14.9998 5.89947C19.0409 5.89947 22.9804 7.15537 26.7092 9.63253L27.2389 8.83461C23.4052 6.28796 19.1726 4.94153 14.9997 4.94153C11.6695 4.94153 8.37312 5.76868 5.20093 7.39958L5.63918 8.25167C8.67415 6.69076 11.8239 5.89947 14.9998 5.89947Z" fill="#9D3A21"/>
<path d="M4.70064 8.76467L4.22499 7.93323C3.71153 8.22679 3.21872 8.53047 2.76074 8.83466L3.29045 9.63259C3.73125 9.34036 4.20537 9.04822 4.70064 8.76467Z" fill="#9D3A21"/>
<path d="M14.9999 24.1004C10.9589 24.1004 7.01934 22.8445 3.29057 20.3673L2.76086 21.1652C6.59458 23.7119 10.8272 25.0583 15 25.0583C18.3308 25.0583 21.6271 24.2307 24.7989 22.5998L24.3606 21.7477C21.3263 23.3091 18.1765 24.1004 14.9999 24.1004Z" fill="#9D3A21"/>
<path d="M25.2993 21.2351L25.775 22.0666C26.2884 21.773 26.7812 21.4693 27.2392 21.1651L26.7095 20.3672C26.2687 20.6594 25.7946 20.9517 25.2993 21.2351Z" fill="#9D3A21"/>
</g>
<defs>
<clipPath id="clip0_11_40">
<rect width="30" height="30" fill="white"/>
</clipPath>
</defs>
</svg>
